<svg xmlns="http://www.w3.org/2000/svg" xmlns:xlink="http://www.w3.org/1999/xlink" width="73.604" height="55.934" viewBox="0 0 73.604 55.934">
  <defs>
    <clipPath id="clip-path">
      <path id="Path_17" data-name="Path 17" d="M20.974,10.29H17.25L15.77,6.444H9.006L7.6,10.29H3.977l6.6-16.927h3.592Zm-6.3-6.711L12.344-2.7,10.057,3.579Zm8.113,6.711V-6.637h5.485a19.468,19.468,0,0,1,4.065.254,4.442,4.442,0,0,1,2.436,1.656,5.257,5.257,0,0,1,.981,3.294,5.388,5.388,0,0,1-.57,2.628,4.573,4.573,0,0,1-1.437,1.673A4.924,4.924,0,0,1,32,3.675a19.994,19.994,0,0,1-3.5.237H26.2V10.3ZM26.2-3.728v4.8H28.07A8.963,8.963,0,0,0,30.778.81a2.26,2.26,0,0,0,1.069-.832,2.3,2.3,0,0,0,.385-1.314A2.182,2.182,0,0,0,31.689-2.9a2.339,2.339,0,0,0-1.376-.753,16.2,16.2,0,0,0-2.462-.114ZM38.461,10.29V-6.637h3.417V10.29Z" transform="translate(-3.977 6.654)" fill="#707070"/>
    </clipPath>
    <clipPath id="clip-path-2">
      <path id="Path_19" data-name="Path 19" d="M56.526,41H38.408V36.97H56.526c5.213,0,9.366-2.287,11.705-6.448a15.814,15.814,0,0,0-.3-15.385c-2.8-4.608-7.885-7.009-14.342-6.808l-2.076.079V6.314c0-4.381-1.463-8.034-4.214-10.514a13.957,13.957,0,0,0-9.418-3.426c-6.808,0-14.421,4.381-14.421,13.957V8.408l-2.12-.114c-6.562-.333-11.731,2-14.588,6.571A15.28,15.28,0,0,0,6.394,30c2.479,4.477,7.009,6.939,12.792,6.939H26.5v4.03H19.185c-7.193,0-13.142-3.285-16.314-9.007a19.38,19.38,0,0,1,.464-19.275c3.356-5.371,9.05-8.341,16.191-8.49.99-10.408,9.865-15.875,18.355-15.875A17.978,17.978,0,0,1,50.008-7.2,17.137,17.137,0,0,1,55.457,4.3c7.009.272,12.634,3.338,15.919,8.761a19.678,19.678,0,0,1,.368,19.45C68.7,37.9,63.158,41,56.526,41Z" transform="translate(-0.531 11.675)" fill="#82bc00"/>
    </clipPath>
    <clipPath id="clip-path-3">
      <path id="Path_21" data-name="Path 21" d="M7.595,2.8,14.6,8.055V-2.459L7.595,2.8Z" transform="translate(-7.595 2.459)" fill="#82bc00"/>
    </clipPath>
  </defs>
  <g id="api" transform="translate(-0.531 11.675)">
    <g id="Group_9" data-name="Group 9" transform="translate(17.512 13.069)" clip-path="url(#clip-path)">
      <path id="Path_16" data-name="Path 16" d="M-1.023-11.654H86.161V54.581H-1.023Z" transform="translate(-23.618 -12.987)" fill="#707070"/>
    </g>
    <g id="Group_10" data-name="Group 10" transform="translate(0.531 -11.675)" clip-path="url(#clip-path-2)">
      <path id="Path_18" data-name="Path 18" d="M-4.469-16.675H118.418V85.282H-4.469Z" transform="translate(-20.172 -7.966)" fill="#82bc00"/>
    </g>
    <g id="Group_11" data-name="Group 11" transform="translate(35.341 33.745)" clip-path="url(#clip-path-3)">
      <path id="Path_20" data-name="Path 20" d="M2.595-7.459H58.886v59.8H2.595Z" transform="translate(-27.236 -17.182)" fill="#82bc00"/>
    </g>
  </g>
</svg>
