<svg xmlns="http://www.w3.org/2000/svg" width="32" height="29.156" viewBox="0 0 32 29.156">
  <path id="Path_33" data-name="Path 33" d="M13.656,8.922a3.2,3.2,0,0,1,.308,6.385l-.308.015H3.7a3.2,3.2,0,0,1-.308-6.385L3.7,8.922ZM17.211-5.656c3.729,0,5.251.911,5.975,2.759L27.346,8.917a3.2,3.2,0,0,1-5.921,2.42l-.114-.285L19.568,6.076l-4.932,0L7.563-.995l.677-.752a11.834,11.834,0,0,1,2.45-1.969A12.193,12.193,0,0,1,17.211-5.656ZM13.656,11.056H3.7a1.067,1.067,0,0,0-.192,2.116l.192.017h9.956a1.067,1.067,0,0,0,.192-2.116ZM17.211-3.522a10.089,10.089,0,0,0-5.39,1.616,11.645,11.645,0,0,0-1.168.833L10.569-1l4.947,4.947,5.566,0,2.242,6.407A1.068,1.068,0,0,0,24.673,11a1.086,1.086,0,0,0,.711-1.187l-.048-.186L21.264-1.943l-.126-.321C20.723-3.166,19.92-3.522,17.211-3.522ZM27.878-13.833A4.622,4.622,0,0,1,32.5-9.211a4.622,4.622,0,0,1-4.622,4.622,4.622,4.622,0,0,1-4.622-4.622A4.622,4.622,0,0,1,27.878-13.833Zm0,2.133a2.489,2.489,0,0,0-2.489,2.489,2.489,2.489,0,0,0,2.489,2.489,2.489,2.489,0,0,0,2.489-2.489A2.489,2.489,0,0,0,27.878-11.7Z" transform="translate(-0.5 13.833)" fill="#2196f3"/>
</svg>
