<?xml version="1.0" encoding="UTF-8"?>
<svg width="128px" height="128px" viewBox="0 0 128 128" version="1.1" xmlns="http://www.w3.org/2000/svg" xmlns:xlink="http://www.w3.org/1999/xlink">
    <!-- Generator: Sketch 60.1 (88133) - https://sketch.com -->
    <title>coding</title>
    <desc>Created with Sketch.</desc>
    <g id="coding" stroke="none" stroke-width="1" fill="none" fill-rule="evenodd">
        <path d="M75.1594864,15.6981893 C75.3151011,15.1685531 75.8700795,14.8645216 76.4001945,15.0184973 L76.4001945,15.0184973 L79.7172936,15.9863341 C79.717695,15.9857547 79.717909,15.9858172 79.718123,15.9858798 C80.2481977,16.1409256 80.5522188,16.6963256 80.3965311,17.2262126 L80.3965311,17.2262126 L52.5871036,112.301811 C52.4314889,112.831447 51.8765105,113.135478 51.3463955,112.981503 L51.3463955,112.981503 L48.0292964,112.013666 C48.028895,112.014245 48.028681,112.014183 48.028467,112.01412 L47.9184247,111.974923 C47.4573061,111.779862 47.2054918,111.265825 47.3500589,110.773787 L47.3500589,110.773787 Z M32.8667628,30.6291344 C33.2571863,30.2391957 33.8896739,30.2391957 34.2800974,30.6291344 L34.2800974,30.6291344 L36.722938,33.0689415 C36.723231,33.0692342 36.7235239,33.069527 36.7238166,33.0698201 L36.8069466,33.1640791 C37.1117278,33.5565597 37.0836458,34.1237735 36.722938,34.4840334 L36.722938,34.4840334 L8.42429278,62.7475374 C8.42399972,62.7478301 8.42370685,62.7481229 8.42341415,62.748416 C8.03313256,63.1391828 8.03352594,63.7723477 8.42429278,64.1626293 L8.42429278,64.1626293 L36.722938,92.4261333 C36.723231,92.426426 36.7235239,92.4267188 36.7238166,92.4270119 C37.1140982,92.8177787 37.1137048,93.4509436 36.722938,93.8412252 L36.722938,93.8412252 L34.2800974,96.2810322 C33.8896739,96.6709709 33.2571863,96.6709709 32.8667628,96.2810322 L32.8667628,96.2810322 L0.708425681,64.1626293 C0.708132622,64.1623366 0.707839746,64.1620437 0.707547052,64.1617507 C0.317265462,63.7709838 0.317658838,63.137819 0.708425681,62.7475374 L0.708425681,62.7475374 Z M95.1332372,30.6291344 L127.291574,62.7475374 C127.682341,63.137819 127.682735,63.7709838 127.292453,64.1617507 C127.29216,64.1620437 127.291867,64.1623366 127.291574,64.1626293 L95.1332372,96.2810322 C94.7428137,96.6709709 94.1103261,96.6709709 93.7199026,96.2810322 L91.277062,93.8412252 C90.8862952,93.4509436 90.8859018,92.8177787 91.2761834,92.4270119 C91.2764761,92.4267188 91.276769,92.426426 91.277062,92.4261333 L119.575707,64.1626293 C119.966474,63.7723477 119.966867,63.1391828 119.576586,62.748416 C119.576293,62.7481229 119.576,62.7478301 119.575707,62.7475374 L91.277062,34.4840334 C90.9163542,34.1237735 90.8882722,33.5565597 91.1930534,33.1640791 L91.2761834,33.0698201 C91.2764761,33.069527 91.276769,33.0692342 91.277062,33.0689415 L93.7199026,30.6291344 C94.1103261,30.2391957 94.7428137,30.2391957 95.1332372,30.6291344 Z" id="Combined-Shape" fill="#000000" fill-rule="nonzero"></path>
    </g>
</svg>