<?xml version="1.0" encoding="UTF-8"?>
<svg width="128px" height="128px" style="fill: currentColor" viewBox="0 0 128 128" version="1.1" xmlns="http://www.w3.org/2000/svg" xmlns:xlink="http://www.w3.org/1999/xlink">
    <path d="M101.537684,41.0677895 C94.4202106,41.0677895 88.8437895,46.6442105 88.8437895,53.7616843 C88.8437895,60.8808421 94.4202105,66.4572631 101.537684,66.4572631 C108.656842,66.4572631 114.233263,60.8808421 114.233263,53.7616843 C114.233263,46.6442106 108.656842,41.0677895 101.537684,41.0677895 L101.537684,41.0677895 Z M101.537684,61.5427369 C97.1031579,61.5427369 93.7583157,58.1978947 93.7583157,53.7616843 C93.7583157,49.3271579 97.1031579,45.9823157 101.537684,45.9823157 C105.973895,45.9823157 109.318737,49.3271579 109.318737,53.7616843 C109.318737,58.1978947 105.973895,61.5427369 101.537684,61.5427369 Z M26.4623157,41.0677895 C19.3431579,41.0677895 13.7667369,46.6442105 13.7667369,53.7616843 C13.7667369,60.8808421 19.3431579,66.4572631 26.4623157,66.4572631 C33.5797894,66.4572631 39.1562105,60.8808421 39.1562105,53.7616843 C39.1562105,46.6442106 33.5797895,41.0677895 26.4623157,41.0677895 L26.4623157,41.0677895 Z M26.4623157,61.5427369 C22.0261053,61.5427369 18.6812631,58.1978947 18.6812631,53.7616843 C18.6812631,49.3271579 22.0261052,45.9823157 26.4623157,45.9823157 C30.8968421,45.9823157 34.2416842,49.3271579 34.2416842,53.7616843 C34.2416842,58.1978947 30.8968421,61.5427369 26.4623157,61.5427369 Z M93.76,26.4623158 C93.76,19.3431579 88.183579,13.7667369 81.064421,13.7667369 C73.945263,13.7667369 68.3688421,19.3431579 68.3688421,26.4623158 C68.3688421,33.5797894 73.943579,39.1562105 81.064421,39.1562105 C88.1835789,39.1562105 93.76,33.5797895 93.76,26.4623158 Z M81.064421,34.2416842 C76.6282105,34.2416842 73.2833684,30.8968421 73.2833684,26.4623157 C73.2833684,22.0261053 76.6282105,18.6812631 81.064421,18.6812631 C85.5006315,18.6812631 88.8454736,22.0261052 88.8454736,26.4623157 C88.8454736,30.8968421 85.5006315,34.2416842 81.064421,34.2416842 Z M46.9372631,13.7667369 C39.8181053,13.7667369 34.2416842,19.3431579 34.2416842,26.4623157 C34.2416842,33.5797894 39.8181053,39.1562105 46.9372631,39.1562105 C54.0547368,39.1562105 59.6311579,33.5797895 59.6311579,26.4623157 C59.6311579,19.3431579 54.0547369,13.7667369 46.9372631,13.7667369 Z M46.9372631,34.2416842 C42.5010526,34.2416842 39.1562105,30.8968421 39.1562105,26.4623157 C39.1562105,22.0261053 42.5010526,18.6812631 46.9372631,18.6812631 C51.3717895,18.6812631 54.7166316,22.0261052 54.7166316,26.4623157 C54.7166316,30.8968421 51.3717895,34.2416842 46.9372631,34.2416842 Z M64,0.1162105 C28.7730526,0.11789475 0.11789475,28.7730526 0.11789475,64 C0.11789475,99.2269474 28.7713684,127.882105 64,127.882105 C71.1174736,127.882105 76.6938947,122.307368 76.6938947,115.18821 C76.6938947,111.890526 75.4694737,108.850526 73.2446316,106.627368 C71.9494737,105.330526 71.2370526,103.523368 71.2370526,101.541053 C71.2370526,97.1031579 74.5818947,93.7583158 79.016421,93.7583158 L91.3010526,93.7583158 C111.472842,93.7583158 127.882105,77.3490526 127.882105,57.1772631 C127.882105,25.7128421 99.2286316,0.114526375 64,0.114526375 L64,0.1162105 Z M91.3010526,88.8437895 L79.016421,88.8437895 C71.8989474,88.8437895 66.3225263,94.4202105 66.3225264,101.539368 C66.3225264,104.837053 67.5469474,107.877053 69.7701053,110.100211 C71.0669474,111.397053 71.7793684,113.20421 71.7793684,115.186526 C71.7793684,119.624421 68.4345263,122.969263 64,122.969263 C31.4846316,122.969263 5.03073687,96.5153684 5.03073687,64 C5.03073687,31.4846316 31.4846316,5.03073687 64,5.03073687 C96.5153684,5.03073687 122.969263,28.4244211 122.969263,57.175579 C122.969263,74.6374737 108.762947,88.8437895 91.3010526,88.8437895 Z" fill-rule="nonzero"></path>
</svg>