<svg xmlns="http://www.w3.org/2000/svg" width="32" height="28.002" viewBox="0 0 32 28.002">
  <path id="Path_35" data-name="Path 35" d="M29.2-11.985A9.623,9.623,0,0,0,16-12.274a9.625,9.625,0,0,0-13.194.288,9.422,9.422,0,0,0,0,13.417C3.877,2.491,13.862,12.374,13.862,12.374a3.043,3.043,0,0,0,4.278,0L29.2,1.432a9.419,9.419,0,0,0,0-13.417ZM27.77.019,16.716,10.961a1.013,1.013,0,0,1-1.425,0L4.236.019a7.445,7.445,0,0,1,0-10.592,7.593,7.593,0,0,1,10.41-.222L16-9.576l1.355-1.22a7.594,7.594,0,0,1,10.412.222,7.446,7.446,0,0,1,0,10.592ZM9.252-9.75a.5.5,0,0,1,.5.5.5.5,0,0,1-.5.5h0A3.25,3.25,0,0,0,6-5.5H6a.5.5,0,0,1-.5.5A.5.5,0,0,1,5-5.5H5a4.249,4.249,0,0,1,4.246-4.25h0Z" transform="translate(-0.002 14.749)" fill="#2196f3"/>
</svg>
