<?xml version="1.0" encoding="UTF-8"?>
<svg width="128px" height="128px" viewBox="0 0 128 128" version="1.1" xmlns="http://www.w3.org/2000/svg" xmlns:xlink="http://www.w3.org/1999/xlink">
    <!-- Generator: Sketch 60.1 (88133) - https://sketch.com -->
    <title>prototype</title>
    <desc>Created with Sketch.</desc>
    <g id="prototype" stroke="none" stroke-width="1" fill="none" fill-rule="evenodd">
        <path d="M110.933333,0 C121.173333,0 128,6.82666662 128,17.0666666 L128,108.8 C128,119.466667 120.32,128 110.933333,128 L17.0666666,128 C6.82666662,128 0,121.173333 0,110.933333 L0,18.3466666 C0,8.10666663 8.10666663,0 18.3466666,0 L110.933333,0 Z M123.733,29.866 L4.266,29.866 L4.26666662,110.933333 C4.26666662,118.613333 9.38666663,123.733333 17.0666666,123.733333 L110.933333,123.733333 C119.04,123.733333 123.733333,116.053333 123.733333,108.8 L123.733,29.866 Z M104.533333,42.6666666 C105.813333,42.6666666 106.666667,43.52 106.666667,44.8 L106.666667,57.6 C106.666667,58.88 105.813333,59.7333334 104.533333,59.7333334 L91.7333334,59.7333334 C90.4533334,59.7333334 89.6,58.88 89.6,57.6 L89.599,57.271 L38.399,90.748 L38.4,100.266667 C38.4,101.546667 37.5466666,102.4 36.2666666,102.4 L23.4666666,102.4 C22.1866666,102.4 21.3333334,101.546667 21.3333334,100.266667 L21.3333334,87.4666666 C21.3333334,86.1866666 22.1866667,85.3333334 23.4666666,85.3333334 L36.2666666,85.3333334 C36.9493333,85.3333334 37.510637,85.5760593 37.8858508,85.9967842 L89.599,52.184 L89.6,44.8 C89.6,43.52 90.4533334,42.6666666 91.7333334,42.6666666 L104.533333,42.6666666 Z M34.0993632,89.5989601 L25.6,89.6 L25.6,98.1333334 L34.1333334,98.1333334 L34.1327224,89.8642221 C34.1160113,89.7744418 34.1050054,89.6859073 34.0993632,89.5989601 Z M102.4,46.9333334 L93.8666666,46.9333334 L93.8676343,52.819116 C93.9193622,53.0532166 93.9159124,53.297658 93.8675624,53.5421625 L93.8666666,55.4666666 L102.4,55.4666666 L102.4,46.9333334 Z M110.933333,4.26666662 L18.3466666,4.26666662 C10.6666666,4.26666662 4.26666662,10.6666666 4.26666662,18.3466666 L4.266,25.599 L123.733,25.599 L123.733333,17.0666666 C123.733333,9.38666663 118.613333,4.26666662 110.933333,4.26666662 Z M19.2,12.8 C20.48,12.8 21.3333334,13.6533334 21.3333334,14.9333334 C21.3333334,16.2133334 20.48,17.0666666 19.2,17.0666666 C17.92,17.0666666 17.0666666,16.2133332 17.0666666,14.9333334 C17.0666666,13.6533335 17.92,12.8 19.2,12.8 Z M27.7333334,12.8 C29.0133334,12.8 29.8666666,13.6533334 29.8666666,14.9333334 C29.8666666,16.2133334 29.0133332,17.0666666 27.7333334,17.0666666 C26.4533334,17.0666666 25.6,16.2133332 25.6,14.9333334 C25.6,13.6533335 26.4533334,12.8 27.7333334,12.8 Z M36.2666666,12.8 C37.5466665,12.8 38.4,13.6533334 38.4,14.9333334 C38.4,16.2133334 37.5466666,17.0666666 36.2666666,17.0666666 C34.9866666,17.0666666 34.1333334,16.2133332 34.1333334,14.9333334 C34.1333334,13.6533335 34.9866667,12.8 36.2666666,12.8 Z" id="Combined-Shape" fill="#000000" fill-rule="nonzero"></path>
    </g>
</svg>