<svg xmlns="http://www.w3.org/2000/svg" width="31.536" height="29.661" viewBox="0 0 31.536 29.661">
  <path id="Union_2" data-name="Union 2" d="M-1980.788,27.278l1.149-1.741a12.317,12.317,0,0,0,6.786,2.036,12.231,12.231,0,0,0,10.341-5.638l.2-.4,1.877.915-.188.385.012.008-.071.114-3,6.16-1.877-.916.351-.72a14.339,14.339,0,0,1-7.639,2.185A14.388,14.388,0,0,1-1980.788,27.278Zm-5.022-5.8-.027.013q-.05-.1-.1-.209L-1990,14.929l1.758-1.125,1,1.558c0-.032,0-.064,0-.1a14.317,14.317,0,0,1,8.009-12.9l.926,1.868a12.247,12.247,0,0,0-6.852,11.034,12.215,12.215,0,0,0,1.064,5.013l.291.455-1.758,1.126Zm12.479-4.126a.952.952,0,0,1-.95-.95V7.753h1.9v7.7h5.265v1.9Zm12.785-2.083a12.322,12.322,0,0,0-12.309-12.306V2.956l-.116.013L-1973.21.9l7.8-.9.239,2.072-1.543.178a14.412,14.412,0,0,1,8.254,13.017Z" transform="translate(1990)" fill="#2196f3"/>
</svg>
