<?xml version="1.0" encoding="UTF-8"?>
<svg width="128px" height="128px" viewBox="0 0 128 128" version="1.1" xmlns="http://www.w3.org/2000/svg" xmlns:xlink="http://www.w3.org/1999/xlink">
    <!-- Generator: Sketch 60.1 (88133) - https://sketch.com -->
    <title>visualization</title>
    <desc>Created with Sketch.</desc>
    <g id="visualization" stroke="none" stroke-width="1" fill="none" fill-rule="evenodd">
        <path d="M65,0 C71.627417,0 77,5.372583 77,12 C77,13.4722159 76.734883,14.8825104 76.249787,16.1857456 L100.229848,30.0310292 C102.406203,26.9853401 105.971251,25 110,25 C116.627417,25 122,30.372583 122,37 C122,42.9342264 117.692525,47.8623881 112.033676,48.8283839 L112.033676,78.1716161 C117.692525,79.1376119 122,84.0657736 122,90 C122,96.627417 116.627417,102 110,102 C106.285201,102 102.964649,100.312028 100.763503,97.6612437 L76.249787,111.814254 C76.734883,113.11749 77,114.527784 77,116 C77,122.627417 71.627417,128 65,128 C58.372583,128 53,122.627417 53,116 C53,114.527784 53.265117,113.11749 53.750213,111.814254 L28.5513691,97.2654484 C26.3592406,100.142864 22.896499,102 19,102 C12.372583,102 7,96.627417 7,90 C7,83.7207483 11.8229229,78.5679506 17.9664905,78.0438852 L17.9664905,48.9561148 C11.8229229,48.4320494 7,43.2792517 7,37 C7,30.372583 12.372583,25 19,25 C23.2085271,25 26.9110456,27.1664806 29.0531263,30.4450126 L53.750213,16.1857456 C53.265117,14.8825104 53,13.4722159 53,12 C53,5.372583 58.372583,0 65,0 Z M65,108 C60.581722,108 57,111.581722 57,116 C57,120.418278 60.581722,124 65,124 C69.418278,124 73,120.418278 73,116 C73,111.581722 69.418278,108 65,108 Z M98.1660527,92.0008092 L30.8339473,92.0008092 C30.7350176,92.5902425 30.5931172,93.1651029 30.4115777,93.722059 L55.7527528,108.351721 C57.9538302,105.693476 61.2791488,104 65,104 C68.7203856,104 72.0453376,105.693053 74.2464209,108.350723 L98.7561746,94.2017267 C98.492745,93.4970976 98.2936548,92.7610755 98.1660527,92.0008092 Z M110,82 C105.581722,82 102,85.581722 102,90 C102,94.418278 105.581722,98 110,98 C114.418278,98 118,94.418278 118,90 C118,85.581722 114.418278,82 110,82 Z M19,82 C14.581722,82 11,85.581722 11,90 C11,94.418278 14.581722,98 19,98 C23.418278,98 27,94.418278 27,90 C27,85.581722 23.418278,82 19,82 Z M65,24 C63.5292891,24 62.120373,23.7354248 60.8182514,23.2512739 L27.3059732,81.3390993 C29.1269601,83.0859164 30.3981701,85.401442 30.8341145,88.0001873 L98.1658855,88.0001873 C98.6527907,85.0976555 100.181656,82.548429 102.354714,80.7502746 L69.1817486,23.2512739 C67.879627,23.7354248 66.4707109,24 65,24 Z M55.7527528,19.6482795 L30.6563349,34.136962 C30.8809155,35.0544354 31,36.0133109 31,37 C31,42.6034756 27.1593077,47.3099095 21.9667772,48.6304475 L21.9667772,78.3695525 C22.6675762,78.5477761 23.3437515,78.7876738 23.9891846,79.0831271 L57.3547145,21.2497254 C56.7718175,20.767392 56.2352713,20.2310177 55.7527528,19.6482795 Z M72.6452855,21.2497254 L105.818251,78.7487261 C106.527286,78.4850949 107.267986,78.2865691 108.033086,78.1604138 L108.033086,48.8395862 C102.341389,47.9010974 98,42.9575416 98,37 C98,35.8329191 98.1666082,34.7047517 98.4773377,33.6379847 L74.2464209,19.6492773 C73.7641162,20.23163 73.2278498,20.7676673 72.6452855,21.2497254 Z M110,29 C105.581722,29 102,32.581722 102,37 C102,41.418278 105.581722,45 110,45 C114.418278,45 118,41.418278 118,37 C118,32.581722 114.418278,29 110,29 Z M19,29 C14.581722,29 11,32.581722 11,37 C11,41.418278 14.581722,45 19,45 C23.418278,45 27,41.418278 27,37 C27,32.581722 23.418278,29 19,29 Z M65,4 C60.581722,4 57,7.581722 57,12 C57,16.418278 60.581722,20 65,20 C69.418278,20 73,16.418278 73,12 C73,7.581722 69.418278,4 65,4 Z" id="Combined-Shape" fill="#000000" fill-rule="nonzero"></path>
    </g>
</svg>