<svg width="135" height="60" viewBox="0 0 135 60" fill="none" xmlns="http://www.w3.org/2000/svg">
<path fill-rule="evenodd" clip-rule="evenodd" d="M135 60C134.608 55.7824 132.823 52.2732 129.689 50.4831C125.194 47.9075 119.119 49.3885 113.923 53.7799C122.355 33.8189 119.632 13.4201 106.577 5.88002C91.8511 -2.64525 69.5798 8.39768 56.8259 30.5415C54.8978 33.8922 53.2523 37.3986 51.9067 41.0242C50.7263 37.6626 48.4116 34.8202 45.3628 32.9883C35.6207 27.3477 20.8824 34.6496 12.444 49.3048C10.5007 52.6587 9.00649 56.2547 8 60" fill="#F6B1B1"/>
<path d="M95 37C94.964 33.2128 93.6677 30.1215 91.1312 28.6406C87.1303 26.31 81.281 28.6649 76.616 33.9735C81.145 20.7627 79.4527 8.28839 71.643 3.72836C61.9769 -1.91605 46.5936 6.71847 37.2876 23.0164C36.3128 24.7229 35.4248 26.4785 34.627 28.2765C34.443 23.3523 32.6666 19.3547 29.3179 17.3963C22.3924 13.3501 11.382 19.5367 4.72059 31.2059C3.66201 33.055 2.75222 34.9872 2 36.9838" stroke="#06033A" stroke-width="2.8" stroke-linecap="round" stroke-linejoin="round"/>
</svg>
