<svg width="720" height="720" viewBox="0 0 720 720" fill="none" xmlns="http://www.w3.org/2000/svg">
<g clip-path="url(#clip0_2516_312390)">
<path d="M16.8252 689.454C18.6804 680.584 43.395 571.646 145.672 532.076C160.969 526.155 226.27 503.111 296.405 535.068C392.462 578.832 408.711 685.275 409.735 692.838C278.77 691.715 147.797 690.585 16.8252 689.454Z" fill="#FBEDED"/>
<path d="M256.117 688.161C269.387 688.495 282.658 688.317 296.49 688.253C292.303 680.548 289.339 673.028 288.373 664.903C285.721 642.648 292.972 624.025 309.583 609.127C320.785 599.083 334.34 594.385 349.125 593.539C359.119 592.97 368.821 595.081 377.919 599.46C383.016 601.912 383.002 601.941 384.473 596.673C394.737 559.975 426.844 531.742 463.528 527.143C472.74 525.984 481.959 525.913 491.171 527.051C536.855 533.37 572.537 570.601 578.458 616.697C579.069 621.438 579.801 626.236 579.545 631.055C579.41 633.607 579.46 636.358 576.944 638.099C574.953 638.86 572.871 638.668 570.817 638.675C561.462 638.696 552.108 638.682 542.754 638.689C541.382 638.689 539.996 638.611 538.66 639.037C538.127 639.208 537.686 639.521 537.658 640.167C537.636 640.814 538.035 641.212 538.553 641.411C539.996 641.973 541.525 641.902 543.039 641.902C552.805 641.93 562.571 641.845 572.338 641.952C574.641 641.98 577.214 641.824 577.846 645.001C577.328 650.204 577.143 655.506 573.496 659.793C571.67 661.079 569.566 660.83 567.526 660.838C557.24 660.901 546.948 660.781 536.663 660.909C531.325 661.001 526.001 661.811 520.634 661.051C519.34 660.866 517.03 660.432 517.002 662.522C516.973 664.591 519.234 664.15 520.599 664.157C535.44 664.242 550.289 664.164 565.13 664.242C567.369 664.256 569.9 663.652 571.542 666.019C572.132 667.917 571.236 669.524 570.447 671.109C568.066 675.906 565.905 680.825 562.742 685.19C561.072 687.5 561.811 688.31 564.412 688.189C565.372 688.146 566.332 688.182 567.298 688.182C593.669 688.182 620.033 688.182 646.403 688.189C648.187 688.189 649.993 688.047 651.741 688.466C653.469 688.879 654.727 689.639 653.781 691.551L710.894 691.999C707.937 678.366 679.654 558.041 561.676 504.369C543.778 496.223 439.915 451.45 335.271 509.394C232.859 566.102 213.795 674.634 211.663 688.104H211.962C226.689 688.082 241.403 688.09 256.117 688.161Z" fill="#F6B1B1"/>
<path d="M481.114 303.084C472.442 295.585 462.064 292.998 450.841 293.894C439.788 294.775 428.77 296.062 417.731 297.156C408.463 298.073 399.194 298.954 389.932 299.9C374.948 301.428 359.972 302.992 344.995 304.541C341.676 302.821 338.52 304.634 335.35 305.103C309.37 308.955 283.504 313.497 257.56 317.592C244.659 319.625 231.793 321.885 218.849 323.676C216.184 324.046 213.27 323.946 211.166 326.164C210.178 328.062 210.334 330.18 209.993 332.199C206.787 351.39 203.617 370.589 200.425 389.781C197.632 406.548 194.831 423.316 192.031 440.084C191.796 441.612 192.841 442.38 193.922 442.956C199.38 445.856 203.084 450.284 205.337 455.97C206.275 458.337 207.846 459.19 210.455 459.027C221.195 458.345 230.101 464.706 233.058 474.956C234.707 480.671 233.847 481.872 227.99 481.886C215.501 481.915 203.02 481.851 190.531 481.936C190.353 481.936 188.463 482.235 185.925 482.512C185.442 482.562 185.058 482.604 184.901 482.618C180.16 507.568 177.694 521.819 176.379 529.73C176.137 531.195 175.185 536.995 174.119 543.456C172.924 550.685 171.723 557.914 170.565 565.15C166.307 591.627 161.829 618.069 157.656 644.56C157.344 646.55 156.668 648.669 158.573 650.339C160.372 651.27 162.326 651.107 164.238 651.1C174.41 651.071 184.603 651.49 194.746 650.197C202.38 649.877 210.014 649.55 217.655 649.23C234.878 591.222 246.471 550.017 254.006 522.58C256.252 514.391 258.448 506.189 260.772 498.014C269.437 467.542 278.272 437.12 286.909 406.634C287.676 403.933 288.856 402.618 291.571 401.8C332.542 389.432 373.47 376.936 414.412 364.483C415.059 364.284 415.741 364.22 416.381 364.099C417.248 365.187 416.779 366.282 416.623 367.319C414.625 380.732 412.6 394.138 410.595 407.551C406.785 433.004 406.067 438.008 404.34 449.41C403.018 458.167 401.113 470.57 398.703 485.703C398.568 486.258 398.433 486.812 398.291 487.367C398.348 487.466 398.412 487.566 398.483 487.665C398.995 488.234 399.642 488.504 400.395 488.554C411.839 489.243 437.392 486.734 437.392 486.734C438.586 486.613 440.797 486.4 443.889 485.995C448.218 485.426 451.829 484.808 454.451 484.31C456.122 476.356 457.856 468.345 459.662 460.278C464.168 440.134 468.916 420.48 473.863 401.324C475.157 399.526 475.896 397.521 476.387 395.36C478.199 387.378 480.204 379.431 481.924 371.428C482.919 366.808 484.966 362.365 484.326 357.461C486.302 348.924 488.051 340.33 490.297 331.865C493.375 320.186 489.963 310.725 481.114 303.084Z" fill="#001489"/>
<path d="M344.988 304.527C339.33 305.48 333.693 306.588 328.007 307.342C317.722 308.707 307.578 310.96 297.272 312.225C290.37 313.078 283.539 314.528 276.673 315.68C267.248 317.258 257.815 318.8 248.39 320.35C237.017 322.219 233.108 322.525 224.536 324.181C218.7 325.311 213.93 326.391 210.746 327.145C211.279 323.37 212.089 317.648 213.092 310.69C213.916 304.996 216.141 290.133 219.446 268.027C222.098 250.286 224.735 232.544 227.372 214.803C227.713 212.5 228.125 210.197 228.289 207.879C228.431 205.818 229.255 205.313 231.203 205.825C234.785 206.778 238.41 207.56 242.021 208.413C242.689 208.569 243.35 208.761 244.019 208.896C247.096 209.536 247.096 209.529 247.814 205.868C242.412 204.61 236.989 203.366 231.572 202.079C218.217 198.909 205.188 194.573 192.016 190.749C174.495 185.66 157.038 180.379 139.552 175.176C132.195 172.986 126.296 168.508 121.363 162.857C110.822 150.795 112.151 135.2 124.412 124.467C129.111 120.351 134.385 117.181 140.206 114.942C174.644 101.679 209.09 88.4365 243.542 75.2014C244.687 74.7607 245.888 74.4479 247.061 74.0783C248.447 73.8082 249.101 74.7393 249.549 75.7487C252.889 83.2689 256.01 90.8745 258.732 98.6365C258.917 99.1553 258.768 99.724 258.739 100.271C259.72 102.83 260.687 105.403 261.682 107.955C263.061 111.502 263.082 111.53 259.82 113.037C250.729 117.238 241.623 121.411 232.532 125.611C226.057 128.604 219.588 131.611 213.127 134.631C212.31 135.015 211.528 135.484 209.865 136.38C215.757 137.261 220.719 138.029 225.687 138.747C244.004 141.391 262.322 143.993 280.639 146.672C291.891 148.314 303.243 149.409 314.345 151.961C323.031 153.951 331.675 156.055 339.593 160.469C349.103 165.779 356.787 173.214 364.13 181.033C372.197 189.626 380.03 198.44 388.155 207.368C389.569 204.816 389.626 202.079 390.145 199.52C394.36 178.829 398.469 158.123 402.669 137.425C403.046 135.577 403.167 133.629 404.176 131.945C405.321 131.22 406.515 131.355 407.723 131.717C416.338 134.304 424.967 136.835 433.611 139.337C434.84 139.692 435.757 140.481 436.774 141.142C438.608 141.718 440.406 142.436 442.275 142.834C444.472 143.303 445.083 144.355 444.77 146.594C443.725 154.051 442.922 161.542 441.977 169.013C440.484 180.826 438.963 192.64 437.428 204.453C435.203 221.562 433.234 238.714 430.604 255.759C429.246 264.552 425.458 272.527 418.968 278.945C410.325 287.489 398.433 289.536 387.458 284.312C382.689 282.044 378.637 278.889 375.36 274.631C366.483 263.102 357.462 251.672 348.457 240.235C347.142 238.565 346.36 236.852 346.317 234.655C346.239 230.263 345.827 225.87 345.713 221.477C345.67 219.793 344.967 219.387 343.467 219.451C341.747 219.53 342.017 220.66 342.052 221.747C342.436 233.554 342.82 245.367 343.19 257.174C343.538 268.433 343.922 279.699 344.156 290.958C344.242 295.507 344.711 300.006 344.988 304.527Z" fill="#0F1A28"/>
<path d="M557.105 137.119C547.517 136.48 537.928 135.84 528.346 135.2C517.933 134.496 507.527 133.778 497.114 133.089C494.647 132.926 492.166 132.89 489.7 132.755C488.001 132.663 487.056 132.03 486.928 130.011C486.608 124.908 486.494 124.893 481.604 124.566C468.724 123.706 455.852 122.868 442.972 122.029C441.742 121.951 440.498 121.858 439.29 122.249C434.122 122.91 428.976 122.761 423.851 121.787C423.183 121.659 422.323 121.51 421.996 120.977C419.16 116.378 413.9 113.514 412.557 107.841C411.981 105.425 411.107 103.115 409.614 101.089C408.96 100.207 408.235 99.262 406.941 99.5463C405.705 99.8164 405.207 100.89 404.98 101.97C404.184 105.681 404.83 109.327 405.491 112.988C405.889 115.191 407.041 117.522 405.022 119.584C398.59 119.129 392.15 118.688 385.724 118.205C384.85 118.141 383.535 118.475 383.435 117.089C383.258 114.544 381.587 114.665 379.696 114.466C370.52 113.521 361.294 113.912 352.11 113.165C350.369 113.023 348.883 113.364 347.739 114.807C347.739 114.807 347.049 115.362 346.417 115.781C344.853 116.812 342.052 117.203 341.477 117.274C341.178 110.77 340.88 104.273 340.581 97.7693C343.46 96.9661 345.649 97.7409 347.526 99.1838C348.741 100.115 349.85 100.271 351.3 100.129C360.718 99.1767 370.15 98.3237 379.576 97.4139C380.62 97.3144 382.07 97.3357 381.879 95.7435C381.616 93.5827 382.831 93.3268 384.494 93.0567C394.374 91.4858 404.248 89.8296 414.121 88.2019C415.244 89.2255 414.654 90.5049 414.625 91.6919C414.504 96.305 416.651 98.8781 421.207 99.5463C432.864 101.259 445.062 93.4334 446.981 84.3067C447.151 83.5106 447.45 82.7145 448.289 82.3165C459.086 80.4755 469.883 78.6274 480.68 76.8078C484.412 76.1823 484.419 76.2249 484.291 72.4577C484.134 67.6242 484.12 67.5674 489.124 66.7215C510.157 63.1462 531.204 59.6135 552.236 56.0595C553.85 55.7894 555.449 55.4553 557.056 55.1497C557.916 54.7872 558.897 55.0928 559.742 54.6592C559.984 54.7516 560.197 54.709 560.382 54.5313C561.59 53.8418 562.351 54.0977 561.782 55.5264C561.313 56.6992 559.941 57.1044 558.889 57.7299C536.691 70.8015 529.469 101.373 548.512 123.934C552.272 128.383 557.112 131.554 562.436 133.956C563.879 134.61 565.635 134.916 566.317 137.055C563.183 137.752 560.155 137.667 557.105 137.119Z" fill="#001489"/>
<path d="M191.953 440.283C192.792 440.553 193.957 440.987 195.244 441.69C196.118 442.167 198.407 443.517 200.646 446.133C201.634 447.284 205.024 451.606 206.318 455.579C206.972 457.584 207.747 458.401 210.036 457.954C218.594 456.276 230.848 461.998 234.181 474.622C234.707 476.612 235.049 478.631 234.935 480.721C234.864 482.057 234.352 482.768 232.973 482.761C232.014 482.753 231.054 482.782 230.087 482.782C226.874 482.782 204.37 482.576 189.309 482.803C184.582 482.874 186.074 482.896 180.146 482.995C155.794 483.4 130.845 482.967 129.402 482.967C128.578 482.967 127.746 482.917 126.929 482.974C123.872 483.18 123.225 482.562 123.673 479.384C124.946 470.343 133.226 462.225 139.993 461.088C143.398 460.52 146.525 460.733 149.596 462.183C150.954 462.823 152.247 463.597 153.577 464.308C154.188 464.152 154.401 463.612 154.565 463.128C156.981 455.878 161.346 450 167.409 445.443C168.461 444.654 173.977 441.001 182.215 440.027C186.288 439.558 189.685 439.899 191.953 440.283Z" fill="#E1E3EA"/>
<path d="M473.842 401.288C477.247 386.774 480.644 372.259 484.056 357.752C484.084 357.631 484.22 357.539 484.305 357.432C484.852 358.242 485.606 358.278 486.48 358.093C496.026 356.131 503.958 359.465 511.045 365.592C515.53 369.466 518.409 374.406 520.627 379.801C521.707 382.424 521.75 382.474 524.28 380.938C530.862 376.944 540.366 378.543 545.903 384.997C548.504 388.025 550.544 391.437 551.625 395.36C552.826 399.725 552.343 400.457 547.893 400.464C524.934 400.471 501.982 400.464 479.024 400.478C477.261 400.471 475.427 400.13 473.842 401.288Z" fill="#AEB2C1"/>
<path d="M279.402 65.0938C277.547 65.563 275.685 66.0321 273.83 66.5012C272.849 61.6536 271.662 56.8343 272.899 51.8303C273.332 50.0675 273.894 48.3971 274.939 46.9186C277.732 42.9666 282.238 41.9075 287.043 44.0897C288.678 44.8289 290.164 45.8311 291.5 47.0324C292.701 48.1057 293.846 49.2359 295.012 50.3376C296.263 49.4278 296.334 48.0844 296.853 46.9968C301.082 38.1331 307.429 31.2881 316.25 26.9167C320.487 24.8127 324.965 23.5973 329.805 24.6421C335.378 25.8434 339.294 30.0087 339.991 35.6667C340.24 37.7209 340.304 39.7964 339.934 41.8364C339.572 43.8551 339.024 45.8382 338.505 48.0844C339.721 48.3331 340.787 47.729 341.896 47.4233C346.751 46.1012 351.627 45.6534 356.553 47.0324C365.537 49.5486 369.454 57.3106 366.035 65.9965C364.116 70.8797 360.668 74.6044 356.56 77.7248C352.117 81.094 347.156 83.3614 341.676 84.4845C337.688 85.3019 337.674 85.3303 336.693 81.3783C336.565 80.8807 336.679 80.3263 336.679 79.6439C343.033 79.0398 348.72 76.8363 353.709 72.9198C356.56 70.6807 358.969 68.0792 360.505 64.7526C363.44 58.391 360.604 53.06 353.638 52.0933C347.263 51.2048 341.37 52.8112 335.854 55.9956C334.902 56.5429 334.02 57.2324 333.018 57.6731C331.561 58.3199 330.033 58.4834 328.903 57.0476C327.886 55.761 328.334 54.4674 329.187 53.259C331.021 50.6646 332.521 47.8924 333.509 44.8573C334.404 42.0852 334.98 39.2918 334.411 36.349C333.601 32.134 331.042 29.9021 326.706 29.8239C324.183 29.7741 321.759 30.4138 319.541 31.5227C309.256 36.6547 302.304 44.4948 300.001 56.0169C299.866 56.6922 299.774 57.3816 299.561 58.0285C299.141 59.2937 298.281 60.1395 296.924 60.3315C295.509 60.5305 294.578 59.7841 293.86 58.6753C293.192 57.6375 292.559 56.5642 291.841 55.562C290.228 53.3087 288.358 51.2901 285.977 49.84C283.959 48.6104 282.26 48.2905 280.959 48.8662C279.225 49.6268 278.663 51.7379 278.258 53.3372C277.099 57.8934 278.23 62.2009 279.402 65.0938Z" fill="#0F1A28"/>
<path d="M306.328 80.1344C294.742 80.1486 285.48 89.5169 285.544 101.153C285.608 112.668 294.991 121.83 306.726 121.83C317.928 121.83 327.361 112.298 327.354 100.982C327.346 89.4814 317.9 80.1131 306.328 80.1344Z" fill="#F22F46"/>
<path d="M282.189 81.7337C281.798 81.3712 281.208 81.229 281.016 80.3405C285.082 78.9331 289.148 77.4191 293.284 76.1254C297.997 74.647 302.71 73.1827 307.202 71.1285C309.292 70.176 312.121 69.2094 311.772 66.5225C311.694 65.9255 311.502 65.4634 311.218 65.0938C309.974 63.4803 307.344 63.5158 306.122 63.5443C302.233 63.6367 296.135 63.7717 288.465 64.0916C285.444 64.4257 282.423 64.7597 279.41 65.0938C278.891 64.9588 277.732 64.7171 276.339 65.0938C275.059 65.4421 274.221 66.1316 273.837 66.5012C264.788 68.6052 255.768 70.7944 247.061 74.0854C248.49 74.711 248.717 76.1326 249.222 77.3622C252.399 84.9962 255.569 92.6374 258.739 100.278C264.831 96.8453 270.923 93.4121 277.014 89.9719C278.685 89.0265 280.454 88.2162 281.99 87.0931C284.328 85.3801 284.321 83.7381 282.189 81.7337Z" fill="#F22F46"/>
<path d="M424.207 120.92C422.537 120.686 421.478 120.209 420.93 118.482C420.255 116.371 419.125 114.267 417.199 113.222C414.668 111.85 414.043 109.668 413.531 107.237C412.991 104.664 412.045 102.255 410.652 100.03C409.806 98.6792 408.555 97.7907 406.899 98.0039C405.229 98.2172 404.312 99.4753 403.75 100.925C403.466 101.672 403.374 102.525 403.359 103.335C403.302 105.936 403.381 108.517 403.949 111.083C404.561 113.876 405.307 116.67 405.023 119.584C405.385 123.749 404.525 127.829 404.177 131.938C405.883 132.407 407.589 132.869 409.294 133.338C418.478 135.868 427.47 139.046 436.774 141.135C437.613 134.838 438.452 128.54 439.29 122.235C437.577 121.702 435.829 121.546 434.037 121.453C430.754 121.311 427.47 121.375 424.207 120.92Z" fill="#F22F46"/>
<path d="M435.423 75.3507C426.403 76.4311 419.246 80.6604 414.106 88.202C414.121 88.4721 414.227 88.7848 414.135 89.0123C411.014 96.4544 417.106 100.84 423.055 100.982C429.204 101.124 434.677 99.4113 439.681 96.0137C444.522 92.7227 447.997 88.5076 448.275 82.3236C445.595 76.7581 441.693 74.6043 435.423 75.3507Z" fill="#F22F46"/>
<path d="M559.735 54.6592C558.918 55.2279 557.979 55.1781 557.048 55.1497C557.795 54.1617 558.747 54.3323 559.735 54.6592Z" fill="#AEB2C1"/>
<path d="M463.237 528.202C459.619 528.266 446.853 528.628 435.061 527.143C428.01 526.254 424.569 525.508 421.236 523.745C419.295 522.722 417.319 521.727 415.279 520.938C410.801 519.203 406.664 520.632 404.468 524.847C403.658 526.404 402.769 527.2 401.049 527.193C398.305 527.186 395.554 527.271 392.811 527.25C391.467 527.242 390.82 526.475 390.998 525.11C391.162 523.895 391.055 523.276 391.446 522.267C392.093 520.575 395.576 507.219 400.374 488.518C412.706 487.914 425.038 487.303 437.371 486.698C437.271 487.701 437.186 489.101 437.222 490.778C437.236 491.311 437.172 493.991 437.705 495.726C438.565 498.519 440.406 500.836 442.922 502.89C449.312 508.108 456.911 509.515 464.801 510.29C473.003 511.093 481.284 510.652 489.465 511.882C491.797 512.23 494.043 512.87 496.211 513.695C498.315 514.491 499.779 515.912 500.525 517.625C501.435 519.701 501.528 522.693 499.708 524.897C498.215 526.695 496.168 527.107 495.529 527.207C494.221 527.527 492.92 527.854 491.612 528.174C479.472 527.989 469.748 528.088 463.237 528.202Z" fill="#F22F46"/>
<path d="M195.67 650.019C195.592 650.289 195.485 650.68 195.385 651.156C195.385 651.156 194.461 655.293 196.089 659.501C197.61 663.446 200.873 666.424 205.18 668.806C208.308 670.533 211.62 671.791 215.224 672.104C219.88 673.362 224.67 673.49 229.447 673.746C236.157 674.108 242.902 674.016 249.52 675.388C250.991 675.693 252.47 676.063 253.87 676.589C258.668 678.387 260.218 682.048 258.291 686.782C257.936 687.663 257.602 688.552 257.261 689.44C254.929 689.497 252.598 689.597 250.274 689.597C230.087 689.618 209.9 689.625 189.706 689.625C188.476 689.625 187.247 689.497 186.024 689.426C182.776 688.566 179.577 687.67 176.521 686.135C169.726 682.716 166.676 683.526 161.765 689.469C157.443 689.774 153.121 689.788 148.807 689.447C150.569 679.759 153.342 670.305 155.446 660.695C156.263 656.978 156.817 653.189 158.253 649.628C170.728 649.756 183.195 649.891 195.67 650.019Z" fill="#F22F46"/>
<path d="M161.765 689.461C163.208 684.728 166.89 682.325 171.567 683.242C173.152 683.555 174.716 684.102 176.194 684.763C179.507 686.242 182.755 687.862 186.032 689.426C177.936 689.44 169.854 689.447 161.765 689.461Z" fill="#FBEDED"/>
<path d="M571.606 139.387C595.886 139.387 615.569 119.704 615.569 95.4237C615.569 71.1436 595.886 51.4606 571.606 51.4606C547.326 51.4606 527.643 71.1436 527.643 95.4237C527.643 119.704 547.326 139.387 571.606 139.387Z" fill="#AEB2C1"/>
<path d="M587.385 66.9348C579.979 69.5576 576.994 73.6803 577.79 80.1699C578.365 84.8541 582.708 89.1047 587.385 89.5738C593.854 90.2135 598.083 86.9651 600.365 79.5941C607.345 87.9034 607.245 107.962 594.757 119.577C582.026 131.426 561.342 130.928 549.493 118.148C537.473 105.176 537.366 84.193 551.213 71.0716C561.406 61.4047 579.687 60.1253 587.385 66.9348Z" fill="#001489"/>
<path d="M18.7089 689.454C26.0728 689.931 33.4509 689.525 40.8219 689.639C41.7815 689.653 42.7411 689.689 43.6935 689.625C45.3497 689.511 46.3235 689.973 46.0747 691.892C45.9326 692.973 45.9965 694.075 45.961 695.169C30.757 695.169 15.5458 695.169 0.832242 695.169C0.036145 694.842 -0.00650171 694.615 0.000606302 694.295C0.114334 689.206 -0.369013 689.732 4.73454 689.682C9.39029 689.632 14.046 689.533 18.7089 689.454Z" fill="#0F1A28"/>
<path d="M701.469 694.665C696.252 694.665 691.035 694.522 685.824 694.722C683.315 694.821 683.372 693.435 683.18 691.708C682.939 689.561 683.934 689.199 685.782 689.213C696.351 689.291 706.921 689.383 717.484 689.241C720.227 689.206 719.737 690.848 719.957 692.404C720.234 694.395 719.14 694.658 717.533 694.643C712.181 694.594 706.829 694.622 701.476 694.622C701.469 694.643 701.469 694.658 701.469 694.665Z" fill="#0F1A28"/>
<path d="M665.943 637.132H575.373V644.12H665.943V637.132Z" fill="#0F1A28"/>
<path d="M571.691 666.666C571.932 668.294 571.15 669.715 570.454 671.123C568.073 675.921 565.912 680.839 562.749 685.204C561.078 687.514 561.818 688.324 564.419 688.203C565.379 688.161 566.338 688.196 567.305 688.196C593.676 688.196 620.039 688.196 646.41 688.203C648.194 688.203 650 688.061 651.748 688.481C653.575 688.914 654.883 689.746 653.603 691.914C652.907 694.821 652.907 694.835 649.523 694.835C616.777 694.864 584.037 694.878 551.291 694.906C391.972 695.027 232.653 695.148 73.3337 695.269C72.5092 695.269 71.6846 695.276 70.8601 695.269C67.7894 695.226 67.7894 695.226 67.3772 691.935C66.4247 690.087 67.2848 689.099 69.0049 688.537C69.9289 688.232 70.8956 688.154 71.8552 688.154C97.5365 688.146 123.211 687.969 148.892 688.232C153.142 688.132 157.393 688.075 161.644 688.246C169.896 687.919 178.148 688.331 186.401 688.182C209.644 688.097 232.887 688.061 256.123 688.175C269.394 688.509 282.665 688.331 296.497 688.267C292.31 680.562 289.346 673.042 288.379 664.917C285.728 642.662 292.978 624.039 309.59 609.141C320.792 599.097 334.347 594.399 349.132 593.553C359.125 592.984 368.828 595.096 377.926 599.474C383.023 601.926 383.008 601.955 384.48 596.688C394.744 559.989 426.851 531.756 463.535 527.157C472.747 525.999 481.966 525.927 491.178 527.065C536.861 533.384 572.544 570.616 578.464 616.711C579.076 621.452 579.808 626.25 579.552 631.069C579.417 633.621 579.467 636.372 576.95 638.113C574.96 638.874 572.878 638.682 570.823 638.689C561.469 638.71 552.115 638.696 542.761 638.703C541.389 638.703 540.003 638.625 538.667 639.051C538.134 639.222 537.693 639.535 537.665 640.182C537.643 640.828 538.041 641.226 538.56 641.426C540.003 641.987 541.531 641.916 543.045 641.916C552.812 641.944 562.578 641.859 572.344 641.966C574.647 641.994 577.221 641.838 577.853 645.015C577.341 650.161 577.15 655.407 573.61 659.672L571.691 666.666Z" fill="#0F1A28"/>
<path d="M577.285 644.12C564.092 644.12 550.9 644.12 537.708 644.12V637.132H577.854C577.662 639.457 577.47 641.788 577.285 644.12Z" fill="#AEB2C1"/>
<path d="M643.617 659.679H515.374V666.666H643.617V659.679Z" fill="#0F1A28"/>
<path d="M571.158 666.666C558.563 666.666 545.96 666.666 533.365 666.666V659.679H573.511C572.722 662.003 571.94 664.335 571.158 666.666Z" fill="#AEB2C1"/>
</g>
<defs>
<clipPath id="clip0_2516_312390">
<rect width="720" height="720" fill="white"/>
</clipPath>
</defs>
</svg>
