<svg xmlns="http://www.w3.org/2000/svg" viewBox="0 0 21.4 19.04"><defs><style>.cls-1{fill:none;stroke:#f65a5f;stroke-linecap:round;stroke-linejoin:round;stroke-width:1.4px;}</style></defs><title>play</title><g id="Layer_2" data-name="Layer 2"><g id="Layer_1-2" data-name="Layer 1"><path class="cls-1" d="M10.8,13.56h2.44s1.55,2.92,2.18,3.81a1.87,1.87,0,0,0,1.81,1H19a1.66,1.66,0,0,0,1.66-1.66V6.43A1.65,1.65,0,0,0,19,4.78H2.36A1.65,1.65,0,0,0,.7,6.43V16.68a1.66,1.66,0,0,0,1.66,1.66H4.17a1.87,1.87,0,0,0,1.81-1c.63-.89,2.18-3.81,2.18-3.81H10.8Z"/><path class="cls-1" d="M7.58,9.28A2.27,2.27,0,1,1,5.31,7,2.27,2.27,0,0,1,7.58,9.28Z"/><line class="cls-1" x1="14.07" y1="9.18" x2="15.21" y2="9.18"/><line class="cls-1" x1="17.64" y1="9.18" x2="18.78" y2="9.18"/><line class="cls-1" x1="16.43" y1="11.33" x2="16.43" y2="10.19"/><line class="cls-1" x1="16.43" y1="8.17" x2="16.43" y2="7.03"/><line class="cls-1" x1="10.7" y1="0.7" x2="10.7" y2="4.78"/></g></g></svg>