<svg xmlns="http://www.w3.org/2000/svg" viewBox="0 0 1080 902" preserveAspectRatio="none"><style>path{fill:none;stroke:#000;stroke-width:1.2;vector-effect:non-scaling-stroke}.i{stroke-width:2.2}</style><g><path d="M1080.0 687.1C1078.3 686.7 1073.7 686.2 1069.9 685.0C1066.1 683.8 1060.9 681.7 1057.4 680.0C1053.9 678.3 1051.9 677.0 1049.0 675.0C1046.1 673.0 1042.9 670.5 1040.0 668.0C1037.1 665.5 1034.4 662.7 1031.9 660.0C1029.4 657.3 1027.0 654.6 1025.0 652.1C1023.0 649.6 1021.6 647.8 1019.6 645.0C1017.6 642.2 1014.9 638.3 1012.7 635.0C1010.5 631.7 1008.5 628.3 1006.4 625.0C1004.4 621.7 1002.5 618.3 1000.6 615.0C998.7 611.7 996.9 608.3 995.1 605.0C993.4 601.7 991.7 598.3 990.0 595.0C988.4 591.7 986.8 588.3 985.3 585.0C983.8 581.7 982.4 578.3 981.1 575.0C979.8 571.7 978.5 568.3 977.4 565.0C976.3 561.7 975.4 559.2 974.5 555.0C973.6 550.8 972.3 545.0 972.0 540.0C971.7 535.0 972.1 529.2 972.7 525.0C973.4 520.8 974.3 518.3 975.9 515.0C977.6 511.7 980.3 507.7 982.6 505.0C985.0 502.3 987.1 500.6 990.0 498.7C992.9 496.8 996.2 494.9 1000.0 493.5C1003.8 492.0 1008.7 490.8 1012.9 490.0C1017.1 489.2 1020.5 488.9 1025.0 488.9C1029.5 488.8 1035.8 489.2 1040.0 489.6C1044.2 489.9 1045.8 490.3 1050.0 491.1C1054.2 492.0 1060.8 493.6 1065.0 494.8C1069.2 496.0 1072.5 497.3 1075.0 498.1C1077.5 499.0 1079.2 499.7 1080.0 500.0"/><path d="M1080.0 732.0C1077.5 731.7 1069.2 730.8 1065.0 730.0C1060.8 729.2 1058.3 728.3 1055.0 727.1C1051.7 725.9 1048.3 724.6 1045.0 722.9C1041.7 721.2 1038.2 719.1 1035.0 717.0C1031.8 714.9 1028.3 712.1 1025.8 710.0C1023.3 707.9 1022.4 707.2 1020.0 704.7C1017.6 702.2 1013.6 697.9 1011.1 695.0C1008.6 692.1 1006.9 689.7 1005.0 687.2C1003.1 684.7 1001.8 682.9 999.9 680.0C998.0 677.1 995.6 673.3 993.5 670.0C991.5 666.7 989.5 663.3 987.6 660.0C985.6 656.7 983.8 653.3 981.9 650.0C980.1 646.7 978.3 643.3 976.4 640.0C974.6 636.7 972.9 633.3 971.1 630.0C969.3 626.7 967.5 623.3 965.7 620.0C964.0 616.7 962.2 613.3 960.5 610.0C958.7 606.7 957.0 603.3 955.2 600.0C953.5 596.7 951.8 593.3 950.1 590.0C948.4 586.7 946.8 583.3 945.2 580.0C943.6 576.7 942.0 573.3 940.6 570.0C939.1 566.7 937.7 563.3 936.4 560.0C935.1 556.7 933.8 553.3 932.7 550.0C931.6 546.7 930.7 544.2 929.8 540.0C928.9 535.8 927.7 530.0 927.3 525.0C926.9 520.0 927.0 514.4 927.5 510.0C927.9 505.6 928.7 502.4 930.0 498.6C931.3 494.8 933.3 490.5 935.0 487.4C936.7 484.2 937.5 482.8 940.0 479.9C942.5 477.0 947.0 472.5 949.7 470.0C952.5 467.5 954.0 466.7 956.6 465.0C959.2 463.3 961.8 461.7 965.4 460.0C968.9 458.3 973.7 456.4 977.8 455.0C981.9 453.6 986.0 452.6 990.0 451.8C994.0 451.0 997.4 450.4 1001.5 450.0C1005.7 449.6 1010.3 449.2 1015.0 449.1C1019.7 449.1 1025.8 449.3 1030.0 449.5C1034.2 449.7 1035.8 449.9 1040.0 450.5C1044.2 451.0 1050.8 452.1 1055.0 452.8C1059.2 453.6 1061.1 454.0 1065.3 455.0C1069.5 456.0 1077.6 458.3 1080.0 459.0"/><path d="M1080.0 771.2C1077.6 771.0 1069.9 770.6 1065.7 770.0C1061.5 769.4 1058.4 768.7 1055.0 767.8C1051.6 766.9 1048.4 765.9 1045.0 764.6C1041.6 763.3 1037.8 761.6 1034.4 760.0C1031.1 758.4 1028.2 756.8 1025.0 754.7C1021.8 752.7 1018.1 750.1 1015.0 747.7C1011.9 745.2 1008.6 742.3 1006.1 740.0C1003.6 737.7 1002.3 736.3 1000.0 733.8C997.7 731.3 995.0 728.1 992.5 725.0C990.0 721.9 987.2 718.0 985.1 715.0C983.0 712.0 981.7 709.8 980.0 707.1C978.3 704.4 976.7 701.6 975.0 698.6C973.3 695.7 971.7 692.7 970.0 689.5C968.3 686.4 966.7 683.1 965.0 679.9C963.3 676.6 961.7 673.2 960.0 669.8C958.3 666.5 956.7 663.1 955.0 659.7C953.3 656.3 951.7 652.9 950.0 649.5C948.3 646.2 946.7 642.8 945.0 639.6C943.3 636.3 941.7 633.1 940.0 629.8C938.3 626.5 936.6 623.3 934.9 620.0C933.1 616.7 931.3 613.3 929.5 610.0C927.7 606.7 925.9 603.3 924.1 600.0C922.3 596.7 920.5 593.3 918.7 590.0C916.9 586.7 915.1 583.3 913.4 580.0C911.7 576.7 910.0 573.3 908.4 570.0C906.7 566.7 905.2 563.3 903.7 560.0C902.2 556.7 901.0 554.0 899.5 550.0C898.1 546.0 896.2 540.2 895.0 536.1C893.8 531.9 893.2 529.3 892.6 525.0C892.0 520.7 891.4 515.0 891.5 510.0C891.6 505.0 892.5 499.2 893.3 495.0C894.1 490.8 895.0 488.3 896.3 485.0C897.6 481.7 899.1 478.3 901.0 475.0C902.8 471.7 905.2 468.1 907.5 465.0C909.9 461.9 912.6 458.9 915.0 456.4C917.4 453.9 919.3 452.1 921.8 450.0C924.3 447.9 927.0 445.8 930.0 443.7C933.0 441.7 936.7 439.4 940.0 437.5C943.3 435.7 946.7 434.1 950.0 432.6C953.3 431.1 956.3 429.9 960.0 428.6C963.7 427.4 967.9 426.1 972.1 425.0C976.3 423.9 980.4 423.1 985.0 422.3C989.6 421.5 995.8 420.8 1000.0 420.3C1004.2 419.9 1005.8 419.8 1010.0 419.7C1014.2 419.5 1020.5 419.5 1025.0 419.5C1029.5 419.6 1032.6 419.7 1036.8 420.0C1040.9 420.3 1045.3 420.6 1050.0 421.1C1054.7 421.6 1060.6 422.4 1065.0 423.1C1069.4 423.7 1073.9 424.6 1076.4 425.0C1078.9 425.4 1079.4 425.6 1080.0 425.7"/><path d="M1080.0 811.3C1077.9 811.1 1071.7 810.6 1067.6 810.0C1063.4 809.4 1058.8 808.4 1055.0 807.5C1051.2 806.5 1048.5 805.7 1045.0 804.4C1041.5 803.2 1037.4 801.6 1033.9 800.0C1030.3 798.4 1026.8 796.7 1023.7 795.0C1020.6 793.3 1018.1 791.9 1015.0 789.9C1011.9 787.9 1008.3 785.5 1005.0 783.1C1001.7 780.6 997.6 777.2 995.1 775.0C992.5 772.8 992.1 772.5 989.6 770.0C987.2 767.5 982.6 762.7 980.1 760.0C977.7 757.3 976.9 756.3 975.0 753.8C973.1 751.3 970.6 748.1 968.5 745.0C966.3 741.9 964.0 738.3 962.0 735.0C959.9 731.7 958.0 728.3 956.2 725.0C954.4 721.7 952.7 718.3 951.1 715.0C949.4 711.7 947.8 708.3 946.3 705.0C944.7 701.7 943.3 698.3 941.8 695.0C940.3 691.7 938.8 688.3 937.4 685.0C935.9 681.7 934.5 678.3 933.0 675.0C931.5 671.7 930.1 668.3 928.6 665.0C927.0 661.7 925.5 658.3 923.9 655.0C922.4 651.7 920.8 648.3 919.1 645.0C917.5 641.7 915.8 638.3 914.1 635.0C912.4 631.7 910.6 628.3 908.8 625.0C907.0 621.7 905.2 618.3 903.3 615.0C901.4 611.7 899.5 608.3 897.6 605.0C895.7 601.7 893.8 598.3 891.9 595.0C890.0 591.7 888.0 588.3 886.2 585.0C884.3 581.7 882.4 578.3 880.6 575.0C878.8 571.7 877.0 568.3 875.4 565.0C873.7 561.7 872.1 558.3 870.7 555.0C869.2 551.7 867.9 548.3 866.7 545.0C865.5 541.7 864.5 539.2 863.5 535.0C862.4 530.8 861.1 524.2 860.5 520.0C860.0 515.8 860.0 513.3 860.0 510.0C860.0 506.7 859.9 504.2 860.6 500.0C861.2 495.8 862.7 489.2 863.9 485.0C865.1 480.8 866.2 478.3 867.7 475.0C869.3 471.7 871.0 468.3 873.0 465.0C875.0 461.7 877.8 457.7 879.8 455.0C881.8 452.3 882.8 451.1 885.0 448.6C887.2 446.1 890.7 442.4 893.2 440.0C895.7 437.6 897.2 436.2 900.0 433.9C902.8 431.7 906.7 428.6 910.0 426.3C913.3 424.0 916.6 421.9 919.8 420.0C922.9 418.1 925.6 416.7 928.9 415.0C932.2 413.3 936.2 411.5 939.7 410.0C943.2 408.5 946.6 407.3 950.0 406.1C953.4 404.9 956.4 404.0 960.0 402.9C963.6 401.9 967.6 400.9 971.8 400.0C975.9 399.1 980.3 398.3 985.0 397.6C989.7 396.8 995.8 396.1 1000.0 395.7C1004.2 395.3 1005.8 395.1 1010.0 394.9C1014.2 394.7 1020.0 394.5 1025.0 394.4C1030.0 394.3 1035.0 394.3 1040.0 394.4C1045.0 394.5 1050.8 394.7 1055.0 394.9C1059.2 395.1 1060.8 395.2 1065.0 395.5C1069.2 395.8 1077.5 396.6 1080.0 396.8"/><path d="M1080.0 856.1C1078.3 855.7 1074.0 855.1 1070.0 854.1C1066.0 853.0 1060.0 851.3 1055.9 850.0C1051.7 848.7 1048.5 847.4 1045.0 846.0C1041.5 844.6 1038.3 843.2 1035.0 841.6C1031.7 840.0 1028.3 838.3 1025.0 836.6C1021.7 834.8 1018.2 832.8 1015.0 830.8C1011.8 828.9 1008.6 826.8 1005.8 825.0C1003.1 823.2 1001.3 821.9 998.7 820.0C996.0 818.1 993.1 815.9 990.0 813.4C986.9 810.9 982.6 807.2 980.0 805.0C977.5 802.8 977.1 802.5 974.6 800.0C972.1 797.5 967.4 792.7 965.0 790.2C962.6 787.6 962.1 787.0 960.0 784.5C957.9 782.0 954.9 778.2 952.4 775.0C950.0 771.8 947.5 768.1 945.4 765.0C943.3 761.9 941.7 759.2 940.0 756.3C938.3 753.3 936.7 750.4 935.0 747.2C933.3 744.1 931.7 740.7 930.0 737.2C928.3 733.6 926.6 729.7 925.0 726.0C923.4 722.3 921.9 718.5 920.5 715.0C919.1 711.5 917.8 708.3 916.6 705.0C915.3 701.7 914.0 698.3 912.7 695.0C911.4 691.7 910.1 688.3 908.8 685.0C907.4 681.7 906.2 678.5 904.7 675.0C903.2 671.5 901.6 667.7 900.0 664.1C898.4 660.5 896.7 656.8 895.0 653.3C893.3 649.8 891.7 646.5 890.0 643.3C888.3 640.0 886.7 636.9 885.0 633.8C883.3 630.8 881.8 628.1 880.0 624.9C878.2 621.8 876.1 618.3 874.2 615.0C872.2 611.7 870.1 608.3 868.1 605.0C866.0 601.7 863.9 598.3 861.9 595.0C859.8 591.7 857.7 588.3 855.8 585.0C853.8 581.7 851.8 578.4 850.0 575.2C848.2 572.0 846.7 569.3 845.0 566.0C843.3 562.8 841.6 559.2 840.0 555.7C838.4 552.2 836.9 548.5 835.7 545.0C834.5 541.5 833.6 539.2 832.7 535.0C831.7 530.8 830.6 524.2 830.2 520.0C829.7 515.8 829.8 513.3 829.9 510.0C830.0 506.7 830.1 504.2 830.8 500.0C831.6 495.8 833.1 489.2 834.4 485.0C835.6 480.8 836.8 478.3 838.2 475.0C839.7 471.7 841.4 468.3 843.2 465.0C845.1 461.7 847.5 457.9 849.5 455.0C851.4 452.1 853.0 450.0 855.0 447.5C857.0 445.0 858.7 442.8 861.2 440.0C863.7 437.2 867.5 433.2 870.0 430.7C872.5 428.2 873.6 427.2 876.1 425.0C878.6 422.8 881.9 420.1 885.0 417.6C888.1 415.1 892.0 412.3 895.0 410.2C898.0 408.1 900.3 406.7 903.0 405.0C905.8 403.3 908.6 401.7 911.6 400.0C914.7 398.3 917.9 396.7 921.4 395.0C924.9 393.3 928.7 391.6 932.7 390.0C936.6 388.4 941.3 386.7 945.0 385.4C948.7 384.2 951.7 383.3 955.0 382.4C958.3 381.4 960.8 380.7 965.0 379.7C969.2 378.8 975.7 377.5 980.0 376.7C984.3 375.9 986.6 375.6 990.7 375.0C994.9 374.4 1000.1 373.8 1005.0 373.3C1009.9 372.9 1015.0 372.5 1020.0 372.1C1025.0 371.8 1030.0 371.6 1035.0 371.4C1040.0 371.2 1045.0 371.0 1050.0 370.9C1055.0 370.8 1060.0 370.8 1065.0 370.7C1070.0 370.7 1077.5 370.7 1080.0 370.7" class="i"/><path d="M0.0 121.0C0.8 122.5 3.2 126.9 5.0 130.1C6.8 133.3 8.7 136.7 10.7 140.0C12.6 143.3 14.6 146.7 16.5 150.0C18.5 153.3 20.4 156.7 22.4 160.0C24.3 163.3 26.2 166.7 28.1 170.0C30.0 173.3 31.8 176.7 33.5 180.0C35.3 183.3 37.0 186.7 38.5 190.0C40.0 193.3 41.5 196.7 42.7 200.0C44.0 203.3 45.1 205.8 45.9 210.0C46.8 214.2 47.9 220.7 47.7 225.0C47.5 229.3 46.8 232.5 45.0 235.8C43.2 239.2 40.0 242.6 36.8 245.0C33.7 247.4 29.9 248.7 26.3 250.0C22.6 251.3 19.4 251.9 15.0 252.6C10.6 253.3 2.5 254.0 0.0 254.3"/><path d="M1077.7 905.0C1075.6 904.2 1069.1 901.6 1065.3 900.0C1061.5 898.4 1058.4 896.9 1055.0 895.3C1051.6 893.7 1048.3 892.0 1045.0 890.2C1041.7 888.5 1038.5 886.7 1035.4 885.0C1032.4 883.3 1029.7 881.7 1026.9 880.0C1024.2 878.3 1021.7 876.8 1018.9 875.0C1016.0 873.2 1013.1 871.3 1010.0 869.2C1006.9 867.1 1003.3 864.6 1000.0 862.3C996.7 859.9 992.9 857.0 990.2 855.0C987.5 853.0 986.3 852.0 983.8 850.0C981.3 848.0 978.0 845.3 975.0 842.8C972.0 840.3 968.6 837.2 966.1 835.0C963.6 832.8 962.6 831.9 960.0 829.4C957.4 826.9 953.0 822.5 950.5 820.0C948.0 817.5 947.2 816.7 945.0 814.2C942.8 811.7 939.5 808.0 937.0 805.0C934.5 802.0 932.0 798.7 930.0 796.1C928.0 793.4 926.8 791.8 925.0 789.1C923.2 786.4 921.0 783.2 919.0 780.0C917.1 776.8 915.1 773.3 913.3 770.0C911.4 766.7 909.7 763.3 908.1 760.0C906.5 756.7 905.0 753.3 903.6 750.0C902.2 746.7 901.0 743.7 899.5 740.0C898.1 736.3 896.5 731.9 895.0 727.8C893.5 723.6 891.9 718.8 890.5 715.0C889.2 711.2 888.3 708.3 887.1 705.0C885.9 701.7 884.8 698.3 883.6 695.0C882.3 691.7 881.2 688.6 879.8 685.0C878.4 681.4 876.6 677.0 875.0 673.2C873.4 669.3 871.7 665.6 870.0 662.0C868.3 658.5 866.7 655.2 865.0 651.9C863.3 648.7 861.7 645.7 860.0 642.7C858.3 639.7 856.8 637.0 855.0 634.1C853.2 631.1 851.4 628.2 849.4 625.0C847.4 621.8 845.1 618.3 842.9 615.0C840.7 611.7 838.4 608.2 836.2 605.0C834.1 601.8 831.9 598.5 830.0 595.7C828.1 592.9 826.7 590.8 825.0 588.2C823.3 585.5 821.7 583.0 819.8 580.0C818.0 577.0 815.8 573.3 814.0 570.0C812.2 566.7 810.5 563.3 808.9 560.0C807.4 556.7 806.2 554.2 804.8 550.0C803.5 545.8 801.6 539.2 800.7 535.0C799.8 530.8 799.6 529.2 799.5 525.0C799.3 520.8 799.4 514.2 799.8 510.0C800.1 505.8 800.5 503.7 801.4 500.0C802.3 496.3 803.6 491.6 805.0 487.5C806.4 483.4 808.3 479.0 810.0 475.4C811.7 471.8 813.3 468.8 815.0 465.9C816.7 462.9 818.3 460.4 820.0 457.7C821.7 455.1 823.1 453.0 825.3 450.0C827.5 447.0 830.7 443.0 833.1 440.0C835.6 437.0 837.7 434.6 840.0 432.1C842.3 429.6 844.3 427.5 846.8 425.0C849.3 422.5 852.3 419.7 855.0 417.2C857.7 414.7 860.8 412.1 863.3 410.0C865.8 407.9 867.2 406.7 870.0 404.6C872.8 402.5 876.7 399.6 880.0 397.3C883.3 394.9 886.7 392.7 890.0 390.7C893.3 388.6 896.4 386.8 899.5 385.0C902.7 383.2 905.6 381.7 908.9 380.0C912.2 378.3 915.9 376.6 919.4 375.0C922.9 373.4 926.6 371.9 930.0 370.6C933.4 369.2 936.7 368.1 940.0 366.9C943.3 365.8 946.0 364.9 950.0 363.8C954.0 362.6 960.1 361.0 964.3 360.0C968.4 359.0 970.7 358.5 975.0 357.7C979.3 356.8 985.8 355.7 990.0 355.0C994.2 354.3 995.8 354.1 1000.0 353.6C1004.2 353.0 1010.0 352.3 1015.0 351.8C1020.0 351.2 1025.8 350.7 1030.0 350.3C1034.2 349.9 1035.8 349.8 1040.0 349.5C1044.2 349.1 1050.0 348.6 1055.0 348.2C1060.0 347.8 1065.8 347.4 1070.0 347.0C1074.2 346.7 1078.3 346.3 1080.0 346.2"/><path d="M0.0 297.6C2.5 297.8 10.3 298.5 15.0 298.9C19.7 299.3 24.2 299.7 28.4 300.0C32.6 300.3 35.6 300.6 40.0 300.8C44.4 301.0 50.0 301.3 55.0 301.2C60.0 301.1 65.8 300.7 70.0 300.2C74.2 299.6 76.7 299.1 80.0 298.0C83.3 297.0 86.7 296.0 90.0 293.9C93.3 291.9 97.5 288.5 100.0 285.6C102.5 282.7 103.8 280.1 105.0 276.6C106.2 273.2 107.1 269.4 107.3 265.0C107.4 260.6 106.6 254.2 106.0 250.0C105.3 245.8 104.3 243.3 103.3 240.0C102.2 236.7 100.9 233.3 99.5 230.0C98.1 226.7 96.5 223.3 94.9 220.0C93.2 216.7 91.4 213.3 89.5 210.0C87.6 206.7 85.6 203.3 83.6 200.0C81.5 196.7 79.4 193.3 77.2 190.0C75.1 186.7 72.7 183.1 70.7 180.0C68.6 176.9 66.8 174.2 65.0 171.6C63.2 169.0 61.9 167.0 60.0 164.2C58.1 161.5 55.9 158.2 53.7 155.0C51.6 151.8 49.3 148.3 47.1 145.0C44.9 141.7 42.7 138.2 40.7 135.0C38.7 131.8 36.8 128.6 35.0 125.6C33.2 122.5 31.7 119.8 30.0 116.8C28.3 113.7 26.7 110.6 25.0 107.2C23.3 103.9 21.6 100.2 20.0 96.5C18.4 92.8 16.7 88.6 15.4 85.0C14.1 81.4 13.1 78.3 12.1 75.0C11.2 71.7 10.5 69.2 9.6 65.0C8.8 60.8 7.8 55.0 7.2 50.0C6.7 45.0 6.5 40.0 6.5 35.0C6.5 30.0 6.8 25.0 7.3 20.0C7.8 15.0 8.9 8.3 9.5 5.0C10.0 1.7 10.3 0.8 10.5 0.0"/><path d="M1001.2 905.0C1000.1 904.2 997.5 902.1 994.8 900.0C992.1 897.9 988.1 894.7 985.0 892.2C981.9 889.7 978.7 887.1 976.2 885.0C973.7 882.9 972.7 882.1 970.0 879.8C967.3 877.5 962.8 873.7 960.0 871.2C957.2 868.7 955.6 867.3 953.1 865.0C950.6 862.7 947.7 860.1 945.0 857.6C942.3 855.1 939.6 852.5 937.1 850.0C934.6 847.5 932.4 845.3 930.0 842.8C927.6 840.3 925.1 837.7 922.6 835.0C920.1 832.3 917.2 828.9 915.0 826.4C912.8 823.9 911.8 822.7 909.7 820.0C907.5 817.3 904.4 813.3 902.0 810.0C899.6 806.7 897.1 803.0 895.1 800.0C893.1 797.0 891.7 794.6 890.0 791.8C888.3 788.9 886.7 786.0 885.0 782.8C883.3 779.6 881.7 776.3 880.0 772.7C878.3 769.0 876.5 764.8 875.0 761.0C873.5 757.3 872.1 753.5 870.8 750.0C869.6 746.5 868.5 743.3 867.4 740.0C866.3 736.7 865.5 733.9 864.2 730.0C863.0 726.1 861.3 720.7 860.0 716.6C858.7 712.4 857.4 708.6 856.2 705.0C855.0 701.4 854.0 698.3 852.7 695.0C851.5 691.7 850.2 688.3 848.9 685.0C847.5 681.7 846.1 678.3 844.6 675.0C843.0 671.7 841.4 668.3 839.7 665.0C838.0 661.7 836.2 658.3 834.3 655.0C832.4 651.7 830.4 648.3 828.3 645.0C826.2 641.7 823.9 638.2 821.7 635.0C819.4 631.8 816.9 628.3 815.0 625.6C813.1 622.9 811.9 621.4 810.0 618.8C808.1 616.2 805.7 613.1 803.3 610.0C801.0 606.9 798.0 603.0 795.8 600.0C793.6 597.0 791.8 594.5 790.0 592.0C788.2 589.5 786.8 587.5 785.0 584.7C783.2 581.9 780.9 578.3 779.0 575.0C777.1 571.7 775.4 568.3 773.9 565.0C772.3 561.7 771.2 559.2 769.9 555.0C768.7 550.8 767.1 545.0 766.5 540.0C765.8 535.0 765.7 530.0 766.0 525.0C766.2 520.0 767.3 514.2 768.1 510.0C769.0 505.8 769.8 503.4 771.0 500.0C772.1 496.6 773.5 493.0 775.0 489.6C776.5 486.1 778.3 482.4 780.0 479.1C781.7 475.9 783.2 473.2 785.1 470.0C787.1 466.8 789.3 463.3 791.6 460.0C793.8 456.7 796.5 453.0 798.8 450.0C801.0 447.0 803.0 444.7 805.0 442.2C807.0 439.7 808.6 437.8 811.1 435.0C813.6 432.2 817.6 427.8 820.0 425.3C822.4 422.8 822.7 422.4 825.2 420.0C827.7 417.6 832.3 413.2 835.0 410.7C837.7 408.2 838.9 407.1 841.4 405.0C843.9 402.9 846.9 400.3 850.0 397.8C853.1 395.3 857.2 392.2 860.0 390.0C862.8 387.9 864.5 386.7 867.0 385.0C869.5 383.3 872.0 381.5 875.0 379.6C878.0 377.6 881.7 375.3 885.0 373.3C888.3 371.3 891.7 369.4 895.0 367.6C898.3 365.8 901.7 364.0 905.0 362.4C908.3 360.7 911.7 359.2 915.0 357.7C918.3 356.2 921.7 354.8 925.0 353.5C928.3 352.2 930.9 351.2 935.0 349.7C939.1 348.3 945.5 346.3 949.7 345.0C953.8 343.7 956.6 343.0 960.0 342.2C963.4 341.3 965.8 340.7 970.0 339.7C974.2 338.8 980.8 337.4 985.0 336.6C989.2 335.8 990.8 335.5 995.0 334.8C999.2 334.1 1005.0 333.2 1010.0 332.5C1015.0 331.7 1020.8 330.9 1025.0 330.3C1029.2 329.7 1030.8 329.5 1035.0 328.9C1039.2 328.3 1045.5 327.5 1050.0 326.8C1054.5 326.2 1058.0 325.6 1062.2 325.0C1066.4 324.4 1072.0 323.4 1075.0 322.9C1078.0 322.4 1079.2 322.2 1080.0 322.1"/><path d="M39.7 0.0C39.1 2.5 37.0 10.8 36.1 15.0C35.2 19.2 35.0 20.8 34.5 25.0C34.1 29.2 33.6 35.0 33.6 40.0C33.5 45.0 34.0 50.8 34.4 55.0C34.7 59.2 35.0 60.8 35.9 65.0C36.8 69.2 38.5 75.8 39.7 80.0C40.9 84.2 41.9 86.7 43.1 90.0C44.4 93.3 45.8 96.7 47.3 100.0C48.8 103.3 50.5 106.7 52.2 110.0C53.9 113.3 55.8 116.7 57.7 120.0C59.6 123.3 61.6 126.7 63.7 130.0C65.7 133.3 68.1 136.9 70.0 139.8C71.9 142.7 73.3 144.7 75.0 147.2C76.7 149.8 78.3 152.0 80.4 155.0C82.5 158.0 85.1 161.7 87.5 165.0C89.9 168.3 92.7 172.1 94.8 175.0C96.9 177.9 98.2 179.7 100.0 182.2C101.8 184.7 103.5 187.0 105.7 190.0C107.8 193.0 110.4 196.7 112.7 200.0C115.0 203.3 117.5 206.9 119.5 210.0C121.6 213.1 123.3 215.7 125.0 218.5C126.7 221.3 128.3 223.8 130.0 226.7C131.7 229.5 133.3 232.4 135.0 235.5C136.7 238.6 138.3 241.8 140.0 245.4C141.7 249.0 143.5 253.1 145.0 257.2C146.5 261.3 148.1 266.2 149.1 270.0C150.1 273.8 150.7 275.8 151.2 280.0C151.6 284.2 152.1 290.5 151.9 295.0C151.7 299.5 151.2 303.1 150.0 307.1C148.8 311.1 146.7 315.8 145.0 318.9C143.3 322.0 142.5 323.1 140.0 325.6C137.5 328.0 133.3 331.5 130.0 333.6C126.7 335.7 123.3 336.9 120.0 338.1C116.7 339.3 114.2 340.0 110.0 340.6C105.8 341.3 100.0 341.9 95.0 342.0C90.0 342.2 85.0 341.9 80.0 341.6C75.0 341.3 69.2 340.6 65.0 340.1C60.8 339.6 59.2 339.3 55.0 338.7C50.8 338.1 44.2 337.0 40.0 336.4C35.8 335.7 34.2 335.4 30.0 334.8C25.8 334.2 20.0 333.3 15.0 332.6C10.0 331.9 2.5 331.1 0.0 330.8"/><path d="M951.4 905.0C950.4 904.0 947.7 901.6 945.0 899.1C942.3 896.6 937.7 892.4 935.1 890.0C932.6 887.6 932.3 887.4 929.8 885.0C927.3 882.6 922.6 878.1 920.0 875.6C917.4 873.1 916.8 872.5 914.3 870.0C911.8 867.5 907.4 863.1 905.0 860.6C902.6 858.1 902.1 857.6 899.7 855.0C897.3 852.4 893.0 847.7 890.6 845.0C888.1 842.3 887.1 841.0 885.0 838.5C882.9 836.0 880.4 833.1 878.0 830.0C875.6 826.9 872.7 823.0 870.5 820.0C868.3 817.0 866.8 814.6 865.0 811.9C863.2 809.3 861.7 806.8 860.0 804.0C858.3 801.2 856.6 798.2 854.9 795.0C853.2 791.8 851.5 788.5 849.9 785.0C848.2 781.5 846.6 778.0 845.0 773.9C843.4 769.8 841.4 764.6 840.0 760.6C838.6 756.7 837.6 753.4 836.4 750.0C835.3 746.6 834.4 743.5 833.3 740.0C832.3 736.5 831.3 733.1 830.0 728.9C828.7 724.8 826.9 719.0 825.6 715.0C824.3 711.0 823.3 708.3 822.1 705.0C820.9 701.7 819.6 698.3 818.2 695.0C816.8 691.7 815.3 688.3 813.7 685.0C812.1 681.7 810.4 678.3 808.5 675.0C806.7 671.7 804.7 668.3 802.6 665.0C800.5 661.7 797.9 658.0 795.8 655.0C793.7 652.0 791.9 649.7 790.0 647.2C788.1 644.7 786.6 642.9 784.2 640.0C781.8 637.1 777.9 632.7 775.5 630.0C773.2 627.3 772.3 626.4 770.0 623.9C767.7 621.4 764.4 617.7 761.9 615.0C759.4 612.3 757.2 609.9 755.0 607.4C752.8 604.9 750.9 602.9 748.5 600.0C746.2 597.1 742.9 593.1 740.7 590.0C738.4 586.9 736.8 584.5 735.0 581.5C733.2 578.5 731.5 575.6 730.0 572.0C728.5 568.5 726.8 563.7 725.8 560.0C724.8 556.3 724.4 554.1 724.3 550.0C724.1 545.9 724.5 539.4 725.0 535.2C725.5 531.1 726.3 528.4 727.2 525.0C728.2 521.6 729.3 518.3 730.7 515.0C732.0 511.7 733.4 508.3 735.1 505.0C736.7 501.7 738.4 498.3 740.3 495.0C742.2 491.7 744.2 488.3 746.3 485.0C748.4 481.7 750.6 478.3 752.9 475.0C755.2 471.7 758.0 468.0 760.0 465.3C762.0 462.6 763.0 461.3 765.0 458.8C767.0 456.3 769.6 453.0 772.1 450.0C774.6 447.0 777.8 443.4 780.0 440.9C782.2 438.4 782.9 437.7 785.3 435.0C787.8 432.3 792.4 427.5 794.8 425.0C797.3 422.5 797.5 422.3 800.0 419.8C802.5 417.4 807.4 412.7 810.0 410.2C812.6 407.7 813.2 407.2 815.7 405.0C818.2 402.8 822.1 399.4 825.0 396.9C827.9 394.4 830.7 392.0 833.2 390.0C835.7 388.0 837.2 386.8 840.0 384.6C842.8 382.4 846.7 379.5 850.0 377.1C853.3 374.6 857.0 372.0 860.0 370.0C862.9 368.0 864.9 366.7 867.5 365.0C870.0 363.3 872.5 361.8 875.4 360.0C878.3 358.2 881.7 356.2 885.0 354.3C888.3 352.5 891.7 350.6 895.0 348.9C898.3 347.1 901.7 345.5 905.0 343.9C908.3 342.3 911.6 340.8 915.0 339.3C918.4 337.8 921.4 336.6 925.5 335.0C929.5 333.4 935.1 331.4 939.2 330.0C943.3 328.6 946.5 327.6 950.0 326.5C953.5 325.5 955.9 324.7 960.0 323.7C964.1 322.6 970.2 321.0 974.4 320.0C978.6 319.0 981.2 318.4 985.0 317.6C988.8 316.8 993.3 315.8 997.4 315.0C1001.6 314.2 1005.7 313.3 1010.0 312.5C1014.3 311.7 1018.9 310.8 1023.0 310.0C1027.2 309.2 1030.9 308.4 1035.0 307.6C1039.1 306.8 1043.2 305.9 1047.4 305.0C1051.6 304.1 1056.2 303.0 1060.0 302.1C1063.8 301.2 1066.7 300.4 1070.0 299.5C1073.3 298.6 1078.3 297.2 1080.0 296.7"/><path d="M0.0 359.8C1.7 360.0 5.8 360.4 10.0 361.0C14.2 361.6 20.8 362.7 25.0 363.4C29.2 364.1 30.8 364.5 35.0 365.3C39.2 366.2 45.8 367.6 50.0 368.4C54.2 369.3 55.8 369.7 60.0 370.6C64.2 371.6 70.8 373.0 75.0 373.9C79.2 374.8 80.8 375.2 85.0 376.0C89.2 376.7 95.7 377.9 100.0 378.6C104.3 379.3 106.8 379.6 110.9 380.0C115.1 380.4 120.2 380.9 125.0 380.9C129.8 381.0 135.8 380.7 140.0 380.2C144.2 379.8 146.6 379.3 150.0 378.4C153.4 377.6 156.8 376.5 160.2 375.0C163.5 373.5 166.8 371.8 170.0 369.3C173.2 366.8 177.0 363.0 179.5 360.0C182.0 357.0 183.4 354.4 185.0 351.1C186.6 347.7 188.1 343.5 189.1 340.0C190.1 336.5 190.6 334.2 191.0 330.0C191.4 325.8 191.7 319.7 191.5 315.0C191.3 310.3 190.7 305.9 190.0 301.8C189.3 297.6 188.3 293.6 187.4 290.0C186.4 286.4 185.5 283.5 184.3 280.0C183.0 276.5 181.5 272.7 180.0 269.2C178.5 265.6 176.7 261.8 175.0 258.5C173.3 255.1 171.7 252.1 170.0 249.0C168.3 246.0 166.7 243.2 164.7 240.0C162.8 236.8 160.6 233.3 158.4 230.0C156.2 226.7 153.9 223.2 151.7 220.0C149.4 216.8 146.9 213.3 145.0 210.6C143.1 207.9 141.9 206.4 140.0 203.8C138.1 201.2 135.8 198.1 133.4 195.0C131.1 191.9 128.1 187.9 125.9 185.0C123.6 182.1 121.9 179.8 120.0 177.3C118.1 174.8 116.6 172.9 114.5 170.0C112.3 167.1 109.4 163.3 107.0 160.0C104.6 156.7 102.0 153.1 100.0 150.3C98.0 147.5 96.8 145.7 95.0 143.2C93.2 140.6 91.5 138.0 89.5 135.0C87.5 132.0 85.2 128.3 83.2 125.0C81.2 121.7 79.2 118.3 77.4 115.0C75.6 111.7 73.9 108.3 72.3 105.0C70.7 101.7 69.2 98.3 67.8 95.0C66.4 91.7 65.4 89.2 64.1 85.0C62.8 80.8 61.0 74.2 60.0 70.0C59.0 65.8 58.8 64.2 58.3 60.0C57.9 55.8 57.4 50.0 57.4 45.0C57.5 40.0 58.0 34.2 58.5 30.0C58.9 25.8 59.2 24.2 60.2 20.0C61.2 15.8 63.3 8.3 64.3 5.0C65.3 1.7 65.7 0.8 66.0 0.0"/><path d="M906.4 905.0C905.4 903.9 902.5 901.1 900.0 898.6C897.5 896.1 893.9 892.5 891.4 890.0C888.9 887.5 887.4 886.0 885.0 883.5C882.6 881.0 879.3 877.6 876.8 875.0C874.3 872.4 872.3 870.4 870.0 867.9C867.7 865.4 865.3 862.8 862.8 860.0C860.3 857.2 857.2 853.7 855.0 851.2C852.8 848.7 852.0 847.7 849.8 845.0C847.6 842.3 844.3 838.2 841.9 835.0C839.4 831.8 837.0 828.4 835.0 825.7C833.0 822.9 831.7 820.9 830.0 818.3C828.3 815.7 826.6 813.0 824.8 810.0C823.0 807.0 820.9 803.3 819.2 800.0C817.4 796.7 815.7 793.3 814.2 790.0C812.6 786.7 811.3 783.7 809.8 780.0C808.2 776.3 806.5 772.0 805.0 767.8C803.5 763.6 801.8 758.8 800.5 755.0C799.2 751.2 798.3 748.3 797.2 745.0C796.1 741.7 795.0 738.5 793.8 735.0C792.6 731.5 791.5 728.1 790.0 724.3C788.5 720.4 786.7 715.7 785.0 711.9C783.3 708.1 781.7 704.7 780.0 701.4C778.3 698.2 776.7 695.3 775.0 692.5C773.3 689.7 772.0 687.6 770.0 684.7C768.0 681.8 765.2 678.1 762.7 675.0C760.2 671.9 757.3 668.6 755.0 666.1C752.7 663.6 751.6 662.4 749.1 660.0C746.6 657.6 742.8 654.1 740.0 651.6C737.2 649.1 734.6 647.0 732.1 645.0C729.6 643.0 727.8 641.6 725.0 639.4C722.2 637.3 718.3 634.4 715.0 632.0C711.7 629.6 707.9 627.0 705.1 625.0C702.2 623.0 700.4 621.7 697.9 620.0C695.4 618.3 693.0 616.6 690.0 614.5C687.0 612.4 683.3 609.8 680.0 607.4C676.7 605.0 672.7 602.1 670.0 600.0C667.3 597.9 666.3 597.2 663.8 595.0C661.3 592.8 657.4 589.1 655.0 586.6C652.6 584.1 651.2 583.2 649.6 580.0C647.9 576.8 645.6 570.6 645.0 567.3C644.4 564.0 644.8 562.9 645.8 560.0C646.7 557.1 648.7 553.3 650.8 550.0C652.9 546.7 656.2 542.8 658.6 540.0C660.9 537.2 662.7 535.5 665.0 533.0C667.3 530.5 669.8 527.7 672.3 525.0C674.8 522.3 677.6 519.5 680.0 517.0C682.4 514.5 684.1 512.6 686.6 510.0C689.1 507.4 692.6 503.7 695.0 501.2C697.4 498.7 698.4 497.6 700.9 495.0C703.4 492.4 707.6 487.9 710.0 485.4C712.4 482.9 712.6 482.6 715.1 480.0C717.5 477.4 722.1 472.6 724.5 470.0C727.0 467.4 727.6 466.8 730.0 464.3C732.4 461.8 736.5 457.6 739.0 455.0C741.5 452.4 742.5 451.4 745.0 448.9C747.5 446.4 751.3 442.5 753.8 440.0C756.3 437.5 757.4 436.4 760.0 433.9C762.6 431.4 766.7 427.4 769.2 425.0C771.7 422.6 772.4 422.0 775.0 419.5C777.6 417.1 782.4 412.7 785.0 410.3C787.6 407.9 788.4 407.2 790.9 405.0C793.4 402.8 797.1 399.5 800.0 397.0C802.9 394.5 805.7 392.1 808.2 390.0C810.7 387.9 812.2 386.7 815.0 384.4C817.8 382.1 821.9 378.8 825.0 376.4C828.1 374.0 830.9 371.9 833.4 370.0C835.9 368.1 837.4 367.0 840.1 365.0C842.9 363.0 846.7 360.3 850.0 358.0C853.3 355.7 856.7 353.5 860.0 351.3C863.3 349.1 866.9 346.9 869.9 345.0C873.0 343.1 875.4 341.7 878.3 340.0C881.2 338.3 884.1 336.7 887.2 335.0C890.2 333.3 893.4 331.7 896.6 330.0C899.9 328.3 903.3 326.7 906.9 325.0C910.5 323.3 914.2 321.6 918.1 320.0C921.9 318.4 926.3 316.6 930.0 315.1C933.7 313.7 936.7 312.6 940.0 311.5C943.3 310.3 946.7 309.2 950.0 308.1C953.3 307.0 955.8 306.2 960.0 305.0C964.2 303.7 970.8 301.8 975.0 300.7C979.2 299.5 981.4 299.0 985.0 298.0C988.6 297.1 992.7 296.1 996.8 295.0C1001.0 293.9 1006.1 292.6 1010.0 291.6C1013.9 290.6 1016.0 290.1 1020.0 289.0C1024.0 287.9 1029.9 286.2 1034.1 285.0C1038.2 283.8 1041.5 282.7 1045.0 281.6C1048.5 280.4 1051.7 279.3 1055.0 278.1C1058.3 276.8 1061.7 275.5 1065.0 274.1C1068.3 272.7 1072.5 270.8 1075.0 269.7C1077.5 268.5 1079.2 267.6 1080.0 267.2"/><path d="M0.0 386.5C2.5 386.8 10.8 387.9 15.0 388.5C19.2 389.2 20.8 389.5 25.0 390.3C29.2 391.2 35.8 392.7 40.0 393.6C44.2 394.6 46.0 395.1 50.0 396.1C54.0 397.2 60.0 398.8 64.2 400.0C68.3 401.2 71.5 402.1 75.0 403.1C78.5 404.1 81.0 404.9 85.0 406.0C89.0 407.2 94.5 408.8 98.7 410.0C102.9 411.2 106.5 412.2 110.0 413.1C113.5 414.1 115.8 414.7 120.0 415.8C124.2 416.8 130.8 418.3 135.0 419.2C139.2 420.1 140.8 420.5 145.0 421.2C149.2 421.9 155.0 422.8 160.0 423.3C165.0 423.9 170.0 424.3 175.0 424.4C180.0 424.5 185.0 424.5 190.0 424.0C195.0 423.5 200.8 422.4 205.0 421.4C209.2 420.3 211.7 419.4 215.0 417.6C218.3 415.9 222.5 412.9 225.0 410.8C227.5 408.6 228.3 407.7 230.0 404.7C231.7 401.7 233.8 397.1 235.0 392.9C236.2 388.8 236.7 384.7 237.1 380.0C237.4 375.3 237.3 370.0 237.1 365.0C236.9 360.0 236.2 354.2 235.6 350.0C235.1 345.8 234.8 344.2 234.0 340.0C233.2 335.8 231.6 329.2 230.6 325.0C229.5 320.8 228.8 318.3 227.7 315.0C226.7 311.7 225.6 308.5 224.3 305.0C223.0 301.5 221.5 297.8 220.0 294.2C218.5 290.6 216.7 286.7 215.0 283.2C213.3 279.7 211.7 276.5 210.0 273.4C208.3 270.3 206.8 267.5 205.0 264.4C203.2 261.4 201.3 258.2 199.3 255.0C197.3 251.8 195.1 248.3 192.8 245.0C190.6 241.7 188.1 238.0 185.9 235.0C183.8 232.0 181.8 229.3 180.0 226.8C178.2 224.3 177.0 222.8 174.9 220.0C172.8 217.2 169.7 213.2 167.3 210.0C164.8 206.8 162.0 203.3 160.0 200.7C158.0 198.1 157.1 197.0 155.0 194.4C152.9 191.8 150.0 188.2 147.5 185.0C145.0 181.8 142.1 178.1 140.0 175.5C137.9 172.8 137.0 171.7 135.0 169.1C133.0 166.5 130.4 163.2 128.0 160.0C125.6 156.8 122.8 153.0 120.6 150.0C118.5 147.0 116.8 144.6 115.0 142.0C113.2 139.4 111.8 137.4 110.0 134.6C108.2 131.8 105.9 128.3 103.9 125.0C101.9 121.7 100.0 118.3 98.2 115.0C96.4 111.7 94.7 108.3 93.1 105.0C91.5 101.7 90.1 98.4 88.7 95.0C87.4 91.6 86.2 88.6 85.0 84.5C83.8 80.3 82.2 74.1 81.4 70.0C80.6 65.9 80.3 63.9 80.0 59.7C79.7 55.5 79.6 49.1 79.7 45.0C79.8 40.9 79.9 39.2 80.6 35.0C81.3 30.8 82.7 24.2 83.8 20.0C84.9 15.8 85.8 13.3 87.0 10.0C88.3 6.7 90.5 1.7 91.2 0.0" class="i"/><path d="M1065.5 0.0C1065.6 2.5 1066.0 10.0 1066.3 15.0C1066.6 20.0 1066.9 25.0 1067.3 30.0C1067.7 35.0 1068.2 40.7 1068.7 45.0C1069.1 49.3 1069.4 51.7 1070.0 55.9C1070.6 60.1 1071.3 65.2 1072.2 70.0C1073.0 74.8 1074.2 80.8 1075.0 85.0C1075.8 89.2 1076.4 91.3 1077.2 95.0C1078.0 98.7 1079.5 105.0 1080.0 107.0" class="i"/><path d="M862.8 905.0C861.5 903.6 857.4 899.3 855.0 896.8C852.6 894.3 851.1 892.7 848.6 890.0C846.1 887.3 842.3 883.2 840.0 880.7C837.7 878.2 837.1 877.6 834.7 875.0C832.4 872.4 828.2 867.8 825.7 865.0C823.3 862.2 822.1 860.9 820.0 858.4C817.9 855.9 815.4 853.1 812.9 850.0C810.4 846.9 807.2 842.8 805.0 840.1C802.8 837.3 801.8 835.9 800.0 833.4C798.2 830.9 796.1 828.1 794.0 825.0C791.9 821.9 789.6 818.3 787.5 815.0C785.4 811.7 783.4 808.3 781.5 805.0C779.6 801.7 777.8 798.3 776.1 795.0C774.4 791.7 772.8 788.3 771.2 785.0C769.6 781.7 768.1 778.3 766.6 775.0C765.1 771.7 763.7 768.3 762.3 765.0C760.9 761.7 759.5 758.3 758.0 755.0C756.6 751.7 755.1 748.3 753.6 745.0C752.1 741.7 750.5 738.3 748.8 735.0C747.1 731.7 745.3 728.3 743.3 725.0C741.4 721.7 739.1 718.2 736.9 715.0C734.7 711.8 732.1 708.5 730.0 706.0C727.9 703.5 727.1 702.5 724.6 700.0C722.1 697.5 717.9 693.5 715.0 691.0C712.1 688.5 710.0 686.9 707.5 685.0C705.0 683.1 702.9 681.7 700.0 679.8C697.1 677.9 693.3 675.6 690.0 673.7C686.7 671.9 683.3 670.2 680.0 668.5C676.7 666.9 673.3 665.4 670.0 663.9C666.7 662.5 663.9 661.3 660.0 659.8C656.1 658.4 650.7 656.4 646.6 655.0C642.4 653.6 638.6 652.4 635.0 651.2C631.4 650.1 628.6 649.3 625.0 648.2C621.4 647.2 617.8 646.2 613.6 645.0C609.5 643.8 603.9 642.3 600.0 641.2C596.1 640.1 593.6 639.4 590.0 638.4C586.4 637.3 582.5 636.3 578.4 635.0C574.2 633.7 568.9 632.1 565.0 630.8C561.1 629.5 558.3 628.6 555.0 627.4C551.7 626.2 548.3 625.0 545.0 623.8C541.7 622.5 538.5 621.2 535.0 619.8C531.5 618.3 527.6 616.6 524.0 615.0C520.3 613.4 516.8 611.7 513.4 610.0C510.0 608.3 506.7 606.7 503.5 605.0C500.3 603.3 497.4 601.7 494.3 600.0C491.2 598.3 488.2 596.6 485.0 594.7C481.8 592.8 478.3 590.7 475.0 588.6C471.7 586.5 468.3 584.4 465.0 582.2C461.7 580.0 458.0 577.6 455.0 575.6C452.0 573.5 449.5 571.8 447.0 570.0C444.5 568.2 442.8 567.1 440.0 565.0C437.2 562.9 433.3 560.0 430.0 557.5C426.7 555.0 423.0 552.1 420.4 550.0C417.8 547.9 416.9 547.2 414.3 545.0C411.8 542.8 407.8 539.4 405.0 536.9C402.2 534.4 400.0 532.4 397.5 530.0C395.0 527.6 392.4 524.9 390.0 522.4C387.6 519.9 385.6 517.9 383.2 515.0C380.8 512.1 377.8 508.3 375.6 505.0C373.4 501.7 371.4 498.3 370.0 495.0C368.7 491.7 367.3 488.6 367.3 485.0C367.3 481.4 368.0 476.6 370.0 473.3C372.0 470.0 375.7 467.1 379.0 465.0C382.4 462.9 386.5 461.7 390.0 460.6C393.5 459.5 395.8 459.1 400.0 458.5C404.2 458.0 410.0 457.4 415.0 457.3C420.0 457.1 425.0 457.3 430.0 457.7C435.0 458.0 440.8 458.8 445.0 459.3C449.2 459.9 450.8 460.2 455.0 461.0C459.2 461.9 465.8 463.3 470.0 464.3C474.2 465.3 476.5 466.0 480.0 466.9C483.5 467.9 486.8 468.8 491.0 470.0C495.2 471.2 501.0 473.0 505.0 474.3C509.0 475.5 511.7 476.4 515.0 477.4C518.3 478.5 520.8 479.2 525.0 480.5C529.2 481.8 535.8 483.8 540.0 485.0C544.2 486.2 546.7 486.9 550.0 487.8C553.3 488.7 555.8 489.3 560.0 490.3C564.2 491.2 570.3 492.5 575.0 493.3C579.7 494.1 584.0 494.6 588.2 495.0C592.4 495.4 595.5 495.7 600.0 495.7C604.5 495.8 610.8 495.5 615.0 495.2C619.2 494.9 620.8 494.7 625.0 493.9C629.2 493.1 635.8 491.6 640.0 490.4C644.2 489.3 646.7 488.3 650.0 487.1C653.3 485.8 656.7 484.4 660.0 482.8C663.3 481.3 666.7 479.6 670.0 477.8C673.3 476.0 676.7 474.0 680.0 472.0C683.3 470.0 687.0 467.5 690.0 465.5C693.0 463.5 695.3 461.8 697.8 460.0C700.3 458.2 702.1 456.9 705.0 454.8C707.9 452.6 711.9 449.5 715.0 447.1C718.1 444.6 721.3 442.0 723.8 440.0C726.3 438.0 727.3 437.2 730.0 434.9C732.7 432.7 737.0 429.1 740.0 426.6C743.0 424.2 745.4 422.1 747.9 420.0C750.4 417.9 752.1 416.4 755.0 414.0C757.9 411.6 762.2 407.9 765.0 405.6C767.8 403.2 769.1 402.1 771.6 400.0C774.1 397.9 777.0 395.5 780.0 393.0C783.0 390.5 787.1 387.2 789.8 385.0C792.4 382.8 793.4 382.0 795.9 380.0C798.5 378.0 801.8 375.3 805.0 372.8C808.2 370.3 812.2 367.2 815.0 365.0C817.8 362.9 819.1 361.9 821.6 360.0C824.1 358.1 826.9 356.0 830.0 353.8C833.1 351.6 836.7 349.0 840.0 346.7C843.3 344.4 846.8 341.9 849.7 340.0C852.6 338.1 854.7 336.7 857.3 335.0C859.9 333.3 862.2 331.8 865.2 330.0C868.1 328.2 871.7 326.0 875.0 324.0C878.3 322.1 881.7 320.2 885.0 318.3C888.3 316.4 891.7 314.6 895.0 312.9C898.3 311.2 901.7 309.5 905.0 307.9C908.3 306.2 911.7 304.7 915.0 303.1C918.3 301.6 921.7 300.2 925.0 298.8C928.3 297.3 931.3 296.1 935.0 294.6C938.7 293.2 943.0 291.5 947.2 290.0C951.4 288.5 956.2 286.8 960.0 285.4C963.8 284.1 966.7 283.1 970.0 282.0C973.3 280.9 976.5 279.9 980.0 278.7C983.5 277.5 987.0 276.4 991.1 275.0C995.3 273.6 1001.0 271.6 1005.0 270.2C1009.0 268.8 1011.7 267.8 1015.0 266.5C1018.3 265.2 1021.7 263.8 1025.0 262.4C1028.3 260.9 1031.7 259.4 1035.0 257.8C1038.3 256.1 1041.7 254.4 1045.0 252.5C1048.3 250.5 1052.0 248.3 1055.0 246.2C1058.0 244.1 1060.6 242.1 1063.1 240.0C1065.6 237.9 1067.6 236.1 1070.0 233.6C1072.4 231.1 1075.8 227.0 1077.5 225.0C1079.1 223.0 1079.6 221.9 1080.0 221.3" class="i"/><path d="M1033.9 0.0C1033.9 2.5 1034.0 10.0 1034.1 15.0C1034.2 20.0 1034.3 25.1 1034.4 30.0C1034.6 34.9 1034.8 40.2 1035.0 44.3C1035.2 48.5 1035.3 50.7 1035.7 55.0C1036.0 59.3 1036.6 65.0 1037.1 70.0C1037.7 75.0 1038.5 80.8 1039.1 85.0C1039.6 89.2 1039.9 90.8 1040.6 95.0C1041.3 99.2 1042.5 105.8 1043.3 110.0C1044.0 114.2 1044.4 115.8 1045.1 120.0C1045.9 124.2 1047.0 130.1 1047.8 135.0C1048.7 139.9 1049.5 145.5 1050.0 149.7C1050.5 153.9 1050.8 155.8 1051.0 160.0C1051.2 164.2 1051.3 170.8 1051.1 175.0C1050.9 179.2 1050.8 180.8 1050.0 185.0C1049.1 189.2 1047.3 195.8 1045.8 200.0C1044.2 204.2 1042.6 207.0 1040.8 210.0C1039.0 213.0 1037.0 215.6 1035.0 218.1C1033.0 220.6 1031.3 222.6 1028.8 225.0C1026.3 227.4 1023.1 230.1 1020.0 232.6C1016.9 235.0 1013.2 237.5 1010.0 239.6C1006.8 241.7 1004.0 243.3 1000.8 245.0C997.7 246.7 994.6 248.3 991.3 250.0C987.9 251.7 984.2 253.4 980.7 255.0C977.2 256.6 973.5 258.2 970.0 259.8C966.5 261.3 963.3 262.6 960.0 264.1C956.7 265.5 953.3 266.9 950.0 268.3C946.7 269.8 943.3 271.2 940.0 272.7C936.7 274.2 933.3 275.7 930.0 277.2C926.7 278.7 923.3 280.3 920.0 281.9C916.7 283.5 913.3 285.1 910.0 286.8C906.7 288.5 903.3 290.2 900.0 292.0C896.7 293.7 893.3 295.5 890.0 297.4C886.7 299.3 883.3 301.2 880.0 303.1C876.7 305.1 873.2 307.1 870.0 309.1C866.8 311.1 863.5 313.2 860.6 315.0C857.8 316.8 855.5 318.3 852.9 320.0C850.3 321.7 848.0 323.3 845.0 325.3C842.0 327.3 838.3 329.9 835.0 332.2C831.7 334.5 828.0 337.2 825.0 339.3C822.0 341.5 819.7 343.2 817.2 345.0C814.7 346.8 812.9 348.2 810.0 350.3C807.1 352.5 803.2 355.4 800.0 357.9C796.8 360.3 793.3 363.0 790.6 365.0C788.0 367.0 786.7 368.0 784.1 370.0C781.5 372.0 778.2 374.6 775.0 377.1C771.8 379.5 767.8 382.6 765.0 384.8C762.2 387.0 760.7 388.1 758.2 390.0C755.7 391.9 753.0 394.0 750.0 396.3C747.0 398.6 743.1 401.6 740.0 403.9C736.9 406.1 734.2 408.1 731.6 410.0C729.1 411.9 727.5 413.0 724.7 415.0C721.9 417.0 718.3 419.5 715.0 421.8C711.7 424.0 708.3 426.2 705.0 428.3C701.7 430.5 698.3 432.5 695.0 434.5C691.7 436.4 688.5 438.2 685.2 440.0C681.9 441.8 678.6 443.4 675.3 445.0C671.9 446.6 668.4 448.2 665.0 449.5C661.6 450.9 658.3 452.1 655.0 453.2C651.7 454.4 649.2 455.2 645.0 456.2C640.8 457.2 634.2 458.6 630.0 459.3C625.8 460.0 624.2 460.2 620.0 460.4C615.8 460.7 609.8 461.0 605.0 460.9C600.2 460.8 595.6 460.4 591.4 460.0C587.3 459.6 584.4 459.2 580.0 458.5C575.6 457.7 569.2 456.4 565.0 455.5C560.8 454.6 558.4 453.9 555.0 453.0C551.6 452.1 548.8 451.3 544.6 450.0C540.5 448.7 534.1 446.7 530.0 445.3C525.9 444.0 523.3 443.1 520.0 441.9C516.7 440.8 513.3 439.6 510.0 438.4C506.7 437.2 503.9 436.2 500.0 434.8C496.1 433.4 490.6 431.5 486.5 430.0C482.3 428.5 478.6 427.2 475.0 426.0C471.4 424.8 468.3 423.8 465.0 422.7C461.7 421.6 459.2 420.8 455.0 419.5C450.8 418.2 444.2 416.3 440.0 415.1C435.8 413.9 433.3 413.3 430.0 412.4C426.7 411.5 424.2 410.9 420.0 409.9C415.8 408.9 409.2 407.4 405.0 406.5C400.8 405.5 399.2 405.2 395.0 404.3C390.8 403.4 384.2 402.0 380.0 401.2C375.8 400.3 374.2 400.0 370.0 399.0C365.8 398.0 359.2 396.4 355.0 395.3C350.8 394.2 348.3 393.5 345.0 392.4C341.7 391.3 338.3 390.2 335.0 388.8C331.7 387.4 328.3 386.0 325.0 384.2C321.7 382.5 318.3 380.6 315.0 378.4C311.7 376.2 307.7 373.0 305.0 370.8C302.3 368.6 301.3 367.6 298.8 365.0C296.3 362.4 292.3 357.8 290.0 355.1C287.7 352.3 286.8 351.1 285.0 348.5C283.2 346.0 281.2 343.1 279.1 340.0C277.1 336.9 274.8 333.3 272.7 330.0C270.7 326.7 268.7 323.3 266.7 320.0C264.7 316.7 262.6 313.2 260.7 310.0C258.7 306.8 256.8 303.5 255.0 300.6C253.2 297.7 251.7 295.2 250.0 292.6C248.3 289.9 246.9 287.6 245.0 284.7C243.1 281.7 240.8 278.3 238.6 275.0C236.4 271.7 234.0 268.2 231.7 265.0C229.5 261.8 227.0 258.3 225.0 255.7C223.0 253.0 222.0 251.5 220.0 248.9C218.0 246.3 215.6 243.2 213.2 240.0C210.7 236.8 207.5 232.8 205.3 230.0C203.1 227.2 202.0 226.0 200.0 223.5C198.0 221.0 195.6 218.0 193.1 215.0C190.6 212.0 187.2 207.9 185.0 205.3C182.8 202.6 182.1 201.8 180.0 199.3C177.9 196.7 174.8 193.0 172.3 190.0C169.8 187.0 167.1 183.7 165.0 181.2C162.9 178.7 162.1 177.7 160.0 175.0C157.8 172.3 154.4 168.2 152.0 165.0C149.5 161.8 147.0 158.6 145.0 156.0C143.0 153.4 141.9 152.0 140.0 149.3C138.1 146.6 135.6 143.2 133.4 140.0C131.2 136.8 128.9 133.3 126.8 130.0C124.7 126.7 122.6 123.3 120.7 120.0C118.8 116.7 117.0 113.3 115.4 110.0C113.7 106.7 112.2 103.3 110.8 100.0C109.4 96.7 108.1 93.3 107.0 90.0C105.8 86.7 104.9 84.2 104.0 80.0C103.1 75.8 101.9 70.0 101.4 65.0C100.9 60.0 100.7 55.0 100.9 50.0C101.2 45.0 102.1 39.2 102.8 35.0C103.5 30.8 104.1 28.8 105.3 25.0C106.5 21.2 108.4 16.3 110.0 12.5C111.6 8.7 114.0 4.2 115.0 2.2C116.0 0.1 116.0 0.4 116.2 0.0"/><path d="M0.0 412.0C2.5 412.4 10.8 413.4 15.0 414.1C19.2 414.7 20.8 415.1 25.0 416.0C29.2 416.9 35.8 418.5 40.0 419.6C44.2 420.6 46.7 421.4 50.0 422.3C53.3 423.3 56.0 424.1 60.0 425.4C64.0 426.7 69.6 428.6 73.8 430.0C77.9 431.4 81.5 432.7 85.0 434.0C88.5 435.2 91.7 436.4 95.0 437.6C98.3 438.8 101.7 440.1 105.0 441.3C108.3 442.6 111.1 443.6 115.0 445.1C118.9 446.5 124.1 448.5 128.3 450.0C132.4 451.5 136.4 453.0 140.0 454.3C143.6 455.6 146.7 456.7 150.0 457.8C153.3 459.0 156.5 460.1 160.0 461.3C163.5 462.5 166.9 463.6 171.1 465.0C175.2 466.4 181.0 468.2 185.0 469.5C189.0 470.8 191.7 471.6 195.0 472.7C198.3 473.7 201.2 474.6 205.0 475.8C208.8 477.1 213.8 478.6 218.0 480.0C222.1 481.4 226.3 482.8 230.0 484.0C233.7 485.3 236.7 486.4 240.0 487.6C243.3 488.9 246.7 490.2 250.0 491.5C253.3 492.9 256.7 494.3 260.0 495.8C263.3 497.3 266.7 498.9 270.0 500.5C273.3 502.1 276.7 503.8 280.0 505.6C283.3 507.3 286.7 509.1 290.0 511.0C293.3 512.9 296.7 514.9 300.0 516.8C303.3 518.8 306.7 520.9 310.0 523.0C313.3 525.1 316.9 527.3 320.0 529.4C323.1 531.4 325.9 533.2 328.6 535.0C331.3 536.8 333.4 538.2 336.1 540.0C338.9 541.8 341.9 543.8 345.0 545.9C348.1 548.1 351.7 550.5 355.0 552.7C358.3 555.0 362.0 557.6 365.0 559.6C368.0 561.7 370.3 563.3 372.8 565.0C375.3 566.7 377.1 568.0 380.0 570.0C382.9 572.0 386.7 574.6 390.0 576.9C393.3 579.2 396.9 581.7 400.0 583.9C403.1 586.1 406.1 588.1 408.8 590.0C411.4 591.9 413.3 593.1 416.0 595.0C418.7 596.9 421.8 599.0 425.0 601.2C428.2 603.4 431.7 605.8 435.0 608.0C438.3 610.3 442.0 612.7 445.0 614.7C448.0 616.7 450.4 618.3 453.1 620.0C455.7 621.7 458.0 623.2 460.9 625.0C463.7 626.8 466.8 628.7 470.0 630.7C473.2 632.6 476.7 634.7 480.0 636.6C483.3 638.5 486.7 640.4 490.0 642.2C493.3 644.1 496.7 645.8 500.0 647.6C503.3 649.3 506.7 650.9 510.0 652.5C513.3 654.1 516.7 655.7 520.0 657.2C523.3 658.7 526.7 660.1 530.0 661.5C533.3 662.9 536.4 664.2 540.0 665.6C543.6 667.0 547.5 668.5 551.6 670.0C555.8 671.5 561.1 673.4 565.0 674.7C568.9 676.1 571.7 677.0 575.0 678.1C578.3 679.2 581.5 680.2 585.0 681.3C588.5 682.5 592.1 683.6 596.3 685.0C600.4 686.4 606.0 688.2 610.0 689.5C614.0 690.9 616.7 691.8 620.0 693.0C623.3 694.2 626.7 695.5 630.0 696.8C633.3 698.1 636.7 699.4 640.0 700.9C643.3 702.4 646.7 703.9 650.0 705.5C653.3 707.2 656.7 708.9 660.0 710.8C663.3 712.7 666.7 714.8 670.0 717.0C673.3 719.3 677.3 722.3 680.0 724.4C682.7 726.6 683.9 727.6 686.4 730.0C688.9 732.4 692.7 736.2 695.0 738.7C697.3 741.2 698.2 742.3 700.4 745.0C702.5 747.7 705.5 751.7 707.8 755.0C710.2 758.3 712.4 761.8 714.4 765.0C716.5 768.2 718.2 771.2 720.0 774.1C721.8 777.0 723.3 779.7 725.0 782.5C726.7 785.3 728.2 788.0 730.0 790.9C731.8 793.8 733.5 796.8 735.5 800.0C737.5 803.2 739.7 806.7 741.8 810.0C744.0 813.3 746.4 816.8 748.6 820.0C750.8 823.2 753.1 826.4 755.0 829.0C756.9 831.6 758.0 833.0 760.0 835.7C762.0 838.4 764.8 841.9 767.3 845.0C769.8 848.1 772.9 851.8 775.0 854.4C777.1 856.9 777.8 857.7 780.0 860.3C782.2 862.9 786.0 867.2 788.5 870.0C791.0 872.8 792.8 874.8 795.0 877.3C797.2 879.8 799.4 882.2 801.9 885.0C804.4 887.8 807.7 891.5 810.0 894.0C812.3 896.5 813.8 898.2 815.4 900.0C817.0 901.8 819.1 904.2 819.9 905.0"/><path d="M1006.6 0.0C1006.6 2.5 1006.5 10.0 1006.5 15.0C1006.4 20.0 1006.3 25.0 1006.3 30.0C1006.3 35.0 1006.3 40.0 1006.4 45.0C1006.4 50.0 1006.6 55.0 1006.8 60.0C1007.0 65.0 1007.3 70.0 1007.6 75.0C1008.0 80.0 1008.6 85.8 1008.9 90.0C1009.3 94.2 1009.5 95.8 1010.0 100.0C1010.5 104.2 1011.2 110.0 1011.8 115.0C1012.4 120.0 1013.0 125.0 1013.5 130.0C1014.0 135.0 1014.5 140.0 1014.7 145.0C1014.9 150.0 1015.1 155.0 1014.8 160.0C1014.6 165.0 1014.0 170.5 1013.2 175.0C1012.4 179.5 1011.4 183.1 1010.0 187.0C1008.6 190.8 1006.7 194.9 1005.0 198.0C1003.3 201.1 1002.1 202.9 1000.0 205.8C997.9 208.6 994.6 212.4 992.1 215.0C989.6 217.6 987.9 219.2 985.0 221.5C982.1 223.9 978.1 227.0 975.0 229.3C971.9 231.5 969.3 233.2 966.5 235.0C963.7 236.8 961.2 238.3 958.4 240.0C955.6 241.7 952.8 243.3 949.7 245.0C946.6 246.7 943.3 248.6 940.0 250.4C936.7 252.2 933.3 254.0 930.0 255.9C926.7 257.7 923.3 259.5 920.0 261.3C916.7 263.2 913.3 265.0 910.0 266.9C906.7 268.8 903.3 270.7 900.0 272.6C896.7 274.5 893.3 276.5 890.0 278.5C886.7 280.4 883.1 282.6 880.0 284.5C876.9 286.5 874.0 288.3 871.3 290.0C868.5 291.7 866.2 293.2 863.5 295.0C860.8 296.8 858.1 298.5 855.0 300.6C851.9 302.6 848.3 305.1 845.0 307.4C841.7 309.6 838.0 312.2 835.0 314.3C832.0 316.4 829.5 318.2 827.0 320.0C824.4 321.8 822.8 323.0 820.0 325.0C817.2 327.0 813.3 329.8 810.0 332.3C806.7 334.7 802.9 337.5 800.0 339.6C797.1 341.7 795.2 343.1 792.7 345.0C790.2 346.9 787.9 348.5 785.0 350.7C782.1 352.9 778.2 355.7 775.0 358.1C771.8 360.5 768.3 363.0 765.6 365.0C762.9 367.0 761.3 368.1 758.7 370.0C756.1 371.9 753.1 374.1 750.0 376.3C746.9 378.5 743.3 381.0 740.0 383.3C736.7 385.6 733.0 388.0 730.1 390.0C727.1 392.0 725.0 393.3 722.4 395.0C719.8 396.7 717.3 398.2 714.4 400.0C711.5 401.8 708.2 403.7 705.0 405.6C701.8 407.4 698.3 409.3 695.0 411.1C691.7 412.8 688.3 414.5 685.0 416.1C681.7 417.6 678.7 419.0 675.0 420.5C671.3 422.0 667.1 423.6 663.0 425.0C658.8 426.4 653.8 427.8 650.0 428.8C646.2 429.9 644.2 430.3 640.0 431.0C635.8 431.7 630.0 432.6 625.0 433.0C620.0 433.4 615.0 433.6 610.0 433.5C605.0 433.4 600.0 433.1 595.0 432.6C590.0 432.1 584.2 431.1 580.0 430.4C575.8 429.7 573.8 429.2 570.0 428.3C566.2 427.4 561.3 426.2 557.1 425.0C553.0 423.8 548.7 422.5 545.0 421.3C541.3 420.2 538.3 419.1 535.0 418.0C531.7 416.8 528.6 415.7 525.0 414.4C521.4 413.1 517.4 411.6 513.3 410.0C509.3 408.4 504.4 406.5 500.5 405.0C496.6 403.5 493.4 402.2 490.0 400.9C486.6 399.5 483.3 398.3 480.0 397.0C476.7 395.7 473.3 394.4 470.0 393.1C466.7 391.8 463.6 390.6 460.0 389.3C456.4 387.9 452.5 386.5 448.4 385.0C444.2 383.5 438.9 381.6 435.0 380.2C431.1 378.9 428.3 377.9 425.0 376.8C421.7 375.6 418.3 374.5 415.0 373.4C411.7 372.3 409.1 371.4 405.0 370.0C400.9 368.6 394.7 366.5 390.5 365.0C386.3 363.5 383.4 362.5 380.0 361.2C376.6 359.9 373.3 358.7 370.0 357.3C366.7 355.9 363.3 354.5 360.0 353.0C356.7 351.5 353.3 349.9 350.0 348.2C346.7 346.5 343.3 344.6 340.0 342.6C336.7 340.7 333.1 338.3 330.0 336.2C326.9 334.1 324.0 331.9 321.5 330.0C319.0 328.1 317.8 327.1 315.0 324.7C312.2 322.3 307.6 318.1 305.0 315.7C302.4 313.2 301.8 312.6 299.3 310.0C296.8 307.4 292.4 302.8 290.0 300.3C287.6 297.8 287.3 297.4 285.0 294.8C282.7 292.3 278.8 287.8 276.3 285.0C273.8 282.2 272.2 280.3 270.0 277.8C267.8 275.3 265.8 272.9 263.3 270.0C260.8 267.1 257.2 263.0 255.0 260.4C252.8 257.8 252.2 257.2 250.0 254.6C247.8 252.1 244.1 247.8 241.6 245.0C239.1 242.2 237.2 240.1 235.0 237.6C232.8 235.1 230.8 232.8 228.3 230.0C225.8 227.2 222.2 223.2 220.0 220.7C217.8 218.2 217.3 217.6 215.0 215.0C212.6 212.4 208.5 207.8 206.0 205.0C203.5 202.2 202.2 200.7 200.0 198.2C197.8 195.7 195.3 192.9 192.8 190.0C190.3 187.1 187.1 183.5 185.0 181.0C182.9 178.5 182.2 177.7 179.9 175.0C177.7 172.3 174.2 168.1 171.7 165.0C169.2 161.9 166.9 159.1 165.0 156.5C163.1 154.0 162.0 152.7 160.0 150.0C158.0 147.2 155.1 143.3 152.8 140.0C150.5 136.7 148.3 133.3 146.2 130.0C144.0 126.7 142.0 123.3 140.1 120.0C138.3 116.7 136.6 113.6 135.0 110.3C133.4 106.9 131.8 103.4 130.4 100.0C129.0 96.6 127.8 93.3 126.8 90.0C125.8 86.7 124.9 84.2 124.1 80.0C123.3 75.8 122.3 70.0 122.0 65.0C121.7 60.0 121.8 54.9 122.3 50.0C122.8 45.1 124.0 39.7 125.0 35.5C126.0 31.3 127.1 28.4 128.4 25.0C129.8 21.6 131.2 18.3 132.9 15.0C134.6 11.7 137.1 7.5 138.6 5.0C140.0 2.5 141.3 0.8 141.8 0.0"/><path d="M0.0 437.2C2.5 437.6 10.8 438.5 15.0 439.2C19.2 439.8 20.8 440.2 25.0 441.1C29.2 442.0 35.8 443.7 40.0 444.8C44.2 445.9 46.7 446.7 50.0 447.8C53.3 448.8 56.5 449.9 60.0 451.1C63.5 452.3 66.9 453.5 70.9 455.0C74.8 456.5 79.7 458.4 83.7 460.0C87.8 461.6 91.5 463.1 95.0 464.6C98.5 466.1 101.7 467.4 105.0 468.9C108.3 470.3 111.7 471.7 115.0 473.2C118.3 474.6 121.7 476.1 125.0 477.6C128.3 479.0 131.7 480.5 135.0 482.0C138.3 483.4 141.7 484.9 145.0 486.4C148.3 487.8 151.7 489.3 155.0 490.7C158.3 492.2 161.4 493.5 165.0 495.1C168.6 496.6 172.7 498.3 176.5 500.0C180.4 501.7 184.4 503.3 188.3 505.0C192.2 506.7 196.4 508.4 200.0 509.9C203.6 511.5 206.7 512.8 210.0 514.2C213.3 515.6 216.7 517.0 220.0 518.4C223.3 519.9 226.7 521.3 230.0 522.8C233.3 524.2 236.7 525.7 240.0 527.2C243.3 528.7 246.7 530.2 250.0 531.8C253.3 533.3 256.7 534.9 260.0 536.5C263.3 538.1 266.7 539.7 270.0 541.4C273.3 543.1 276.7 544.8 280.0 546.5C283.3 548.2 286.7 550.0 290.0 551.8C293.3 553.6 296.7 555.4 300.0 557.3C303.3 559.1 306.7 561.0 310.0 563.0C313.3 564.9 316.7 566.9 320.0 568.9C323.3 570.9 327.0 573.1 330.0 575.0C333.0 576.8 335.4 578.3 338.0 580.0C340.6 581.7 342.9 583.2 345.8 585.0C348.6 586.8 351.8 588.9 355.0 591.1C358.2 593.2 361.7 595.5 365.0 597.8C368.3 600.1 372.1 602.7 375.0 604.7C377.9 606.8 380.0 608.2 382.5 610.0C385.0 611.8 387.1 613.3 390.0 615.3C392.9 617.4 396.7 620.1 400.0 622.5C403.3 624.9 407.1 627.6 410.0 629.7C412.9 631.8 414.8 633.2 417.3 635.0C419.8 636.8 422.1 638.4 425.0 640.5C427.9 642.5 431.7 645.2 435.0 647.5C438.3 649.8 441.9 652.2 445.0 654.3C448.1 656.3 451.0 658.2 453.8 660.0C456.6 661.8 459.0 663.3 461.8 665.0C464.5 666.7 467.0 668.2 470.1 670.0C473.1 671.8 476.7 673.8 480.0 675.7C483.3 677.5 486.7 679.3 490.0 681.0C493.3 682.7 496.7 684.4 500.0 686.0C503.3 687.6 506.7 689.2 510.0 690.7C513.3 692.3 516.4 693.6 520.0 695.2C523.6 696.7 527.4 698.4 531.4 700.0C535.4 701.6 539.9 703.4 543.8 705.0C547.8 706.6 551.5 708.0 555.0 709.4C558.5 710.8 561.7 712.0 565.0 713.3C568.3 714.6 571.7 715.9 575.0 717.2C578.3 718.5 581.7 719.8 585.0 721.2C588.3 722.6 591.7 724.0 595.0 725.5C598.3 726.9 601.7 728.4 605.0 730.0C608.4 731.6 611.7 733.2 615.1 735.0C618.4 736.8 621.7 738.5 625.0 740.5C628.3 742.5 631.7 744.6 635.0 746.8C638.3 749.1 642.1 751.9 645.0 754.1C647.9 756.3 649.6 757.8 652.1 760.0C654.6 762.2 657.4 764.8 660.0 767.3C662.6 769.8 665.0 772.3 667.5 775.0C670.0 777.7 672.8 781.0 675.0 783.5C677.2 786.0 678.2 787.2 680.4 790.0C682.6 792.8 685.9 796.9 688.4 800.0C690.8 803.1 693.0 806.0 695.0 808.5C697.0 811.0 697.9 812.2 700.1 815.0C702.2 817.8 705.5 821.9 708.0 825.0C710.5 828.1 713.0 831.2 715.0 833.7C717.0 836.2 717.9 837.3 720.2 840.0C722.5 842.7 726.3 847.1 728.7 850.0C731.2 852.9 732.8 854.7 735.0 857.2C737.2 859.7 739.4 862.2 741.9 865.0C744.4 867.8 747.8 871.5 750.0 874.0C752.2 876.5 753.0 877.3 755.4 880.0C757.7 882.7 761.9 887.3 764.3 890.0C766.8 892.7 767.8 893.9 770.0 896.4C772.2 898.9 776.2 903.6 777.5 905.0"/><path d="M981.6 0.0C981.5 2.5 981.3 10.0 981.2 15.0C981.0 20.0 980.8 25.0 980.7 30.0C980.5 35.0 980.4 40.0 980.3 45.0C980.2 50.0 980.1 55.0 980.1 60.0C980.1 65.0 980.2 70.0 980.3 75.0C980.4 80.0 980.6 85.0 980.9 90.0C981.1 95.0 981.4 100.0 981.6 105.0C981.8 110.0 982.1 115.0 982.3 120.0C982.5 125.0 982.7 130.0 982.7 135.0C982.6 140.0 982.5 145.0 982.1 150.0C981.7 155.0 980.8 160.7 980.0 164.8C979.2 169.0 978.4 171.6 977.3 175.0C976.1 178.4 974.8 181.7 973.2 185.0C971.5 188.3 969.6 191.7 967.4 195.0C965.2 198.3 962.1 202.0 960.0 204.5C957.9 207.0 957.4 207.6 954.9 210.0C952.4 212.4 947.9 216.6 945.0 219.1C942.1 221.6 940.3 223.1 937.8 225.0C935.3 226.9 933.0 228.7 930.0 230.8C927.0 232.9 923.3 235.6 920.0 237.9C916.7 240.2 913.0 242.7 910.0 244.7C907.0 246.7 904.7 248.3 902.1 250.0C899.5 251.7 897.4 253.1 894.6 255.0C891.7 256.9 888.3 259.2 885.0 261.4C881.7 263.6 878.3 265.9 875.0 268.1C871.7 270.4 867.9 273.0 865.0 275.0C862.1 277.0 860.3 278.3 857.8 280.0C855.3 281.7 853.0 283.3 850.0 285.4C847.0 287.5 843.3 290.1 840.0 292.5C836.7 294.9 832.9 297.6 830.0 299.7C827.1 301.8 825.1 303.2 822.6 305.0C820.1 306.8 817.9 308.4 815.0 310.6C812.1 312.7 808.3 315.4 805.0 317.8C801.7 320.3 798.0 323.0 795.2 325.0C792.4 327.0 790.9 328.2 788.3 330.0C785.8 331.8 783.1 333.8 780.0 336.0C776.9 338.2 773.3 340.9 770.0 343.2C766.7 345.5 763.2 348.0 760.4 350.0C757.5 352.0 755.7 353.3 753.1 355.0C750.5 356.7 748.0 358.5 745.0 360.5C742.0 362.5 738.3 364.9 735.0 367.0C731.7 369.2 728.3 371.2 725.0 373.3C721.7 375.3 718.3 377.3 715.0 379.2C711.7 381.1 708.3 382.9 705.0 384.7C701.7 386.4 698.3 388.1 695.0 389.7C691.7 391.3 688.3 392.8 685.0 394.3C681.7 395.7 678.3 397.0 675.0 398.3C671.7 399.5 668.7 400.6 665.0 401.7C661.3 402.8 656.9 404.0 652.8 405.0C648.6 406.0 644.6 406.8 640.0 407.5C635.4 408.2 630.0 408.8 625.0 409.0C620.0 409.3 615.0 409.3 610.0 409.1C605.0 408.9 600.0 408.5 595.0 407.9C590.0 407.3 584.2 406.2 580.0 405.4C575.8 404.6 573.5 404.0 570.0 403.1C566.5 402.2 563.0 401.3 558.8 400.0C554.7 398.7 549.0 396.9 545.0 395.6C541.0 394.2 538.3 393.2 535.0 392.0C531.7 390.8 528.3 389.5 525.0 388.2C521.7 386.9 518.3 385.5 515.0 384.2C511.7 382.8 508.6 381.5 504.9 380.0C501.3 378.5 497.0 376.7 493.1 375.0C489.1 373.3 485.1 371.6 481.3 370.0C477.5 368.4 473.6 366.7 470.0 365.2C466.4 363.7 463.3 362.4 460.0 361.0C456.7 359.6 453.3 358.2 450.0 356.9C446.7 355.5 443.3 354.1 440.0 352.8C436.7 351.4 433.3 350.1 430.0 348.7C426.7 347.3 423.6 346.1 420.0 344.6C416.4 343.2 412.5 341.6 408.7 340.0C404.8 338.4 400.6 336.7 396.7 335.0C392.8 333.3 388.9 331.6 385.3 330.0C381.7 328.4 378.4 326.8 375.0 325.2C371.6 323.6 368.3 321.9 365.0 320.2C361.7 318.5 358.4 316.7 355.4 315.0C352.3 313.3 349.6 311.7 346.9 310.0C344.1 308.3 341.8 306.8 339.0 305.0C336.1 303.2 333.2 301.2 330.0 298.9C326.8 296.7 323.0 293.8 320.0 291.5C317.0 289.2 314.3 287.0 311.8 285.0C309.3 283.0 307.8 281.7 305.0 279.3C302.2 276.9 297.7 273.0 295.0 270.6C292.3 268.2 291.3 267.3 288.8 265.0C286.3 262.7 282.7 259.3 280.0 256.8C277.3 254.3 275.3 252.4 272.8 250.0C270.3 247.6 267.6 245.0 265.0 242.5C262.4 240.0 259.9 237.5 257.4 235.0C254.9 232.5 252.5 230.1 250.0 227.6C247.5 225.1 244.9 222.5 242.4 220.0C239.9 217.5 237.4 215.0 235.0 212.5C232.6 210.0 230.3 207.6 227.8 205.0C225.3 202.4 222.4 199.3 220.0 196.8C217.6 194.3 216.2 192.7 213.7 190.0C211.2 187.3 207.3 183.0 205.0 180.5C202.7 178.0 202.2 177.4 200.0 174.8C197.8 172.3 194.1 168.0 191.6 165.0C189.1 162.0 187.0 159.4 185.0 156.9C183.0 154.4 181.7 152.8 179.6 150.0C177.5 147.2 174.6 143.3 172.3 140.0C170.0 136.7 167.7 133.2 165.6 130.0C163.6 126.8 161.8 123.7 160.0 120.6C158.2 117.4 156.6 114.4 155.0 111.0C153.4 107.6 151.6 103.5 150.2 100.0C148.8 96.5 147.8 93.3 146.9 90.0C145.9 86.7 145.1 84.2 144.5 80.0C143.9 75.8 143.1 70.0 143.1 65.0C143.0 60.0 143.6 54.2 144.2 50.0C144.8 45.8 145.5 43.3 146.5 40.0C147.5 36.7 148.7 33.3 150.1 30.0C151.5 26.7 153.2 23.3 155.0 19.9C156.8 16.6 158.9 13.3 161.1 10.0C163.4 6.7 167.3 1.7 168.6 0.0"/><path d="M0.0 462.7C2.5 463.0 10.8 463.9 15.0 464.5C19.2 465.1 20.8 465.4 25.0 466.3C29.2 467.2 35.8 468.9 40.0 470.0C44.2 471.1 46.7 471.9 50.0 473.0C53.3 474.0 56.7 475.2 60.0 476.4C63.3 477.5 66.3 478.6 70.0 480.1C73.7 481.5 78.2 483.3 82.2 485.0C86.2 486.7 90.1 488.3 93.9 490.0C97.7 491.7 101.5 493.4 105.0 495.0C108.5 496.6 111.7 498.0 115.0 499.6C118.3 501.1 121.7 502.7 125.0 504.3C128.3 505.8 131.7 507.4 135.0 509.0C138.3 510.6 141.7 512.2 145.0 513.7C148.3 515.3 151.7 516.9 155.0 518.5C158.3 520.0 161.7 521.6 165.0 523.2C168.3 524.7 171.7 526.3 175.0 527.9C178.3 529.4 181.7 531.0 185.0 532.5C188.3 534.1 191.7 535.6 195.0 537.1C198.3 538.7 201.7 540.2 205.0 541.8C208.3 543.3 211.7 544.9 215.0 546.4C218.3 548.0 221.7 549.5 225.0 551.1C228.3 552.7 231.7 554.3 235.0 555.8C238.3 557.4 241.7 559.1 245.0 560.7C248.3 562.3 251.7 564.0 255.0 565.6C258.3 567.3 261.7 569.0 265.0 570.8C268.3 572.5 271.7 574.2 275.0 576.0C278.3 577.8 281.7 579.7 285.0 581.5C288.3 583.4 291.7 585.3 295.0 587.2C298.3 589.2 301.7 591.1 305.0 593.2C308.3 595.2 311.9 597.4 315.0 599.4C318.1 601.3 321.0 603.2 323.7 605.0C326.4 606.8 328.5 608.1 331.2 610.0C333.9 611.9 336.9 613.9 340.0 616.1C343.1 618.3 346.8 621.0 350.0 623.3C353.2 625.6 356.5 628.0 359.1 630.0C361.7 632.0 363.0 633.0 365.6 635.0C368.3 637.0 371.8 639.8 375.0 642.3C378.2 644.8 382.1 647.9 384.8 650.0C387.5 652.1 388.6 653.0 391.2 655.0C393.7 657.0 396.9 659.5 400.0 662.0C403.1 664.4 407.1 667.5 410.0 669.7C412.9 671.8 414.6 673.2 417.1 675.0C419.6 676.8 422.0 678.6 425.0 680.7C428.0 682.8 431.7 685.4 435.0 687.6C438.3 689.9 441.7 692.1 445.0 694.1C448.3 696.2 451.6 698.2 454.7 700.0C457.8 701.8 460.4 703.3 463.5 705.0C466.5 706.7 469.6 708.3 472.8 710.0C476.0 711.7 479.3 713.3 482.7 715.0C486.0 716.7 489.5 718.3 493.1 720.0C496.7 721.7 500.4 723.4 504.1 725.0C507.7 726.6 511.5 728.3 515.0 729.8C518.5 731.4 521.7 732.7 525.0 734.2C528.3 735.6 531.7 737.0 535.0 738.5C538.3 739.9 541.7 741.4 545.0 742.9C548.3 744.3 551.7 745.8 555.0 747.4C558.3 748.9 561.7 750.5 565.0 752.1C568.3 753.7 571.7 755.4 575.0 757.1C578.3 758.9 581.7 760.6 585.0 762.5C588.3 764.4 591.7 766.4 595.0 768.5C598.3 770.5 602.1 773.1 605.0 775.0C607.8 776.9 609.4 778.1 611.9 780.0C614.4 781.9 617.0 783.8 620.0 786.3C623.0 788.8 627.4 792.5 630.0 794.8C632.6 797.1 633.1 797.6 635.6 800.0C638.1 802.4 642.5 806.6 645.0 809.1C647.5 811.6 648.3 812.4 650.8 815.0C653.3 817.6 657.6 822.1 660.0 824.6C662.4 827.1 662.7 827.4 665.1 830.0C667.5 832.6 672.0 837.3 674.5 840.0C676.9 842.7 677.7 843.4 680.0 845.9C682.3 848.4 686.0 852.3 688.5 855.0C691.0 857.7 692.6 859.4 695.0 861.9C697.4 864.4 700.1 867.3 702.6 870.0C705.1 872.7 707.7 875.4 710.0 877.9C712.3 880.4 714.1 882.3 716.6 885.0C719.1 887.7 722.7 891.7 725.0 894.2C727.3 896.7 728.6 898.2 730.2 900.0C731.8 901.8 733.8 904.2 734.5 905.0"/><path d="M957.6 0.0C957.5 2.5 957.2 10.0 957.0 15.0C956.8 20.0 956.5 25.0 956.3 30.0C956.0 35.0 955.7 40.4 955.5 45.0C955.3 49.6 955.1 53.3 955.0 57.5C954.9 61.6 954.7 65.4 954.6 70.0C954.5 74.6 954.5 80.0 954.4 85.0C954.4 90.0 954.4 95.0 954.3 100.0C954.3 105.0 954.3 110.0 954.1 115.0C954.0 120.0 953.9 125.0 953.5 130.0C953.1 135.0 952.5 140.8 951.9 145.0C951.4 149.2 951.1 151.2 950.0 155.3C948.9 159.5 947.0 165.9 945.5 170.0C944.0 174.1 942.8 176.7 941.0 180.0C939.3 183.3 936.9 187.2 935.0 190.0C933.2 192.8 932.0 194.3 930.0 196.8C928.0 199.3 925.6 202.3 923.1 205.0C920.6 207.7 917.5 210.8 915.0 213.3C912.5 215.8 910.3 217.8 907.8 220.0C905.3 222.2 903.0 224.3 900.0 226.8C897.0 229.3 892.7 232.8 890.0 235.0C887.3 237.2 886.2 238.0 883.7 240.0C881.2 242.0 878.1 244.4 875.0 246.8C871.9 249.2 867.9 252.2 865.0 254.4C862.1 256.6 860.2 258.1 857.7 260.0C855.2 261.9 852.9 263.6 850.0 265.8C847.1 268.0 843.1 271.0 840.0 273.3C836.9 275.7 833.7 278.1 831.1 280.0C828.5 281.9 827.1 283.0 824.5 285.0C821.8 287.0 818.2 289.6 815.0 292.1C811.8 294.5 807.9 297.3 805.0 299.5C802.1 301.6 800.0 303.2 797.5 305.0C795.0 306.8 792.9 308.4 790.0 310.5C787.1 312.6 783.3 315.3 780.0 317.7C776.7 320.1 772.9 322.7 770.0 324.8C767.1 326.8 764.9 328.3 762.4 330.0C759.9 331.7 757.9 333.1 755.0 335.0C752.1 337.0 748.3 339.4 745.0 341.6C741.7 343.7 738.3 345.8 735.0 347.9C731.7 349.9 728.3 351.9 725.0 353.8C721.7 355.8 718.3 357.6 715.0 359.4C711.7 361.2 708.3 363.0 705.0 364.6C701.7 366.3 698.3 367.8 695.0 369.3C691.7 370.8 688.3 372.2 685.0 373.5C681.7 374.9 678.3 376.1 675.0 377.2C671.7 378.3 669.2 379.2 665.0 380.3C660.8 381.4 654.2 383.0 650.0 383.8C645.8 384.6 644.2 384.9 640.0 385.4C635.8 385.8 630.0 386.3 625.0 386.5C620.0 386.6 614.5 386.5 610.0 386.2C605.5 386.0 602.0 385.6 597.8 385.0C593.7 384.4 589.2 383.7 585.0 382.9C580.8 382.0 576.9 381.1 572.7 380.0C568.6 378.9 563.8 377.5 560.0 376.4C556.2 375.2 553.3 374.2 550.0 373.0C546.7 371.9 543.5 370.7 540.0 369.4C536.5 368.1 532.7 366.6 528.8 365.0C524.9 363.4 520.7 361.7 516.8 360.0C512.9 358.3 508.9 356.6 505.2 355.0C501.6 353.4 498.4 352.0 495.0 350.5C491.6 349.0 488.3 347.5 485.0 346.0C481.7 344.5 478.3 343.0 475.0 341.5C471.7 340.0 468.3 338.5 465.0 337.0C461.7 335.5 458.3 334.0 455.0 332.5C451.7 331.0 448.3 329.6 445.0 328.1C441.7 326.6 438.3 325.1 435.0 323.7C431.7 322.2 428.3 320.7 425.0 319.2C421.7 317.8 418.4 316.3 415.0 314.8C411.6 313.2 408.0 311.6 404.4 310.0C400.9 308.4 397.2 306.7 393.6 305.0C390.1 303.3 386.6 301.7 383.2 300.0C379.8 298.3 376.5 296.7 373.3 295.0C370.1 293.3 366.9 291.7 363.9 290.0C360.8 288.3 358.0 286.8 354.9 285.0C351.8 283.2 348.3 281.2 345.0 279.1C341.7 277.1 338.3 275.0 335.0 272.8C331.7 270.7 328.1 268.3 325.0 266.1C321.9 264.0 318.9 261.9 316.4 260.0C313.8 258.1 312.3 257.1 309.6 255.0C306.9 252.9 303.2 250.2 300.0 247.7C296.8 245.2 293.1 242.1 290.5 240.0C287.9 237.9 287.0 237.2 284.5 235.0C281.9 232.8 277.9 229.4 275.0 226.9C272.1 224.4 269.6 222.2 267.1 220.0C264.6 217.8 262.7 216.1 260.0 213.6C257.3 211.1 253.3 207.4 250.8 205.0C248.3 202.6 247.6 201.9 245.0 199.4C242.4 196.9 238.0 192.5 235.5 190.0C233.0 187.5 232.4 186.9 230.0 184.4C227.6 181.9 223.6 177.7 221.1 175.0C218.6 172.3 217.2 170.7 215.0 168.2C212.8 165.7 210.4 163.0 207.9 160.0C205.4 157.0 202.2 153.0 200.0 150.2C197.8 147.5 196.8 146.2 195.0 143.6C193.2 141.1 191.0 138.1 188.9 135.0C186.9 131.9 184.6 128.3 182.6 125.0C180.6 121.7 178.8 118.3 177.1 115.0C175.4 111.7 173.9 108.3 172.5 105.0C171.2 101.7 170.1 99.2 169.0 95.0C167.8 90.8 166.3 84.2 165.6 80.0C164.9 75.8 164.9 73.3 164.9 70.0C164.8 66.7 164.7 64.2 165.3 60.0C166.0 55.8 167.4 49.2 168.5 45.0C169.7 40.8 170.9 38.3 172.4 35.0C173.9 31.7 175.6 28.3 177.6 25.0C179.6 21.7 182.2 17.9 184.3 15.0C186.3 12.1 187.9 10.3 190.0 7.8C192.1 5.3 195.7 1.3 196.9 0.0"/><path d="M0.0 489.4C1.7 489.5 5.8 489.6 10.0 490.0C14.2 490.5 20.4 491.4 25.0 492.2C29.6 493.0 33.5 494.0 37.7 495.0C41.8 496.0 46.3 497.3 50.0 498.5C53.7 499.6 56.7 500.6 60.0 501.8C63.3 502.9 66.4 504.1 70.0 505.4C73.6 506.8 77.5 508.4 81.3 510.0C85.2 511.6 89.2 513.3 93.0 515.0C96.8 516.7 100.4 518.3 104.1 520.0C107.7 521.7 111.3 523.3 114.7 525.0C118.2 526.7 121.6 528.3 125.0 529.9C128.4 531.5 131.7 533.1 135.0 534.8C138.3 536.4 141.7 538.0 145.0 539.6C148.3 541.3 151.7 542.9 155.0 544.5C158.3 546.2 161.7 547.8 165.0 549.5C168.3 551.1 171.7 552.7 175.0 554.4C178.3 556.0 181.7 557.6 185.0 559.3C188.3 560.9 191.7 562.6 195.0 564.2C198.3 565.8 201.7 567.5 205.0 569.1C208.3 570.8 211.7 572.5 215.0 574.1C218.3 575.8 221.7 577.5 225.0 579.2C228.3 580.9 231.7 582.6 235.0 584.4C238.3 586.1 241.7 587.9 245.0 589.7C248.3 591.5 251.6 593.3 254.7 595.0C257.8 596.7 260.6 598.3 263.5 600.0C266.4 601.7 269.2 603.3 272.0 605.0C274.7 606.7 277.1 608.1 280.1 610.0C283.1 611.9 286.7 614.2 290.0 616.4C293.3 618.5 296.7 620.9 300.0 623.1C303.3 625.4 306.9 628.0 309.6 630.0C312.3 632.0 313.7 633.0 316.3 635.0C318.9 637.0 321.9 639.3 325.0 641.8C328.1 644.3 332.3 647.8 335.0 650.0C337.6 652.2 338.3 652.8 340.8 655.0C343.3 657.2 347.2 660.6 350.0 663.1C352.8 665.6 355.3 667.7 357.8 670.0C360.3 672.3 362.2 674.1 365.0 676.6C367.8 679.1 371.9 682.8 374.4 685.0C376.9 687.2 377.4 687.7 380.0 690.0C382.6 692.3 387.0 696.0 390.0 698.5C393.0 701.0 395.6 703.0 398.1 705.0C400.6 707.0 402.2 708.2 405.0 710.3C407.8 712.4 411.7 715.1 415.0 717.4C418.3 719.7 421.7 721.8 425.0 723.9C428.3 726.0 431.8 728.1 435.0 729.9C438.2 731.7 441.1 733.3 444.2 735.0C447.3 736.7 450.5 738.3 453.8 740.0C457.1 741.7 460.5 743.3 464.0 745.0C467.5 746.7 471.2 748.4 474.7 750.0C478.2 751.6 481.6 753.1 485.0 754.7C488.4 756.2 491.7 757.6 495.0 759.1C498.3 760.6 501.7 762.1 505.0 763.6C508.3 765.1 511.7 766.6 515.0 768.1C518.3 769.7 521.7 771.2 525.0 772.8C528.3 774.4 531.7 776.0 535.0 777.7C538.3 779.4 541.7 781.1 545.0 782.9C548.3 784.7 551.7 786.5 555.0 788.4C558.3 790.3 561.9 792.5 565.0 794.4C568.1 796.3 571.0 798.2 573.7 800.0C576.4 801.8 578.3 803.1 581.0 805.0C583.7 806.9 586.8 809.2 590.0 811.6C593.2 814.0 597.2 817.2 600.0 819.5C602.8 821.7 604.2 822.9 606.7 825.0C609.2 827.1 612.2 829.7 615.0 832.2C617.8 834.7 621.1 837.7 623.6 840.0C626.1 842.3 627.3 843.4 630.0 845.9C632.7 848.4 637.2 852.6 639.7 855.0C642.2 857.4 642.4 857.6 645.0 860.1C647.6 862.6 652.5 867.4 655.0 869.9C657.5 872.3 657.7 872.5 660.2 875.0C662.7 877.5 667.5 882.4 670.0 884.9C672.5 887.4 672.6 887.6 675.0 890.1C677.4 892.6 682.0 897.5 684.3 900.0C686.6 902.5 688.0 904.2 688.8 905.0"/><path d="M933.6 0.0C933.5 2.5 933.3 10.0 933.1 15.0C932.9 20.0 932.6 25.0 932.3 30.0C932.0 35.0 931.6 40.0 931.3 45.0C931.0 50.0 930.7 55.8 930.4 60.0C930.2 64.2 930.1 65.8 929.9 70.0C929.7 74.2 929.4 80.0 929.2 85.0C928.9 90.0 928.7 95.0 928.4 100.0C928.1 105.0 927.9 110.0 927.4 115.0C927.0 120.0 926.4 125.8 925.8 130.0C925.3 134.2 925.1 135.8 924.2 140.0C923.3 144.2 921.8 150.8 920.6 155.0C919.4 159.2 918.4 161.7 917.0 165.0C915.7 168.3 914.2 171.7 912.4 175.0C910.7 178.3 908.8 181.7 906.7 185.0C904.6 188.3 901.9 191.9 900.0 194.5C898.1 197.2 897.2 198.2 895.0 200.8C892.8 203.4 889.4 207.3 886.9 210.0C884.4 212.7 882.5 214.6 880.0 217.1C877.5 219.6 874.3 222.6 871.8 225.0C869.3 227.4 867.8 228.8 865.0 231.3C862.2 233.8 857.7 237.7 855.1 240.0C852.4 242.3 851.7 242.9 849.2 245.0C846.7 247.1 843.0 250.2 840.0 252.7C837.0 255.2 833.6 257.9 831.0 260.0C828.5 262.1 827.4 262.9 824.8 265.0C822.1 267.1 818.2 270.2 815.0 272.7C811.8 275.2 808.2 277.9 805.5 280.0C802.9 282.1 801.5 283.1 798.9 285.0C796.4 286.9 793.2 289.3 790.0 291.7C786.8 294.0 783.1 296.7 780.0 299.0C776.9 301.2 774.1 303.2 771.5 305.0C768.9 306.8 767.0 308.1 764.3 310.0C761.5 311.9 758.2 314.1 755.0 316.2C751.8 318.3 748.3 320.6 745.0 322.7C741.7 324.8 738.3 326.8 735.0 328.8C731.7 330.8 728.3 332.7 725.0 334.6C721.7 336.4 718.3 338.2 715.0 339.9C711.7 341.6 708.3 343.3 705.0 344.8C701.7 346.4 698.3 347.9 695.0 349.3C691.7 350.7 688.3 352.0 685.0 353.2C681.7 354.5 678.7 355.5 675.0 356.6C671.3 357.8 666.8 359.0 662.7 360.0C658.5 361.0 654.6 361.8 650.0 362.5C645.4 363.2 640.0 363.9 635.0 364.2C630.0 364.6 625.0 364.6 620.0 364.5C615.0 364.4 610.0 364.0 605.0 363.4C600.0 362.9 594.2 361.8 590.0 361.1C585.8 360.3 584.0 359.9 580.0 358.9C576.0 357.8 570.3 356.3 566.1 355.0C562.0 353.7 558.5 352.6 555.0 351.3C551.5 350.1 548.3 349.0 545.0 347.7C541.7 346.4 538.3 345.1 535.0 343.8C531.7 342.4 528.4 341.0 525.0 339.6C521.6 338.1 518.1 336.6 514.5 335.0C510.9 333.4 507.0 331.7 503.4 330.0C499.7 328.3 496.1 326.7 492.5 325.0C488.8 323.3 485.2 321.7 481.6 320.0C478.1 318.3 474.5 316.7 470.9 315.0C467.3 313.3 463.6 311.6 460.1 310.0C456.6 308.4 453.3 306.9 450.0 305.4C446.7 303.8 443.3 302.3 440.0 300.8C436.7 299.2 433.3 297.7 430.0 296.2C426.7 294.7 423.3 293.1 420.0 291.6C416.7 290.1 413.3 288.5 410.0 287.0C406.7 285.4 403.3 283.9 400.0 282.3C396.7 280.7 393.3 279.1 390.0 277.5C386.7 275.9 383.3 274.3 380.0 272.6C376.7 270.9 373.3 269.2 370.0 267.5C366.7 265.8 363.3 264.0 360.0 262.2C356.7 260.4 353.3 258.5 350.0 256.6C346.7 254.7 343.2 252.7 340.0 250.7C336.8 248.8 333.6 246.8 330.8 245.0C327.9 243.2 325.6 241.7 323.0 240.0C320.4 238.3 318.0 236.7 315.0 234.6C312.0 232.5 308.3 230.0 305.0 227.6C301.7 225.1 297.8 222.2 295.0 220.1C292.2 218.0 290.9 217.0 288.4 215.0C285.9 213.0 283.0 210.7 280.0 208.2C277.0 205.7 272.8 202.2 270.2 200.0C267.7 197.8 267.1 197.3 264.6 195.0C262.0 192.7 257.7 188.7 255.0 186.2C252.3 183.7 251.0 182.5 248.5 180.0C246.0 177.5 242.4 173.9 240.0 171.4C237.6 168.9 236.5 167.7 234.0 165.0C231.5 162.3 227.6 157.7 225.2 155.0C222.9 152.3 222.0 151.1 220.0 148.6C218.0 146.1 215.7 143.1 213.5 140.0C211.3 136.9 208.8 133.3 206.7 130.0C204.6 126.7 202.6 123.3 200.8 120.0C199.0 116.7 197.4 113.3 196.0 110.0C194.5 106.7 193.2 103.3 192.1 100.0C191.0 96.7 190.2 94.2 189.4 90.0C188.7 85.8 187.8 80.0 187.7 75.0C187.6 70.0 188.3 64.2 188.9 60.0C189.6 55.8 190.4 53.3 191.5 50.0C192.7 46.7 194.0 43.3 195.6 40.0C197.3 36.7 199.1 33.3 201.2 30.0C203.4 26.7 206.1 23.0 208.3 20.0C210.6 17.0 212.8 14.6 215.0 12.1C217.2 9.6 219.7 7.0 221.7 5.0C223.7 3.0 226.0 0.8 226.9 0.0" class="i"/><path d="M0.0 518.3C2.5 518.3 10.4 518.2 15.0 518.5C19.6 518.8 23.3 519.4 27.4 520.0C31.6 520.6 36.2 521.6 40.0 522.4C43.8 523.3 45.9 523.8 50.1 525.0C54.2 526.2 60.8 528.3 65.0 529.7C69.2 531.1 71.7 532.1 75.0 533.3C78.3 534.6 81.7 536.0 85.0 537.3C88.3 538.7 91.7 540.1 95.0 541.6C98.3 543.0 101.7 544.5 105.0 546.0C108.3 547.5 111.7 549.1 115.0 550.7C118.3 552.2 121.7 553.8 125.0 555.4C128.3 557.1 131.7 558.7 135.0 560.3C138.3 562.0 141.7 563.6 145.0 565.3C148.3 567.0 151.7 568.6 155.0 570.3C158.3 572.0 161.7 573.7 165.0 575.4C168.3 577.1 171.7 578.8 175.0 580.6C178.3 582.3 181.7 584.0 185.0 585.8C188.3 587.5 191.7 589.3 195.0 591.1C198.3 592.8 201.7 594.6 205.0 596.4C208.3 598.3 211.7 600.1 215.0 602.0C218.3 603.8 221.7 605.7 225.0 607.7C228.3 609.6 231.7 611.6 235.0 613.6C238.3 615.6 242.0 617.8 245.0 619.7C248.0 621.6 250.5 623.3 253.1 625.0C255.7 626.7 257.7 628.0 260.5 630.0C263.3 632.0 266.8 634.4 270.0 636.8C273.2 639.2 277.2 642.3 280.0 644.5C282.8 646.7 284.3 647.9 286.8 650.0C289.3 652.1 292.2 654.6 295.0 657.1C297.8 659.6 301.0 662.6 303.5 665.0C306.0 667.4 307.5 668.8 310.0 671.3C312.5 673.8 315.9 677.4 318.4 680.0C320.9 682.6 322.7 684.6 325.0 687.1C327.3 689.6 329.8 692.3 332.3 695.0C334.8 697.7 337.7 701.0 340.0 703.5C342.3 706.0 343.4 707.3 345.9 710.0C348.4 712.7 352.6 717.0 355.0 719.5C357.4 722.0 358.1 722.6 360.6 725.0C363.1 727.4 367.2 731.2 370.0 733.7C372.8 736.2 375.1 738.0 377.6 740.0C380.1 742.0 382.1 743.6 385.0 745.7C387.9 747.8 391.7 750.4 395.0 752.6C398.3 754.8 401.7 756.9 405.0 758.9C408.3 760.8 411.7 762.7 415.0 764.5C418.3 766.3 421.7 768.0 425.0 769.7C428.3 771.4 431.7 773.0 435.0 774.6C438.3 776.1 441.7 777.7 445.0 779.2C448.3 780.7 451.7 782.2 455.0 783.6C458.3 785.1 461.7 786.6 465.0 788.0C468.3 789.5 471.7 791.0 475.0 792.4C478.3 793.9 481.7 795.4 485.0 796.9C488.3 798.4 491.7 799.9 495.0 801.5C498.3 803.1 501.7 804.7 505.0 806.3C508.3 808.0 511.7 809.7 515.0 811.4C518.3 813.2 521.7 815.0 525.0 816.8C528.3 818.7 531.7 820.6 535.0 822.6C538.3 824.6 541.8 826.8 545.0 828.8C548.2 830.9 551.6 833.1 554.3 835.0C557.1 836.9 558.8 838.1 561.4 840.0C564.1 841.9 566.9 844.0 570.0 846.3C573.1 848.6 577.1 851.8 580.0 854.1C582.9 856.3 584.8 857.9 587.3 860.0C589.8 862.1 592.1 864.0 595.0 866.5C597.9 869.0 602.2 872.7 604.7 875.0C607.3 877.3 607.7 877.6 610.2 880.0C612.8 882.4 617.4 886.7 620.0 889.2C622.6 891.7 623.4 892.5 625.9 895.0C628.4 897.5 633.4 902.7 635.0 904.4C636.6 906.0 635.5 904.9 635.6 905.0" class="i"/><path d="M908.9 0.0C908.8 2.5 908.8 10.0 908.7 15.0C908.5 20.0 908.3 25.0 908.0 30.0C907.7 35.0 907.4 40.0 907.1 45.0C906.8 50.0 906.4 55.0 906.1 60.0C905.8 65.0 905.4 70.8 905.1 75.0C904.8 79.2 904.7 80.8 904.4 85.0C904.1 89.2 903.7 95.0 903.2 100.0C902.8 105.0 902.3 110.5 901.7 115.0C901.2 119.5 900.7 122.6 900.0 126.8C899.3 131.0 898.2 136.1 897.3 140.0C896.4 143.9 895.8 146.2 894.6 150.0C893.4 153.8 891.6 158.7 890.0 162.6C888.4 166.4 886.7 170.0 885.0 173.2C883.3 176.4 881.7 179.2 880.0 182.0C878.3 184.8 876.9 187.0 874.8 190.0C872.7 193.0 869.8 196.9 867.3 200.0C864.9 203.1 862.2 206.2 860.0 208.7C857.8 211.2 856.8 212.4 854.3 215.0C851.8 217.6 847.5 222.0 845.0 224.5C842.5 227.0 841.9 227.6 839.4 230.0C836.9 232.4 832.7 236.2 830.0 238.7C827.3 241.2 825.4 242.8 822.9 245.0C820.4 247.2 818.0 249.3 815.0 251.8C812.0 254.3 807.8 257.8 805.1 260.0C802.4 262.2 801.4 263.0 798.9 265.0C796.3 267.0 793.1 269.5 790.0 271.9C786.9 274.3 782.9 277.2 780.0 279.4C777.1 281.6 774.8 283.2 772.3 285.0C769.8 286.8 767.9 288.2 765.0 290.2C762.1 292.1 758.3 294.7 755.0 296.9C751.7 299.1 748.3 301.2 745.0 303.3C741.7 305.4 738.3 307.4 735.0 309.4C731.7 311.3 728.3 313.2 725.0 315.0C721.7 316.8 718.7 318.3 715.4 320.0C712.1 321.7 708.4 323.4 705.0 324.9C701.6 326.5 698.3 327.9 695.0 329.2C691.7 330.5 688.3 331.7 685.0 332.9C681.7 334.0 679.2 334.9 675.0 336.0C670.8 337.2 664.2 338.8 660.0 339.7C655.8 340.5 654.2 340.8 650.0 341.3C645.8 341.8 640.0 342.4 635.0 342.6C630.0 342.8 625.0 342.8 620.0 342.6C615.0 342.3 609.2 341.7 605.0 341.2C600.8 340.7 599.2 340.4 595.0 339.5C590.8 338.7 584.2 337.2 580.0 336.1C575.8 335.1 573.3 334.3 570.0 333.3C566.7 332.2 563.9 331.4 560.0 330.0C556.1 328.6 550.6 326.6 546.4 325.0C542.2 323.4 538.6 321.9 535.0 320.4C531.4 318.9 528.3 317.6 525.0 316.2C521.7 314.7 518.3 313.2 515.0 311.7C511.7 310.2 508.3 308.7 505.0 307.2C501.7 305.7 498.3 304.1 495.0 302.6C491.7 301.0 488.3 299.5 485.0 297.9C481.7 296.4 478.3 294.8 475.0 293.2C471.7 291.7 468.3 290.1 465.0 288.6C461.7 287.0 458.3 285.5 455.0 283.9C451.7 282.4 448.3 280.8 445.0 279.3C441.7 277.8 438.4 276.2 435.0 274.7C431.6 273.1 428.3 271.6 424.8 270.0C421.3 268.4 417.6 266.7 413.9 265.0C410.3 263.3 406.7 261.7 403.2 260.0C399.6 258.3 396.1 256.7 392.6 255.0C389.1 253.3 385.6 251.7 382.2 250.0C378.8 248.3 375.4 246.7 372.2 245.0C368.9 243.3 365.6 241.7 362.5 240.0C359.3 238.3 356.2 236.7 353.1 235.0C350.1 233.3 347.2 231.7 344.2 230.0C341.2 228.3 338.2 226.5 335.0 224.6C331.8 222.7 328.3 220.5 325.0 218.4C321.7 216.3 318.3 214.1 315.0 211.8C311.7 209.6 307.9 207.0 305.2 205.0C302.4 203.0 300.9 201.9 298.3 200.0C295.8 198.1 293.1 196.0 290.0 193.6C286.9 191.2 282.7 187.7 280.0 185.4C277.3 183.2 276.3 182.2 273.8 180.0C271.3 177.8 267.6 174.4 265.0 171.9C262.4 169.4 260.4 167.6 257.9 165.0C255.4 162.4 252.3 159.1 250.0 156.6C247.7 154.1 246.5 152.8 244.2 150.0C242.0 147.2 238.7 143.2 236.3 140.0C233.9 136.8 231.9 133.8 230.0 130.9C228.1 128.0 226.7 125.7 225.0 122.6C223.3 119.6 221.6 116.5 220.0 112.7C218.4 109.0 216.4 103.8 215.2 100.0C214.1 96.2 213.5 94.2 212.9 90.0C212.4 85.8 211.8 80.0 212.1 75.0C212.3 70.0 213.5 64.2 214.5 60.0C215.5 55.8 216.6 53.3 218.0 50.0C219.5 46.7 221.2 43.3 223.1 40.0C225.1 36.7 227.9 32.7 229.8 30.0C231.8 27.3 232.8 26.1 235.0 23.6C237.2 21.1 240.4 17.6 242.9 15.0C245.4 12.4 247.3 10.5 250.0 8.0C252.7 5.5 257.5 1.3 259.0 0.0"/><path d="M0.0 550.8C1.7 550.7 5.8 549.9 10.0 549.7C14.2 549.5 20.8 549.6 25.0 549.7C29.2 549.9 30.8 550.1 35.0 550.7C39.2 551.3 45.8 552.6 50.0 553.5C54.2 554.3 56.2 554.9 60.0 556.0C63.8 557.1 68.7 558.6 72.9 560.0C77.1 561.4 81.3 563.0 85.0 564.4C88.7 565.8 91.7 567.0 95.0 568.4C98.3 569.7 101.7 571.2 105.0 572.6C108.3 574.1 111.7 575.6 115.0 577.2C118.3 578.7 121.7 580.3 125.0 581.9C128.3 583.5 131.7 585.1 135.0 586.8C138.3 588.4 141.7 590.1 145.0 591.8C148.3 593.6 151.7 595.3 155.0 597.1C158.3 598.8 161.7 600.6 165.0 602.4C168.3 604.2 171.7 606.1 175.0 607.9C178.3 609.8 181.7 611.7 185.0 613.6C188.3 615.6 191.9 617.7 195.0 619.6C198.1 621.4 201.1 623.3 203.8 625.0C206.6 626.7 208.9 628.2 211.6 630.0C214.3 631.8 216.9 633.5 220.0 635.6C223.1 637.8 226.8 640.4 230.0 642.8C233.2 645.2 236.8 648.0 239.4 650.0C242.0 652.0 242.9 652.8 245.5 655.0C248.1 657.2 252.3 660.9 255.0 663.4C257.7 665.9 259.4 667.5 261.9 670.0C264.4 672.5 267.7 676.0 270.0 678.5C272.3 681.0 273.4 682.3 275.7 685.0C278.0 687.7 281.5 692.0 283.9 695.0C286.3 698.0 288.1 700.6 290.0 703.1C291.9 705.6 293.0 707.2 295.0 710.0C297.0 712.8 299.7 716.7 302.1 720.0C304.4 723.3 306.9 726.9 309.0 730.0C311.2 733.1 313.2 735.9 315.0 738.4C316.8 740.9 317.8 742.4 320.0 745.1C322.2 747.9 325.4 752.0 327.9 755.0C330.4 758.0 332.7 760.5 335.0 763.0C337.3 765.5 339.3 767.6 341.8 770.0C344.3 772.4 347.1 775.1 350.0 777.6C352.9 780.1 356.4 782.9 359.0 785.0C361.6 787.1 363.1 788.1 365.7 790.0C368.4 791.9 371.8 794.2 375.0 796.3C378.2 798.4 381.7 800.5 385.0 802.5C388.3 804.4 391.7 806.3 395.0 808.1C398.3 809.9 401.7 811.6 405.0 813.3C408.3 815.0 411.7 816.6 415.0 818.2C418.3 819.8 421.7 821.4 425.0 822.9C428.3 824.5 431.7 826.0 435.0 827.6C438.3 829.1 441.7 830.6 445.0 832.1C448.3 833.7 451.7 835.2 455.0 836.8C458.3 838.3 461.7 839.9 465.0 841.5C468.3 843.1 471.7 844.8 475.0 846.5C478.3 848.2 481.7 849.9 485.0 851.7C488.3 853.4 491.7 855.3 495.0 857.2C498.3 859.1 501.7 861.1 505.0 863.1C508.3 865.1 512.0 867.4 515.0 869.4C518.0 871.4 520.7 873.2 523.2 875.0C525.7 876.8 527.3 877.9 530.1 880.0C532.9 882.1 536.9 885.3 540.0 887.8C543.1 890.3 546.1 892.8 548.6 895.0C551.1 897.2 553.2 899.2 555.0 900.9C556.8 902.6 558.5 904.3 559.2 905.0"/><path d="M882.1 0.0C882.2 2.5 882.6 10.0 882.7 15.0C882.8 20.0 882.7 25.0 882.6 30.0C882.5 35.0 882.3 40.0 882.1 45.0C881.9 50.0 881.6 55.0 881.3 60.0C881.0 65.0 880.7 70.8 880.4 75.0C880.1 79.2 880.0 80.8 879.7 85.0C879.4 89.2 878.9 95.0 878.4 100.0C877.9 105.0 877.1 110.8 876.6 115.0C876.0 119.2 875.8 120.8 874.9 125.0C874.1 129.2 872.6 135.8 871.6 140.0C870.5 144.2 869.7 146.7 868.5 150.0C867.4 153.3 866.2 156.6 864.8 160.0C863.3 163.4 861.7 166.9 860.0 170.3C858.3 173.6 856.6 176.7 854.6 180.0C852.7 183.3 850.5 186.7 848.2 190.0C845.8 193.3 842.9 197.2 840.7 200.0C838.6 202.8 837.1 204.5 835.0 207.0C832.9 209.5 830.4 212.3 827.9 215.0C825.4 217.7 822.5 220.7 820.0 223.2C817.5 225.7 815.6 227.6 813.1 230.0C810.6 232.4 807.8 235.0 805.0 237.5C802.2 240.0 799.0 242.8 796.5 245.0C794.0 247.2 792.8 248.2 790.0 250.5C787.2 252.8 783.1 256.1 780.0 258.5C776.9 260.9 774.0 263.1 771.5 265.0C768.9 266.9 767.3 268.1 764.6 270.0C761.8 271.9 758.3 274.4 755.0 276.6C751.7 278.8 748.3 281.0 745.0 283.1C741.7 285.2 738.3 287.2 735.0 289.2C731.7 291.1 728.3 293.0 725.0 294.8C721.7 296.5 718.3 298.3 715.0 299.9C711.7 301.5 708.3 303.0 705.0 304.5C701.7 305.9 698.3 307.3 695.0 308.5C691.7 309.8 688.3 311.0 685.0 312.1C681.7 313.1 679.2 314.0 675.0 315.0C670.8 316.0 664.6 317.5 660.0 318.3C655.4 319.1 651.3 319.6 647.2 320.0C643.0 320.4 639.5 320.7 635.0 320.7C630.5 320.8 624.2 320.6 620.0 320.3C615.8 320.1 614.2 319.9 610.0 319.3C605.8 318.8 599.2 317.6 595.0 316.8C590.8 316.0 589.2 315.6 585.0 314.5C580.8 313.4 574.2 311.5 570.0 310.2C565.8 308.9 563.3 308.0 560.0 306.9C556.7 305.7 553.3 304.4 550.0 303.2C546.7 301.9 543.3 300.6 540.0 299.2C536.7 297.8 533.5 296.5 530.0 295.0C526.4 293.5 522.3 291.7 518.5 290.0C514.8 288.3 511.1 286.7 507.5 285.0C503.8 283.3 500.2 281.7 496.6 280.0C493.0 278.3 489.4 276.7 485.8 275.0C482.2 273.3 478.5 271.6 475.0 270.0C471.5 268.4 468.3 266.9 465.0 265.4C461.7 263.8 458.3 262.3 455.0 260.8C451.7 259.2 448.3 257.7 445.0 256.2C441.7 254.6 438.3 253.1 435.0 251.6C431.7 250.1 428.3 248.6 425.0 247.1C421.7 245.5 418.3 244.0 415.0 242.5C411.7 241.0 408.3 239.5 405.0 237.9C401.7 236.4 398.3 234.8 395.0 233.3C391.7 231.7 388.3 230.1 385.0 228.5C381.7 226.9 378.3 225.3 375.0 223.6C371.7 222.0 368.3 220.3 365.0 218.6C361.7 216.8 358.3 215.1 355.0 213.3C351.7 211.5 348.3 209.6 345.0 207.7C341.7 205.8 338.3 203.8 335.0 201.8C331.7 199.7 328.0 197.4 325.0 195.5C322.0 193.5 319.4 191.7 316.8 190.0C314.3 188.3 312.6 187.1 309.8 185.0C307.0 182.9 303.2 180.0 300.0 177.5C296.8 175.0 293.4 172.1 290.9 170.0C288.4 167.9 287.6 167.3 285.0 164.8C282.4 162.3 277.5 157.6 275.0 155.1C272.5 152.6 272.2 152.3 270.0 149.7C267.8 147.2 264.3 143.2 261.8 140.0C259.3 136.8 257.0 133.5 255.0 130.6C253.0 127.6 251.7 125.4 250.0 122.4C248.3 119.3 246.5 116.0 245.0 112.3C243.5 108.5 241.8 103.7 240.8 100.0C239.8 96.3 239.2 94.2 238.9 90.0C238.6 85.8 238.7 79.2 239.0 75.0C239.4 70.8 240.1 68.4 241.1 65.0C242.1 61.6 243.5 57.9 245.0 54.6C246.5 51.2 248.1 48.3 250.2 45.0C252.3 41.7 254.9 38.1 257.3 35.0C259.8 31.9 262.7 28.7 265.0 26.2C267.3 23.7 268.6 22.4 271.1 20.0C273.6 17.6 277.1 14.4 280.0 11.9C282.9 9.4 285.9 7.0 288.3 5.0C290.8 3.0 293.7 0.8 294.8 0.0"/><path d="M0.0 588.9C2.5 588.2 10.8 585.9 15.0 585.0C19.2 584.2 20.8 584.1 25.0 583.9C29.2 583.7 35.8 583.7 40.0 583.9C44.2 584.1 46.2 584.3 50.3 585.0C54.5 585.7 60.9 586.9 65.0 587.8C69.1 588.7 71.0 589.3 75.0 590.5C79.0 591.7 84.7 593.5 88.9 595.0C93.0 596.5 96.5 597.8 100.0 599.2C103.5 600.6 106.7 602.0 110.0 603.4C113.3 604.9 116.7 606.4 120.0 608.0C123.3 609.5 126.7 611.1 130.0 612.8C133.3 614.5 136.7 616.2 140.0 617.9C143.3 619.7 146.7 621.5 150.0 623.4C153.3 625.2 156.7 627.2 160.0 629.1C163.3 631.1 166.8 633.2 169.7 635.0C172.6 636.8 174.9 638.3 177.4 640.0C180.0 641.7 182.1 643.1 185.0 645.1C187.9 647.2 191.7 649.9 195.0 652.4C198.3 654.9 202.0 657.9 204.6 660.0C207.2 662.1 207.9 662.7 210.5 665.0C213.0 667.3 217.4 671.4 220.0 673.9C222.6 676.4 223.5 677.3 225.9 680.0C228.4 682.7 232.4 687.2 234.7 690.0C237.0 692.8 238.1 694.3 240.0 696.8C241.9 699.3 243.8 702.0 245.9 705.0C247.9 708.0 250.2 711.7 252.3 715.0C254.3 718.3 256.2 721.7 258.1 725.0C259.9 728.3 261.7 731.7 263.5 735.0C265.2 738.3 266.9 741.7 268.6 745.0C270.3 748.3 272.0 751.7 273.7 755.0C275.5 758.3 277.2 761.7 279.0 765.0C280.8 768.3 282.6 771.8 284.5 775.0C286.3 778.2 288.2 781.5 290.0 784.4C291.8 787.2 293.3 789.6 295.0 792.2C296.7 794.8 298.2 797.0 300.3 800.0C302.5 803.0 305.3 806.8 307.8 810.0C310.2 813.2 312.9 816.5 315.0 819.0C317.1 821.5 317.8 822.3 320.1 825.0C322.5 827.7 326.6 832.3 329.1 835.0C331.6 837.7 332.7 839.0 335.0 841.5C337.3 844.0 340.4 847.3 342.9 850.0C345.4 852.7 347.8 855.4 350.0 857.9C352.2 860.4 353.8 862.2 356.1 865.0C358.4 867.8 361.4 871.7 363.7 875.0C365.9 878.3 367.9 881.7 369.5 885.0C371.1 888.3 372.4 891.7 373.1 895.0C373.8 898.3 373.8 903.3 373.9 905.0"/><path d="M850.7 0.0C851.1 2.5 852.7 10.0 853.4 15.0C854.1 20.0 854.4 25.8 854.7 30.0C855.0 34.2 855.1 35.8 855.1 40.0C855.2 44.2 855.3 50.2 855.3 55.0C855.2 59.8 855.1 64.8 855.0 69.0C854.9 73.1 854.8 75.7 854.6 80.0C854.3 84.3 854.0 90.0 853.6 95.0C853.2 100.0 852.6 105.3 852.0 110.0C851.4 114.7 850.8 118.9 850.0 123.1C849.2 127.2 848.3 131.3 847.4 135.0C846.5 138.7 845.9 141.2 844.6 145.0C843.4 148.8 841.6 153.7 840.0 157.6C838.4 161.6 836.7 165.2 835.0 168.5C833.3 171.9 831.7 174.8 830.0 177.6C828.3 180.5 826.9 182.8 825.0 185.6C823.1 188.5 820.8 191.8 818.4 195.0C815.9 198.2 812.6 202.3 810.3 205.0C808.1 207.7 807.3 208.5 805.0 211.0C802.7 213.5 798.9 217.5 796.4 220.0C793.9 222.5 792.7 223.7 790.0 226.2C787.3 228.7 782.9 232.7 780.2 235.0C777.6 237.3 776.8 237.9 774.3 240.0C771.8 242.1 768.2 244.9 765.0 247.3C761.8 249.8 758.0 252.6 755.0 254.7C752.0 256.8 749.8 258.3 747.2 260.0C744.6 261.7 742.2 263.2 739.4 265.0C736.5 266.8 733.2 268.7 730.0 270.5C726.8 272.4 723.3 274.2 720.0 275.9C716.7 277.6 713.3 279.2 710.0 280.8C706.7 282.3 704.0 283.5 700.0 285.0C696.0 286.6 690.1 288.7 685.9 290.0C681.8 291.3 678.5 292.2 675.0 293.1C671.5 293.9 669.2 294.5 665.0 295.2C660.8 295.9 655.0 296.8 650.0 297.3C645.0 297.8 640.0 298.0 635.0 298.0C630.0 298.0 625.0 297.8 620.0 297.3C615.0 296.9 609.2 296.0 605.0 295.4C600.8 294.7 598.9 294.3 595.0 293.4C591.1 292.5 585.5 291.1 581.3 290.0C577.2 288.9 573.6 287.7 570.0 286.6C566.4 285.4 563.3 284.3 560.0 283.1C556.7 282.0 553.5 280.8 550.0 279.4C546.5 278.1 542.7 276.6 538.9 275.0C535.1 273.4 530.9 271.7 527.0 270.0C523.2 268.3 519.3 266.6 515.6 265.0C512.0 263.4 508.4 261.8 505.0 260.2C501.6 258.7 498.3 257.2 495.0 255.7C491.7 254.1 488.3 252.6 485.0 251.1C481.7 249.5 478.3 248.0 475.0 246.5C471.7 245.0 468.3 243.4 465.0 241.9C461.7 240.4 458.3 238.9 455.0 237.3C451.7 235.8 448.3 234.3 445.0 232.8C441.7 231.3 438.3 229.8 435.0 228.3C431.7 226.7 428.3 225.2 425.0 223.7C421.7 222.2 418.3 220.7 415.0 219.2C411.7 217.7 408.3 216.1 405.0 214.6C401.7 213.0 398.4 211.5 395.0 209.9C391.6 208.3 388.2 206.6 384.8 205.0C381.5 203.4 378.1 201.7 374.8 200.0C371.5 198.3 368.3 196.6 365.0 194.9C361.7 193.1 358.3 191.2 355.0 189.3C351.7 187.4 348.3 185.5 345.0 183.4C341.7 181.4 338.3 179.3 335.0 177.0C331.7 174.8 327.8 172.1 325.0 170.1C322.2 168.1 320.7 167.0 318.2 165.0C315.7 163.0 312.9 160.7 310.0 158.2C307.1 155.7 303.5 152.4 301.0 150.0C298.5 147.6 297.2 146.2 295.0 143.7C292.8 141.2 290.0 138.1 287.6 135.0C285.2 131.9 282.7 128.3 280.6 125.0C278.5 121.7 276.7 118.3 275.2 115.0C273.7 111.7 272.4 108.3 271.4 105.0C270.4 101.7 269.6 99.2 269.2 95.0C268.8 90.8 268.7 84.2 269.1 80.0C269.4 75.8 270.2 73.3 271.2 70.0C272.2 66.7 273.5 63.3 275.1 60.0C276.7 56.7 278.7 53.3 280.9 50.0C283.2 46.7 286.2 42.8 288.6 40.0C290.9 37.2 292.5 35.6 295.0 33.1C297.5 30.6 301.1 27.2 303.6 25.0C306.1 22.8 307.3 21.8 310.0 19.6C312.7 17.4 316.7 14.4 320.0 12.0C323.3 9.6 327.0 7.1 330.0 5.1C333.0 3.1 336.9 0.9 338.2 0.0"/><path d="M0.0 632.7C1.7 631.9 6.7 629.3 10.0 627.9C13.3 626.5 15.8 625.4 20.0 624.3C24.2 623.2 30.0 621.9 35.0 621.3C40.0 620.7 45.0 620.5 50.0 620.6C55.0 620.7 60.0 621.2 65.0 622.0C70.0 622.7 75.7 624.0 79.9 625.0C84.1 626.0 86.6 626.9 90.0 627.9C93.4 629.0 96.7 630.2 100.0 631.4C103.3 632.7 106.7 634.0 110.0 635.4C113.3 636.9 116.7 638.4 120.0 640.0C123.3 641.6 126.7 643.3 130.0 645.1C133.3 646.9 136.7 648.8 140.0 650.8C143.3 652.8 146.7 654.9 150.0 657.1C153.3 659.3 157.0 661.9 160.0 664.0C163.0 666.2 165.3 668.0 167.8 670.0C170.3 672.0 172.2 673.6 175.0 676.1C177.8 678.6 182.0 682.5 184.5 685.0C187.0 687.5 187.8 688.4 190.0 690.9C192.2 693.4 195.2 696.8 197.7 700.0C200.1 703.2 202.8 707.0 204.9 710.0C206.9 713.0 208.3 715.3 210.0 718.2C211.7 721.1 213.3 724.0 215.0 727.2C216.7 730.4 218.3 733.9 220.0 737.5C221.7 741.2 223.5 745.4 225.0 749.1C226.5 752.9 227.9 756.5 229.3 760.0C230.6 763.5 231.7 766.7 233.0 770.0C234.2 773.3 235.4 776.7 236.6 780.0C237.8 783.3 238.9 786.3 240.3 790.0C241.7 793.7 243.4 798.3 245.0 802.5C246.6 806.6 248.4 811.2 250.0 815.0C251.5 818.8 252.7 821.7 254.1 825.0C255.4 828.3 256.8 831.7 258.2 835.0C259.6 838.3 261.0 841.7 262.3 845.0C263.6 848.3 264.9 851.4 266.2 855.0C267.5 858.6 268.8 862.1 270.0 866.3C271.2 870.5 272.7 875.2 273.5 880.0C274.3 884.8 274.9 890.8 275.0 895.0C275.1 899.2 274.4 903.3 274.3 905.0"/><path d="M805.6 0.0C806.8 1.7 810.9 6.7 813.0 10.0C815.0 13.3 816.5 16.7 817.8 20.0C819.2 23.3 820.0 25.8 821.1 30.0C822.2 34.2 823.5 40.8 824.2 45.0C825.0 49.2 825.1 50.8 825.5 55.0C825.9 59.2 826.4 65.0 826.6 70.0C826.9 75.0 827.0 80.0 826.9 85.0C826.9 90.0 826.7 95.0 826.4 100.0C826.1 105.0 825.5 110.8 825.0 115.0C824.5 119.1 824.2 120.9 823.4 125.0C822.6 129.1 821.1 135.4 820.0 139.5C818.9 143.7 817.9 146.6 816.6 150.0C815.4 153.4 814.1 156.7 812.6 160.0C811.0 163.3 809.4 166.7 807.6 170.0C805.8 173.3 803.7 176.7 801.6 180.0C799.6 183.3 796.9 186.9 795.0 189.6C793.1 192.2 792.1 193.4 790.0 195.9C787.9 198.5 784.6 202.3 782.1 205.0C779.6 207.7 777.6 209.8 775.0 212.3C772.4 214.8 769.3 217.8 766.8 220.0C764.3 222.2 762.8 223.5 760.0 225.8C757.2 228.1 753.2 231.2 750.0 233.6C746.8 236.0 743.7 238.1 740.9 240.0C738.1 241.9 735.9 243.3 733.1 245.0C730.4 246.7 727.6 248.3 724.6 250.0C721.6 251.7 718.4 253.4 715.0 255.0C711.6 256.7 708.1 258.3 704.1 260.0C700.1 261.7 695.0 263.6 690.9 265.0C686.9 266.4 683.5 267.4 680.0 268.3C676.5 269.2 674.2 269.9 670.0 270.6C665.8 271.4 660.0 272.4 655.0 272.9C650.0 273.5 645.0 273.7 640.0 273.8C635.0 273.9 630.0 273.7 625.0 273.3C620.0 273.0 614.2 272.2 610.0 271.6C605.8 271.0 604.2 270.7 600.0 269.8C595.8 268.8 589.2 267.2 585.0 266.1C580.8 265.0 578.3 264.2 575.0 263.2C571.7 262.1 568.9 261.2 565.0 259.9C561.1 258.5 555.8 256.6 551.7 255.0C547.5 253.4 543.6 251.8 540.0 250.4C536.4 248.9 533.3 247.6 530.0 246.2C526.7 244.8 523.3 243.3 520.0 241.9C516.7 240.4 513.3 238.9 510.0 237.4C506.7 235.9 503.3 234.4 500.0 232.9C496.7 231.4 493.3 229.9 490.0 228.3C486.7 226.8 483.3 225.3 480.0 223.7C476.7 222.2 473.3 220.7 470.0 219.1C466.7 217.6 463.3 216.1 460.0 214.6C456.7 213.0 453.5 211.6 450.0 210.0C446.5 208.4 442.8 206.7 439.2 205.0C435.6 203.3 432.0 201.7 428.5 200.0C424.9 198.3 421.3 196.7 417.8 195.0C414.3 193.3 410.8 191.7 407.4 190.0C403.9 188.3 400.6 186.7 397.3 185.0C393.9 183.3 390.7 181.7 387.5 180.0C384.4 178.3 381.3 176.7 378.3 175.0C375.3 173.3 372.6 171.8 369.6 170.0C366.5 168.2 363.3 166.2 360.0 164.1C356.7 161.9 353.2 159.6 350.0 157.2C346.8 154.9 343.1 152.0 340.5 150.0C338.0 148.0 337.3 147.4 334.7 145.0C332.1 142.6 327.4 137.9 325.0 135.3C322.6 132.7 321.9 131.9 320.0 129.3C318.1 126.8 315.5 123.2 313.6 120.0C311.8 116.8 310.2 114.2 308.8 110.0C307.4 105.8 305.6 100.0 305.2 95.0C304.8 90.0 305.5 84.3 306.3 80.0C307.1 75.7 308.5 72.4 310.0 69.0C311.5 65.7 312.9 63.2 315.0 60.0C317.1 56.8 320.2 52.9 322.7 50.0C325.2 47.1 327.3 45.1 330.0 42.6C332.7 40.1 336.2 37.1 338.8 35.0C341.3 32.9 342.7 31.9 345.4 30.0C348.1 28.1 351.7 25.7 355.0 23.7C358.3 21.7 361.7 19.7 365.0 17.9C368.3 16.1 371.7 14.4 375.0 12.9C378.3 11.3 381.7 9.8 385.0 8.4C388.3 7.0 391.0 6.0 395.0 4.6C399.0 3.2 406.8 0.8 409.2 0.0"/><path d="M0.0 682.6C1.7 681.5 6.7 677.9 10.0 675.8C13.3 673.8 16.7 672.0 20.0 670.4C23.3 668.9 26.7 667.5 30.0 666.4C33.3 665.3 35.8 664.4 40.0 663.6C44.2 662.8 50.0 661.9 55.0 661.7C60.0 661.4 65.0 661.7 70.0 662.2C75.0 662.7 80.8 664.0 85.0 664.9C89.2 665.9 91.7 666.8 95.0 667.9C98.3 669.1 101.7 670.4 105.0 671.8C108.3 673.3 111.7 674.9 115.0 676.7C118.3 678.4 121.7 680.4 125.0 682.5C128.3 684.7 132.2 687.4 135.0 689.5C137.8 691.6 139.2 692.8 141.7 695.0C144.2 697.2 147.5 700.3 150.0 702.8C152.5 705.3 154.1 707.1 156.5 710.0C158.8 712.9 161.8 716.8 164.1 720.0C166.3 723.2 168.2 726.3 170.0 729.4C171.8 732.6 173.4 735.6 175.0 739.0C176.6 742.5 178.3 746.5 179.7 750.0C181.1 753.5 182.2 756.7 183.3 760.0C184.4 763.3 185.3 766.0 186.4 770.0C187.5 774.0 189.0 779.6 190.0 783.8C191.0 787.9 191.7 791.1 192.6 795.0C193.4 798.9 194.2 802.8 195.0 806.9C195.8 811.1 196.6 815.3 197.4 820.0C198.2 824.7 199.1 830.8 199.7 835.0C200.2 839.2 200.5 840.8 200.8 845.0C201.1 849.2 201.6 855.0 201.5 860.0C201.4 865.0 200.9 870.8 200.3 875.0C199.7 879.2 199.0 881.7 197.8 885.0C196.6 888.3 195.2 891.7 193.1 895.0C190.9 898.3 186.4 903.0 185.0 904.7C183.6 906.3 184.7 904.9 184.6 905.0"/><path d="M0.0 860.7C1.7 861.7 6.7 864.7 10.0 866.7C13.3 868.6 16.7 870.5 20.0 872.4C23.3 874.2 26.7 876.0 30.0 877.8C33.3 879.6 36.7 881.4 40.0 883.1C43.3 884.8 46.7 886.5 50.0 888.1C53.3 889.8 56.7 891.4 60.0 893.0C63.3 894.5 66.7 896.1 70.0 897.5C73.3 899.0 77.0 900.6 80.0 901.8C83.0 903.1 86.7 904.5 88.0 905.0"/><path d="M705.4 20.0C707.9 19.9 715.7 19.6 720.0 19.6C724.3 19.6 726.8 19.6 731.0 20.0C735.2 20.4 740.8 21.0 745.0 21.9C749.2 22.7 752.5 23.6 756.0 25.0C759.5 26.4 762.9 28.0 766.1 30.0C769.2 32.0 772.5 34.7 775.0 37.2C777.5 39.7 779.4 42.0 781.4 45.0C783.3 48.0 785.3 51.7 786.9 55.0C788.4 58.3 789.4 60.8 790.6 65.0C791.8 69.2 793.3 75.8 794.1 80.0C794.9 84.2 795.0 85.8 795.3 90.0C795.7 94.2 796.0 100.2 795.9 105.0C795.8 109.8 795.4 114.9 795.0 119.1C794.6 123.2 794.1 126.0 793.3 130.0C792.5 134.0 791.3 138.7 790.0 142.8C788.7 147.0 787.1 151.3 785.5 155.0C784.0 158.7 782.4 161.8 780.7 165.0C778.9 168.2 776.8 171.7 775.0 174.5C773.2 177.3 772.0 179.0 770.0 181.6C768.0 184.2 765.7 187.1 763.2 190.0C760.7 192.9 757.5 196.2 755.0 198.7C752.5 201.2 750.8 202.8 748.3 205.0C745.8 207.2 743.1 209.5 740.0 211.9C736.9 214.2 733.2 216.9 730.0 219.1C726.8 221.3 723.7 223.2 720.6 225.0C717.5 226.8 714.7 228.3 711.3 230.0C708.0 231.7 704.0 233.5 700.4 235.0C696.9 236.5 693.4 237.8 690.0 238.9C686.6 240.1 684.1 240.9 680.0 241.9C675.9 242.9 669.8 244.3 665.6 245.0C661.4 245.7 659.3 246.0 655.0 246.3C650.7 246.7 645.0 247.0 640.0 247.0C635.0 247.0 629.2 246.6 625.0 246.3C620.8 245.9 618.7 245.7 614.6 245.0C610.4 244.3 604.1 243.1 600.0 242.2C595.9 241.4 594.2 241.0 590.0 239.8C585.8 238.7 579.2 236.7 575.0 235.3C570.8 234.0 568.3 233.1 565.0 231.9C561.7 230.7 558.3 229.4 555.0 228.2C551.7 226.9 548.3 225.5 545.0 224.2C541.7 222.8 538.6 221.5 535.0 220.0C531.4 218.5 527.4 216.7 523.7 215.0C519.9 213.3 516.3 211.7 512.6 210.0C509.0 208.3 505.4 206.7 501.9 205.0C498.3 203.3 494.8 201.7 491.3 200.0C487.8 198.3 484.4 196.7 480.9 195.0C477.5 193.3 474.0 191.7 470.6 190.0C467.2 188.3 463.8 186.7 460.4 185.0C457.1 183.3 453.7 181.7 450.4 180.0C447.1 178.3 443.8 176.7 440.6 175.0C437.3 173.3 434.1 171.7 431.0 170.0C427.8 168.3 424.8 166.7 421.7 165.0C418.7 163.3 415.8 161.7 412.9 160.0C410.0 158.3 407.5 156.9 404.5 155.0C401.6 153.1 398.3 151.0 395.0 148.8C391.7 146.5 388.0 143.8 385.0 141.5C382.0 139.2 379.7 137.3 377.2 135.0C374.7 132.7 372.2 130.2 370.0 127.7C367.8 125.2 365.8 122.9 363.9 120.0C361.9 117.1 359.8 114.2 358.4 110.0C356.9 105.8 355.2 100.0 355.2 95.0C355.2 90.0 356.9 84.2 358.4 80.0C359.9 75.8 362.3 72.8 364.2 70.0C366.2 67.2 367.4 65.9 370.0 63.4C372.6 60.9 376.8 57.2 379.6 55.0C382.4 52.8 384.3 51.7 387.0 50.0C389.7 48.3 392.6 46.7 395.9 45.0C399.2 43.3 402.8 41.6 406.8 40.0C410.9 38.4 416.1 36.5 420.0 35.3C423.9 34.0 426.4 33.4 430.0 32.5C433.6 31.6 437.2 30.8 441.4 30.0C445.6 29.2 450.2 28.5 455.0 27.8C459.8 27.2 465.0 26.7 470.0 26.3C475.0 25.9 480.0 25.7 485.0 25.5C490.0 25.3 495.0 25.2 500.0 25.2C505.0 25.2 510.0 25.3 515.0 25.4C520.0 25.4 525.0 25.6 530.0 25.7C535.0 25.9 540.0 26.1 545.0 26.2C550.0 26.4 555.0 26.5 560.0 26.7C565.0 26.8 570.0 26.9 575.0 27.0C580.0 27.1 585.0 27.1 590.0 27.1C595.0 27.1 600.0 27.0 605.0 26.9C610.0 26.8 615.0 26.7 620.0 26.4C625.0 26.2 630.8 25.9 635.0 25.6C639.2 25.4 640.8 25.3 645.0 25.0C649.2 24.6 655.0 24.2 660.0 23.7C665.0 23.3 670.0 22.8 675.0 22.4C680.0 21.9 685.0 21.5 690.0 21.1C695.0 20.7 702.4 20.2 705.0 20.0C707.6 19.8 702.9 20.1 705.4 20.0Z" class="i"/><path d="M46.4 720.0C48.9 719.4 55.2 717.3 60.0 716.9C64.8 716.5 70.8 716.8 75.0 717.4C79.2 717.9 81.8 718.7 85.3 720.0C88.8 721.3 92.6 723.1 95.9 725.0C99.2 726.9 102.1 729.0 105.0 731.5C107.9 734.0 110.8 737.0 113.3 740.0C115.8 743.0 118.1 746.3 120.0 749.6C121.9 752.9 123.6 756.4 125.0 759.8C126.4 763.2 127.5 766.6 128.4 770.0C129.3 773.4 130.0 775.8 130.5 780.0C131.0 784.2 131.6 790.0 131.5 795.0C131.5 800.0 130.8 805.8 130.0 810.0C129.3 814.2 128.4 816.7 126.9 820.0C125.4 823.3 123.0 827.4 121.0 830.0C119.0 832.6 117.7 833.9 115.0 835.6C112.3 837.3 109.2 839.3 105.0 840.3C100.8 841.4 94.6 841.8 90.0 841.8C85.4 841.7 81.8 840.9 77.7 840.0C73.5 839.1 68.8 837.5 65.0 836.2C61.2 834.8 58.3 833.5 55.0 831.9C51.7 830.3 48.3 828.5 45.0 826.5C41.7 824.5 37.9 821.9 35.2 820.0C32.5 818.1 31.5 817.3 29.0 815.0C26.4 812.7 22.3 808.6 20.0 806.0C17.7 803.4 16.7 802.1 15.0 799.5C13.3 796.8 11.3 794.1 9.9 790.0C8.5 785.9 6.8 780.0 6.5 775.0C6.2 770.0 7.3 764.2 8.3 760.0C9.2 755.8 10.5 753.3 12.2 750.0C14.0 746.7 16.6 742.8 18.8 740.0C20.9 737.2 22.3 735.7 25.0 733.3C27.7 730.9 31.7 727.7 35.0 725.5C38.3 723.4 43.1 721.4 45.0 720.5C46.9 719.6 43.9 720.6 46.4 720.0Z" class="i"/><path d="M597.2 65.0C599.7 64.9 605.4 64.5 610.0 64.3C614.6 64.0 620.0 63.6 625.0 63.3C630.0 63.0 635.0 62.6 640.0 62.3C645.0 62.0 650.0 61.6 655.0 61.4C660.0 61.1 665.0 60.8 670.0 60.7C675.0 60.5 680.0 60.4 685.0 60.5C690.0 60.6 695.0 60.8 700.0 61.4C705.0 61.9 710.8 62.9 715.0 63.9C719.2 64.9 721.7 65.7 725.0 67.2C728.3 68.6 731.9 70.5 735.0 72.6C738.1 74.7 740.9 77.2 743.4 80.0C745.9 82.8 748.2 86.1 750.0 89.5C751.8 92.8 753.2 96.6 754.3 100.0C755.4 103.4 756.0 105.8 756.4 110.0C756.8 114.2 757.0 120.6 756.8 125.0C756.6 129.4 756.0 132.5 755.0 136.6C754.0 140.8 752.2 146.1 750.7 150.0C749.1 153.9 747.4 156.9 745.7 160.0C743.9 163.1 741.8 166.0 740.0 168.5C738.2 171.0 737.3 172.3 734.8 175.0C732.3 177.7 727.7 182.3 725.0 184.8C722.3 187.3 721.0 188.2 718.5 190.0C716.0 191.8 713.1 193.9 710.0 195.8C706.9 197.7 703.3 199.7 700.0 201.4C696.7 203.0 693.9 204.3 690.0 205.8C686.1 207.2 681.0 208.9 676.9 210.0C672.7 211.1 669.5 211.8 665.0 212.5C660.5 213.2 655.0 213.8 650.0 214.1C645.0 214.3 640.0 214.2 635.0 213.9C630.0 213.7 624.6 213.0 620.0 212.3C615.4 211.7 611.8 210.9 607.6 210.0C603.5 209.1 598.8 207.8 595.0 206.7C591.2 205.7 588.4 204.8 585.0 203.6C581.6 202.5 578.5 201.4 574.7 200.0C570.9 198.6 566.2 196.7 562.3 195.0C558.3 193.3 554.6 191.7 550.9 190.0C547.3 188.3 543.8 186.7 540.5 185.0C537.1 183.3 533.8 181.7 530.6 180.0C527.4 178.3 524.3 176.7 521.2 175.0C518.2 173.3 515.2 171.7 512.3 170.0C509.4 168.3 506.6 166.7 503.7 165.0C500.9 163.3 498.1 161.6 495.0 159.6C491.9 157.6 488.3 155.3 485.0 153.0C481.7 150.7 477.9 148.0 475.0 145.9C472.1 143.7 470.1 142.1 467.6 140.0C465.1 137.9 462.5 135.5 460.0 133.0C457.5 130.5 455.0 128.0 452.9 125.0C450.7 122.0 448.2 119.2 447.2 115.0C446.2 110.8 445.7 104.2 446.8 100.0C447.9 95.8 451.6 92.5 453.9 90.0C456.2 87.5 457.9 86.7 460.7 85.0C463.6 83.3 466.9 81.6 470.9 80.0C475.0 78.4 481.0 76.6 485.0 75.5C489.0 74.4 490.8 74.1 495.0 73.3C499.2 72.5 505.8 71.5 510.0 70.9C514.2 70.3 515.8 70.1 520.0 69.7C524.2 69.3 530.0 68.8 535.0 68.5C540.0 68.1 545.0 67.8 550.0 67.5C555.0 67.2 560.0 67.0 565.0 66.7C570.0 66.4 575.0 66.2 580.0 65.9C585.0 65.7 592.1 65.3 595.0 65.1C597.9 65.0 594.7 65.1 597.2 65.0Z"/></g></svg>